<svg width="60" height="60" viewBox="0 0 60 60" fill="none" xmlns="http://www.w3.org/2000/svg">
<path d="M18.1046 34.2878C22.2171 34.2878 25.5129 37.6157 25.5129 41.7574V51.7003C25.5129 55.8128 22.2171 59.1669 18.1046 59.1669L8.24622 59.1669C4.16289 59.1669 0.837891 55.8128 0.837891 51.7003L0.837891 41.7574C0.837891 37.6157 4.16289 34.2878 8.24622 34.2878L18.1046 34.2878ZM51.7632 34.2878C55.8465 34.2878 59.1715 37.6157 59.1715 41.7574L59.1715 51.7003C59.1715 55.8128 55.8465 59.1669 51.7632 59.1669L41.9049 59.1669C37.7924 59.1669 34.4965 55.8128 34.4965 51.7003L34.4965 41.7574C34.4965 37.6157 37.7924 34.2878 41.9049 34.2878L51.7632 34.2878ZM18.1046 0.834473C22.2171 0.834473 25.5129 4.18864 25.5129 8.30406L25.5129 18.247C25.5129 22.3886 22.2171 25.7136 18.1046 25.7136L8.24622 25.7136C4.16289 25.7136 0.837891 22.3886 0.837891 18.247L0.837891 8.30406C0.837891 4.18864 4.16289 0.834473 8.24622 0.834473L18.1046 0.834473ZM51.7632 0.834473C55.8465 0.834473 59.1715 4.18864 59.1715 8.30406L59.1715 18.247C59.1715 22.3886 55.8465 25.7136 51.7632 25.7136H41.9049C37.7924 25.7136 34.4965 22.3886 34.4965 18.247L34.4965 8.30406C34.4965 4.18864 37.7924 0.834473 41.9049 0.834473L51.7632 0.834473Z" fill="white"/>
</svg>
