<svg width="400" height="378" viewBox="0 0 400 378" fill="none" xmlns="http://www.w3.org/2000/svg">
<path d="M200 204.75C200 230.848 155.233 252 100 252C44.7667 252 0 230.848 0 204.75C0 178.652 44.7667 157.5 100 157.5C155.233 157.5 200 178.652 200 204.75ZM200 291.375V322.875C200 354.296 157.017 378 100 378C42.9833 378 0 354.296 0 322.875V291.375C0 322.418 41.6667 346.5 100 346.5C158.333 346.5 200 322.418 200 291.375ZM200 228.375V259.875C200 291.296 157.017 315 100 315C42.9833 315 0 291.296 0 259.875V228.375C0 259.418 41.6667 283.5 100 283.5C158.333 283.5 200 259.418 200 228.375ZM183.333 94.5C158.183 94.5 136.25 107.73 124.9 127.197C186.167 133.229 229.35 161.516 233.067 199.411C243.6 188.26 250 173.581 250 157.5C250 122.755 220.1 94.5 183.333 94.5ZM400 78.75V47.25C400 21.1995 377.567 0 350 0H50C22.7167 0 0.483333 20.7585 0.0166667 46.431C0.0166667 46.6987 0 46.9665 0 47.25V150.979C21.6833 136.773 52.65 127.764 88.9667 126.236C102.65 89.4442 139.783 63 183.333 63C238.483 63 283.333 105.383 283.333 157.5C283.333 192.402 263.2 222.957 233.333 239.321V315H333.333V346.5H366.667V315H400V236.25H350V204.75H400V110.25H350V78.75H400Z" fill="url(#paint0_linear_995_97)"/>
<defs>
<linearGradient id="paint0_linear_995_97" x1="257.5" y1="94.08" x2="113.027" y2="303.709" gradientUnits="userSpaceOnUse">
<stop/>
<stop offset="0.47363"/>
<stop offset="1" stop-color="#093AB9"/>
</linearGradient>
</defs>
</svg>
