<svg width="59" height="60" viewBox="0 0 59 60" fill="none" xmlns="http://www.w3.org/2000/svg">
<path d="M53.4692 43.2568V40.6054C53.4692 33.2877 48.025 27.3486 41.3171 27.3486H31.5954V16.7431C34.2689 16.7431 36.4563 14.3569 36.4563 11.4404V6.13769C36.4563 3.22119 34.2689 0.834961 31.5954 0.834961H26.7346C24.0611 0.834961 21.8738 3.22119 21.8738 6.13769V11.4404C21.8738 14.3569 24.0611 16.7431 26.7346 16.7431V27.3486H17.0129C10.305 27.3486 4.86083 33.2877 4.86083 40.6054V43.2568C2.18738 43.2568 0 45.643 0 48.5595V53.8622C0 56.7787 2.18738 59.165 4.86083 59.165H9.72167C12.3951 59.165 14.5825 56.7787 14.5825 53.8622V48.5595C14.5825 45.643 12.3951 43.2568 9.72167 43.2568V40.6054C9.72167 36.2307 13.0027 32.6513 17.0129 32.6513H26.7346V43.2568C24.0611 43.2568 21.8738 45.643 21.8738 48.5595V53.8622C21.8738 56.7787 24.0611 59.165 26.7346 59.165H31.5954C34.2689 59.165 36.4563 56.7787 36.4563 53.8622V48.5595C36.4563 45.643 34.2689 43.2568 31.5954 43.2568V32.6513H41.3171C45.3273 32.6513 48.6083 36.2307 48.6083 40.6054V43.2568C45.9349 43.2568 43.7475 45.643 43.7475 48.5595V53.8622C43.7475 56.7787 45.9349 59.165 48.6083 59.165H53.4692C56.1426 59.165 58.33 56.7787 58.33 53.8622V48.5595C58.33 45.643 56.1426 43.2568 53.4692 43.2568Z" fill="white"/>
</svg>
