<svg width="59" height="60" viewBox="0 0 59 60" fill="none" xmlns="http://www.w3.org/2000/svg">
<path d="M58.33 49.4407H36.0091C35.646 48.4241 35.0617 47.5009 34.2984 46.7376C33.5351 45.9743 32.6119 45.39 31.5954 45.0269V34.8576H38.8867C41.9444 34.8589 44.8902 33.7073 47.1365 31.6327C49.3828 29.558 50.7644 26.7128 51.0058 23.6645C51.2472 20.6162 50.3306 17.5889 48.4388 15.1866C46.5471 12.7842 43.8192 11.1833 40.7994 10.7033C39.9574 7.57817 38.0078 4.86583 35.3141 3.07175C32.6203 1.27768 29.3662 0.524278 26.1581 0.951958C22.95 1.37964 20.0069 2.95922 17.8772 5.39633C15.7475 7.83343 14.5765 10.9618 14.5825 14.1984C14.5832 14.6996 14.6141 15.2004 14.6749 15.698C12.3692 16.2682 10.3521 17.6628 9.0043 19.6185C7.65647 21.5742 7.07117 23.9556 7.35888 26.3133C7.64659 28.671 8.7874 30.8418 10.566 32.4159C12.3446 33.99 14.6378 34.8586 17.0129 34.8576H26.7346V45.0269C25.7181 45.39 24.7949 45.9743 24.0316 46.7376C23.2683 47.5009 22.6841 48.4241 22.3209 49.4407H0V54.3017H22.3209C22.8159 55.7224 23.7407 56.9539 24.9671 57.8253C26.1934 58.6968 27.6606 59.165 29.165 59.165C30.6694 59.165 32.1366 58.6968 33.3629 57.8253C34.5893 56.9539 35.5141 55.7224 36.0091 54.3017H58.33V49.4407Z" fill="white"/>
</svg>
