<svg width="59" height="60" viewBox="0 0 59 60" fill="none" xmlns="http://www.w3.org/2000/svg">
<path d="M31.5526 54.2318H13.3448C10.3733 54.2355 7.48574 53.2452 5.14093 51.4182C2.79612 49.5911 1.12856 47.0322 0.403194 44.1479C-0.32217 41.2635 -0.0637332 38.2193 1.13744 35.4989C2.33862 32.7784 4.41364 30.5377 7.03282 29.1329C5.59521 26.3798 4.84551 23.319 4.84789 20.2126C4.86307 15.4469 6.6267 10.8529 9.8037 7.30332C12.9807 3.75374 17.3497 1.49592 22.0806 0.958847C26.8116 0.421773 31.5748 1.64286 35.4653 4.39012C39.3558 7.13737 42.1026 11.2194 43.1837 15.8606C46.3579 16.594 49.2962 18.1167 51.7267 20.2879C51.4718 20.2733 51.2315 20.2126 50.9742 20.2126C48.1325 20.2164 45.382 21.2162 43.2001 23.0384C41.0182 24.8605 39.5427 27.3899 39.0299 30.1875L36.9736 31.2178C35.2921 30.3704 33.4352 29.9302 31.5526 29.9324C28.3332 29.9324 25.2458 31.2124 22.9694 33.4909C20.693 35.7694 19.4141 38.8598 19.4141 42.0821C19.4141 45.3044 20.693 48.3947 22.9694 50.6732C25.2458 52.9517 28.3332 54.2318 31.5526 54.2318ZM50.9742 39.6521C52.4146 39.6521 53.8227 39.2246 55.0204 38.4236C56.2181 37.6226 57.1516 36.484 57.7029 35.152C58.2541 33.82 58.3983 32.3542 58.1173 30.9401C57.8363 29.526 57.1427 28.2271 56.1241 27.2076C55.1055 26.1881 53.8078 25.4938 52.395 25.2125C50.9822 24.9313 49.5179 25.0756 48.187 25.6274C46.8562 26.1791 45.7188 27.1135 44.9185 28.3123C44.1182 29.5111 43.6911 30.9205 43.6911 32.3623C43.7025 32.6579 43.7325 32.9525 43.7809 33.2444L36.5949 36.8431C35.567 35.8477 34.2691 35.1772 32.863 34.9153C31.4569 34.6534 30.0049 34.8116 28.6881 35.3704C27.3713 35.9291 26.248 36.8635 25.4583 38.0571C24.6686 39.2506 24.2475 40.6505 24.2475 42.0821C24.2475 43.5136 24.6686 44.9135 25.4583 46.1071C26.248 47.3006 27.3713 48.2351 28.6881 48.7938C30.0049 49.3525 31.4569 49.5108 32.863 49.2489C34.2691 48.987 35.567 48.3165 36.5949 47.321L43.7809 50.9198C43.7325 51.2116 43.7025 51.5062 43.6911 51.8018C43.6826 53.4925 44.2586 55.1341 45.3214 56.4482C46.3841 57.7624 47.8683 58.6681 49.5222 59.0119C51.176 59.3557 52.8978 59.1163 54.3955 58.3344C55.8931 57.5526 57.0745 56.2763 57.7393 54.722C58.4041 53.1677 58.5113 51.4312 58.0429 49.8068C57.5744 48.1824 56.559 46.7702 55.1689 45.8096C53.7789 44.8491 52.0997 44.3993 50.4161 44.5366C48.7325 44.6739 47.1482 45.3898 45.9318 46.5629L38.7458 42.9641C38.7943 42.6723 38.8243 42.3777 38.8357 42.0821C38.8243 41.7865 38.7943 41.4918 38.7458 41.2L45.9318 37.6013C47.2827 38.9145 49.0911 39.65 50.9742 39.6521Z" fill="white"/>
</svg>
