<svg width="59" height="60" viewBox="0 0 59 60" fill="none" xmlns="http://www.w3.org/2000/svg">
<path d="M57.0201 47.6691C55.0173 46.9686 54.1605 46.0389 54.2434 44.6518C54.3287 43.0327 53.2532 41.8468 52.7424 41.3782C53.051 40.3715 53.9527 36.8889 52.7433 33.8639C51.4436 30.6261 47.4756 25.681 43.3813 20.8201C41.7052 18.8239 41.6259 16.654 41.5343 14.1414C41.4465 11.7448 41.3476 9.02837 39.7827 6.00858C38.0813 2.72047 34.6673 0.834961 30.4156 0.834961C27.8863 0.834961 25.2901 1.51006 23.2922 2.687C19.201 5.09843 19.7418 10.356 20.0996 13.835C20.1487 14.3114 20.1948 14.7614 20.2217 15.1456C20.4599 18.5529 20.2432 20.3487 19.9597 20.8945C19.7763 21.2512 18.8734 22.2663 17.9179 23.3411C16.9297 24.4526 15.8094 25.7126 14.891 26.8866C13.7954 28.2994 12.9108 30.4588 12.0554 32.547C11.4296 34.0751 10.8384 35.5184 10.2629 36.3809C9.17213 38.0402 9.44353 39.5874 9.67014 40.3024C9.25722 40.5474 8.66067 41.0298 8.15705 41.9389C7.54842 43.0482 6.31345 43.6443 3.74543 44.066C2.56533 44.2722 1.75157 44.696 1.32611 45.3256C0.706943 46.2418 1.04418 47.3931 1.35186 48.1799C1.80643 49.3366 1.52316 50.0687 1.00813 51.3978C0.889445 51.7046 0.754864 52.0519 0.618492 52.435C0.403744 53.0395 0.481223 53.5891 0.848243 54.0686C1.81808 55.3349 4.64809 55.7814 7.5614 56.0752C9.30088 56.2515 11.2047 56.8457 13.0461 57.4206C14.8503 57.9836 16.7158 58.566 18.4117 58.7427C18.6694 58.7704 18.9247 58.7844 19.1708 58.7844C21.7312 58.7844 22.888 57.3334 23.2548 56.7373C24.1745 56.577 27.3464 56.0637 30.6155 55.9948C33.8795 55.9153 37.0376 56.4657 37.9322 56.6369C38.2135 57.0966 38.9549 58.1468 40.1368 58.6878C40.7864 58.9911 41.6904 59.165 42.6163 59.165C43.6052 59.165 45.4867 58.9653 46.9756 57.6275C48.4607 56.2834 52.1712 54.5676 54.8807 53.3147C55.4853 53.0351 56.0509 52.7735 56.5469 52.5373C58.069 51.8167 58.8996 50.787 58.8254 49.7124C58.7636 48.8198 58.0719 48.0369 57.0201 47.6691ZM23.3255 47.4103C23.1361 46.2705 21.4192 45.14 19.431 43.8311C17.8053 42.7607 15.9625 41.5477 15.4549 40.5203C14.4058 38.4009 15.2328 34.6742 16.6746 32.7553C17.3872 31.7944 17.9692 30.3373 18.5321 28.9282C19.1399 27.4067 19.7684 25.8334 20.4713 25.1448C21.5845 24.0696 22.6132 21.9775 22.7955 20.3288C23.8379 21.1787 25.4549 22.2571 26.9487 22.2571C27.1787 22.2571 27.4019 22.2315 27.6153 22.1801C28.6374 21.928 30.1406 21.1861 31.5943 20.469C32.8477 19.8505 34.3932 19.0878 34.9748 19.0184C35.9719 20.2412 41.7661 31.1922 42.3581 34.709C42.8266 37.4917 42.3317 39.792 42.0829 40.693C41.8827 40.6696 41.644 40.6507 41.3932 40.6507C39.7794 40.6507 39.3521 41.4031 39.2408 41.8523C38.9547 43.0195 38.9244 46.7517 38.9213 47.5903C38.3377 48.2235 35.3866 51.2054 31.1496 51.7415C29.4238 51.9557 27.8122 52.0643 26.3598 52.0643C25.1183 52.0643 24.3261 51.9825 23.9971 51.9398L21.868 49.8593C22.7075 49.5053 23.5468 48.7582 23.3255 47.4103ZM26.0272 13.1033C25.9607 13.1278 25.8954 13.154 25.8311 13.1819C25.8246 13.0587 25.8096 12.9338 25.7865 12.8086C25.5541 11.6659 24.6669 10.8364 23.6773 10.8364C23.6041 10.8364 23.5304 10.8412 23.4496 10.8517C22.8609 10.9355 22.3992 11.3132 22.1461 11.8487C22.368 10.6737 23.1475 9.80369 24.0723 9.80369C25.1584 9.80369 26.0758 11.0537 26.0758 12.5332C26.0758 12.7196 26.0599 12.9051 26.0272 13.1033ZM34.4662 13.9843C34.5657 13.7139 34.6194 13.4213 34.6194 13.1176C34.6194 11.7762 33.6229 10.7253 32.3508 10.7253C31.1075 10.7253 30.096 11.7984 30.096 13.1176C30.096 13.2075 30.1012 13.2976 30.111 13.3875C30.0452 13.3659 29.9809 13.3448 29.9182 13.3245C29.7751 12.9545 29.7028 12.5684 29.7028 12.1742C29.7028 10.5702 30.9031 9.26514 32.3788 9.26514C33.8542 9.26514 35.0547 10.5702 35.0547 12.1742C35.0547 12.8415 34.8391 13.4783 34.4662 13.9843ZM33.3782 17.1063C33.3569 17.1874 33.3117 17.2233 32.8114 17.4455C32.5588 17.5578 32.2444 17.6976 31.851 17.9022L31.5881 18.0382C30.5316 18.5852 28.0578 19.8663 27.3863 19.9415C26.9301 19.9939 26.648 19.8428 26.0136 19.4747C25.8705 19.3915 25.7182 19.3031 25.5559 19.2142C24.4123 18.5733 23.6767 17.8674 23.5936 17.5915C23.9664 17.3453 24.8906 16.7293 25.3637 16.3646C26.3242 15.6019 27.2907 15.0894 27.769 15.0894C27.7943 15.0894 27.8171 15.0909 27.8408 15.0947C28.4029 15.1795 29.7893 15.652 30.8019 15.997C31.2699 16.1565 31.6741 16.2942 31.9584 16.3814C32.8544 16.6442 33.3215 16.9804 33.3782 17.1063ZM41.4277 52.749C41.9331 50.8019 42.5154 48.1531 42.4211 46.5916C42.3994 46.2368 42.3626 45.8507 42.327 45.4774C42.2605 44.7793 42.1618 43.7418 42.2637 43.4341C42.2838 43.4261 42.3062 43.4192 42.3311 43.4133C42.3353 44.306 42.5624 46.0867 44.2297 46.7077C44.7266 46.8928 45.2945 46.9865 45.9175 46.9865C47.5878 46.9865 49.441 46.2868 50.2001 45.6384C50.6471 45.2567 51.0231 44.7897 51.2864 44.4198C51.344 44.5638 51.3793 44.752 51.3608 44.9945C51.2616 46.3112 52.0108 48.0581 53.4368 48.7018L53.6444 48.795C54.1523 49.0225 55.5012 49.6275 55.5229 49.9143C55.5229 49.9143 55.5115 49.9482 55.4363 50.0079C55.0984 50.2716 53.9091 50.7902 52.759 51.2919C50.7188 52.1816 48.4062 53.19 47.3677 54.1229C45.9054 55.4372 44.2515 56.32 43.2527 56.32C43.1325 56.32 43.023 56.307 42.9256 56.2806C41.8409 55.9918 40.9481 54.6552 41.4277 52.749ZM4.45462 47.7817C4.344 47.3396 4.25666 46.9906 4.35049 46.6524C4.41856 46.4019 5.86671 46.1334 6.4852 46.0188C7.35472 45.8576 8.25402 45.691 8.84205 45.3862C9.63722 44.9748 10.0678 44.2161 10.4476 43.5468C10.7226 43.0627 11.0065 42.5622 11.3445 42.3979C11.3635 42.3884 11.3926 42.3773 11.4481 42.3773C12.0812 42.3773 13.4095 43.5139 14.1749 44.5311C14.3691 44.7876 14.7287 45.3015 15.1448 45.8964C16.3891 47.6746 18.093 50.1102 18.9829 50.9264C19.7848 51.6602 21.0829 53.0711 20.7636 54.2811C20.5298 55.2199 19.2852 55.9834 18.9916 56.1522C18.885 56.1729 18.7531 56.1834 18.598 56.1834C16.8948 56.1834 13.5233 54.9732 11.7119 54.323L11.4439 54.2268C10.4324 53.8645 8.78114 53.6364 7.18431 53.4157C5.91374 53.2399 4.17381 52.9995 3.88539 52.7823C3.65161 52.5583 3.92279 51.8302 4.16194 51.1878C4.33414 50.7262 4.51194 50.2488 4.60935 49.7491C4.74752 48.952 4.58494 48.3031 4.45462 47.7817Z" fill="white"/>
</svg>
