<svg width="58" height="58" viewBox="0 0 58 58" fill="none" xmlns="http://www.w3.org/2000/svg">
<path d="M44.7065 4.83313H43.4982V3.62485C43.4982 1.62393 41.8767 0 39.8733 0C37.87 0 36.2485 1.62393 36.2485 3.62485V4.83313H21.7491V3.62485C21.7491 1.62393 20.1276 0 18.1242 0C16.1209 0 14.4994 1.62393 14.4994 3.62485V4.83313H13.2911C5.96167 4.83313 0 10.7972 0 18.1242V45.9993C0 50.731 2.54464 55.1412 6.64314 57.5119C8.37823 58.5147 10.5942 57.9203 11.5947 56.1876C12.5976 54.4525 12.0031 52.2365 10.2728 51.2336C8.40965 50.1558 7.2497 48.1501 7.2497 45.9993V24.1657H15.3404C17.5733 22.3508 20.1856 20.9637 23.0661 20.1493C25.2604 19.5259 27.5561 19.8134 29.5353 20.9347C30.1104 21.2609 30.6396 21.6476 31.1133 22.085C31.3332 21.8095 34.1654 18.9507 34.1654 18.9507C36.1422 16.9764 39.088 16.3916 41.664 17.4597C44.2473 18.5278 45.9148 21.0265 45.9148 23.8201V24.1681H50.7479V46.0018C50.7479 48.1525 49.5904 50.1582 47.7248 51.236C45.9921 52.2389 45.4 54.4549 46.4029 56.19C47.0747 57.3499 48.2927 58 49.5444 58C50.1607 58 50.7841 57.8453 51.3569 57.5143C55.4554 55.146 58 50.7334 58 46.0018V18.1242C58 10.7972 52.0359 4.83313 44.7065 4.83313Z" fill="white"/>
</svg>
