<svg width="59" height="60" viewBox="0 0 59 60" fill="none" xmlns="http://www.w3.org/2000/svg">
<path d="M19.4441 29.9987C11.4016 29.9987 4.86104 23.4588 4.86104 15.4169C4.86104 7.37494 11.4016 0.834961 19.4441 0.834961C27.4867 0.834961 34.0273 7.37494 34.0273 15.4169C34.0273 23.4588 27.4867 29.9987 19.4441 29.9987ZM44.8576 59.0993L43.3896 58.3654C40.6212 56.9825 31.5943 51.7938 31.5943 43.1224V34.7962C31.5943 32.1714 33.2665 29.8554 35.7602 29.0291L44.9622 25.979L54.1641 29.0291C56.6554 29.8554 58.33 32.1714 58.33 34.7962V43.1224C58.33 52.9166 49.1815 57.3592 46.3791 58.4869L44.8576 59.0993ZM26.7357 43.1224V34.8618H12.1526C5.45165 34.8618 0 40.313 0 47.0134V59.165H35.6119C31.4047 55.8816 26.7357 50.5641 26.7357 43.1224Z" fill="white"/>
</svg>
