<svg width="59" height="60" viewBox="0 0 59 60" fill="none" xmlns="http://www.w3.org/2000/svg">
<path d="M17.742 24.8047L21.1714 22.8288C22.6418 24.4134 24.5569 25.563 26.7346 26.0612V30.0009H31.5954V26.0612C33.7731 25.563 35.6907 24.4134 37.1586 22.8288L40.588 24.8047L43.0135 20.5928L39.572 18.6096C39.8856 17.5937 40.1019 16.5364 40.1019 15.4184C40.1019 14.3004 39.8856 13.2432 39.572 12.2273L43.0135 10.2441L40.588 6.03217L37.1586 8.0081C35.6882 6.42347 33.7731 5.27388 31.5954 4.77564V0.835938H26.7346V4.77564C24.5569 5.27388 22.6393 6.42347 21.1714 8.0081L17.742 6.03217L15.3165 10.2441L18.758 12.2273C18.4444 13.2432 18.2281 14.3004 18.2281 15.4184C18.2281 16.5364 18.4444 17.5937 18.758 18.6096L15.3165 20.5928L17.742 24.8047ZM29.165 11.7728C31.175 11.7728 32.8106 13.4085 32.8106 15.4184C32.8106 17.4284 31.175 19.0641 29.165 19.0641C27.155 19.0641 25.5194 17.4284 25.5194 15.4184C25.5194 13.4085 27.155 11.7728 29.165 11.7728ZM31.5954 51.8747V54.3051H41.3171V59.1659H17.0129V54.3051H26.7346V51.8747H0V20.2793C0 16.2594 3.27134 12.988 7.29125 12.988H9.88937C9.78972 13.7852 9.72167 14.5945 9.72167 15.4184C9.72167 26.156 18.4274 34.8618 29.165 34.8618C39.9026 34.8618 48.6083 26.156 48.6083 15.4184C48.6083 14.5945 48.5403 13.7852 48.4406 12.988H51.0388C55.0587 12.988 58.33 16.2594 58.33 20.2793V51.8747H31.5954Z" fill="white"/>
</svg>
