<svg width="59" height="60" viewBox="0 0 59 60" fill="none" xmlns="http://www.w3.org/2000/svg">
<path d="M24.3917 20.2793C24.9823 24.3964 28.5331 27.5705 32.8106 27.5705H49.8235C54.5142 27.5705 58.33 23.7548 58.33 19.0641V14.2032C58.33 9.51253 54.5142 5.69677 49.8235 5.69677H45.2568L42.175 2.615C41.0279 1.46542 39.5016 0.835938 37.878 0.835938H32.8082C28.1175 0.835938 24.3017 4.65169 24.3017 9.3424V12.988H7.29125V4.48156C7.20862 -0.311219 0.0802038 -0.308789 0 4.48156V38.5074C0 45.8764 5.99584 51.8747 13.3673 51.8747H24.3917C24.9823 55.9918 28.5331 59.1659 32.8106 59.1659H49.8235C54.5142 59.1659 58.33 55.3502 58.33 50.6595V45.7986C58.33 41.1079 54.5142 37.2922 49.8235 37.2922H45.2568L42.175 34.2104C41.0279 33.0608 39.5016 32.4314 37.878 32.4314H32.8082C28.1175 32.4314 24.3017 36.2471 24.3017 40.9378V44.5834H13.3673C10.0182 44.5834 7.29125 41.8589 7.29125 38.5074V20.2793H24.3917ZM31.5954 9.3424C31.5954 8.67403 32.1398 8.12719 32.8106 8.12719H37.3774L40.4591 11.209C41.6063 12.3585 43.1326 12.988 44.7561 12.988H49.826C50.4968 12.988 51.0412 13.5349 51.0412 14.2032V19.0641C51.0412 19.7324 50.4968 20.2793 49.826 20.2793H32.8131C32.1423 20.2793 31.5979 19.7324 31.5979 19.0641V9.3424H31.5954ZM31.5954 40.9378C31.5954 40.2695 32.1398 39.7226 32.8106 39.7226H37.3774L40.4591 42.8044C41.6063 43.954 43.1326 44.5834 44.7561 44.5834H49.826C50.4968 44.5834 51.0412 45.1303 51.0412 45.7986V50.6595C51.0412 51.3278 50.4968 51.8747 49.826 51.8747H32.8131C32.1423 51.8747 31.5979 51.3278 31.5979 50.6595V40.9378H31.5954Z" fill="white"/>
</svg>
