<svg width="59" height="60" viewBox="0 0 59 60" fill="none" xmlns="http://www.w3.org/2000/svg">
<path d="M41.3171 30.0009L24.3042 59.1659H58.33L41.3171 30.0009ZM43.7475 56.7355H38.8867V51.8747H43.7475V56.7355ZM38.8867 49.4443V39.7226H43.7475V49.4443H38.8867ZM28.6011 42.153L38.5245 25.1401H44.1096L51.43 37.6908C52.7376 34.5142 53.4692 31.0922 53.4692 27.5705C53.4692 12.8276 41.4751 0.835938 26.7346 0.835938C11.9941 0.835938 0 12.8276 0 27.5705C0 36.2568 4.25809 44.4328 11.3889 49.4443L12.8107 50.4432L18.2257 42.153H28.6011ZM10.9806 14.9688L14.1304 11.819L25.2715 22.96C25.7357 22.8118 26.2193 22.7121 26.7322 22.7121C29.4178 22.7121 31.593 24.8873 31.593 27.573C31.593 30.2586 29.4178 32.4338 26.7322 32.4338C24.0465 32.4338 21.8713 30.2586 21.8713 27.573C21.8713 27.0601 21.9734 26.5765 22.1192 26.1123L10.9782 14.9712L10.9806 14.9688Z" fill="white"/>
</svg>
