<svg width="59" height="60" viewBox="0 0 59 60" fill="none" xmlns="http://www.w3.org/2000/svg">
<path d="M58.33 20.2793H0V12.988C0 8.96811 3.27134 5.69677 7.29125 5.69677H14.5825V0.835938H19.4433V5.69677H38.8867V0.835938H43.7475V5.69677H51.0388C55.0587 5.69677 58.33 8.96811 58.33 12.988V20.2793ZM56.5242 31.8043C54.1181 29.3982 50.2051 29.3982 47.799 31.8043L29.1626 50.4383V59.1635H37.8878L56.5218 40.5295C57.6859 39.3629 58.33 37.8147 58.33 36.1669C58.33 34.5191 57.6908 32.9685 56.5242 31.8043ZM52.1616 25.1401H0V59.1659H24.3042V48.4259L44.3648 28.3701C46.4428 26.2897 49.2111 25.1401 52.1616 25.1401Z" fill="white"/>
</svg>
