<svg width="59" height="60" viewBox="0 0 59 60" fill="none" xmlns="http://www.w3.org/2000/svg">
<path d="M43.605 44.5649C43.605 52.603 37.0861 59.1399 29.07 59.1399C21.054 59.1399 14.535 52.603 14.535 44.5649C14.535 36.5268 21.054 29.9899 29.07 29.9899C30.4073 29.9899 31.4925 31.0757 31.4925 32.4191C31.4925 33.7624 30.4073 34.8482 29.07 34.8482C23.726 34.8482 19.38 39.2062 19.38 44.5649C19.38 49.9236 23.726 54.2816 29.07 54.2816C34.4141 54.2816 38.76 49.9236 38.76 44.5649C38.76 43.2216 39.8453 42.1357 41.1825 42.1357C42.5198 42.1357 43.605 43.2216 43.605 44.5649ZM44.4868 37.2774C45.7708 37.2774 47.0038 36.7648 47.9123 35.8539L50.2524 33.5073C51.5484 32.2077 50.6303 29.9899 48.7989 29.9899H43.605V24.7818C43.605 22.9453 41.3909 22.0247 40.0973 23.3243L37.7571 25.6708C36.8487 26.5818 36.3375 27.8182 36.3375 29.1057V33.8426L30.3249 39.8717C29.9252 39.7649 29.5037 39.7066 29.07 39.7066C26.3932 39.7066 24.225 41.8807 24.225 44.5649C24.225 47.2491 26.3932 49.4232 29.07 49.4232C31.7469 49.4232 33.915 47.2491 33.915 44.5649C33.915 44.1301 33.8569 43.7074 33.7503 43.3066L39.763 37.2774H44.4868ZM36.6718 19.8894C38.6535 17.9072 41.6041 17.3169 44.1889 18.3906C45.2209 18.8182 46.1051 19.4716 46.7979 20.2829H58.2321L58.2176 17.7785C58.1764 11.1007 52.767 5.70794 46.1051 5.70794H43.6075V3.27878C43.605 1.93788 42.5198 0.849609 41.1825 0.849609C39.8453 0.849609 38.76 1.93788 38.76 3.27878V5.70794H19.38V3.27878C19.38 1.93788 18.2947 0.849609 16.9575 0.849609C15.6203 0.849609 14.535 1.93788 14.535 3.27878V5.70794H12.1125C5.42398 5.70794 0 11.1444 0 17.8538V20.2829H36.2794L36.6718 19.8894ZM9.69001 44.5746C9.69001 33.8596 18.3844 25.1413 29.07 25.1413H0V47.0013C0 53.7058 5.41914 59.1423 12.1052 59.1472H16.2671C12.2361 55.586 9.69001 50.373 9.69001 44.5746ZM58.1401 25.1316H48.7989C51.6017 25.1316 54.1018 26.8077 55.1749 29.4045C56.2481 32.0012 55.6594 34.96 53.6778 36.9446L51.3401 39.2887C50.3856 40.2458 49.2664 40.9794 48.0455 41.4628C48.295 42.9301 48.4525 44.0596 48.4525 44.5746C48.4525 50.373 45.9064 55.586 41.8754 59.1496H47.406C53.4356 59.1423 58.3169 54.233 58.2999 48.1868L58.1401 25.1316Z" fill="white"/>
</svg>
