<svg width="59" height="60" viewBox="0 0 59 60" fill="none" xmlns="http://www.w3.org/2000/svg">
<path d="M4.86083 5.69579H38.8867V0.834961H0V51.8737C0 55.8936 3.27134 59.165 7.29125 59.165H31.5954C35.6153 59.165 38.8867 55.8936 38.8867 51.8737V39.7216H4.86083V5.69579ZM34.0258 44.5825V51.8737C34.0258 53.2153 32.9346 54.3041 31.5954 54.3041H7.29125C5.95209 54.3041 4.86083 53.2153 4.86083 51.8737V44.5825H34.0258ZM21.8738 51.8737H17.0129V47.0129H21.8738V51.8737ZM19.4433 10.5566V34.8608H58.33V10.5566H19.4433ZM25.5194 32.4304C23.507 32.4304 21.8738 30.7971 21.8738 28.7848C21.8738 26.7724 23.507 25.1391 25.5194 25.1391C27.5318 25.1391 29.165 26.7724 29.165 28.7848C29.165 30.7971 27.5318 32.4304 25.5194 32.4304ZM25.5194 20.2783C23.507 20.2783 21.8738 18.6451 21.8738 16.6327C21.8738 14.6203 23.507 12.987 25.5194 12.987C27.5318 12.987 29.165 14.6203 29.165 16.6327C29.165 18.6451 27.5318 20.2783 25.5194 20.2783ZM38.8867 30C34.8595 30 31.5954 26.7359 31.5954 22.7087C31.5954 18.6815 34.8595 15.4175 38.8867 15.4175C42.9139 15.4175 46.1779 18.6815 46.1779 22.7087C46.1779 26.7359 42.9139 30 38.8867 30ZM52.254 32.4304C50.2416 32.4304 48.6083 30.7971 48.6083 28.7848C48.6083 26.7724 50.2416 25.1391 52.254 25.1391C54.2663 25.1391 55.8996 26.7724 55.8996 28.7848C55.8996 30.7971 54.2663 32.4304 52.254 32.4304ZM52.254 20.2783C50.2416 20.2783 48.6083 18.6451 48.6083 16.6327C48.6083 14.6203 50.2416 12.987 52.254 12.987C54.2663 12.987 55.8996 14.6203 55.8996 16.6327C55.8996 18.6451 54.2663 20.2783 52.254 20.2783Z" fill="white"/>
</svg>
