<svg width="59" height="60" viewBox="0 0 59 60" fill="none" xmlns="http://www.w3.org/2000/svg">
<path d="M56.5201 47.6691C54.5173 46.9686 53.6605 46.0389 53.7434 44.6518C53.8287 43.0327 52.7532 41.8468 52.2424 41.3782C52.551 40.3715 53.4527 36.8889 52.2433 33.8639C50.9436 30.6261 46.9756 25.681 42.8813 20.8201C41.2052 18.8239 41.1259 16.654 41.0343 14.1414C40.9465 11.7448 40.8476 9.02837 39.2827 6.00858C37.5813 2.72047 34.1673 0.834961 29.9156 0.834961C27.3863 0.834961 24.7901 1.51006 22.7922 2.687C18.701 5.09843 19.2418 10.356 19.5996 13.835C19.6487 14.3114 19.6948 14.7614 19.7217 15.1456C19.9599 18.5529 19.7432 20.3487 19.4597 20.8945C19.2763 21.2512 18.3734 22.2663 17.4179 23.3411C16.4297 24.4526 15.3094 25.7126 14.391 26.8867C13.2954 28.2994 12.4108 30.4588 11.5554 32.547C10.9296 34.0751 10.3384 35.5184 9.76288 36.3809C8.67213 38.0402 8.94353 39.5874 9.17014 40.3024C8.75722 40.5474 8.16067 41.0298 7.65706 41.9389C7.04842 43.0482 5.81345 43.6443 3.24543 44.066C2.06533 44.2722 1.25157 44.696 0.826107 45.3256C0.206943 46.2418 0.544181 47.3931 0.851859 48.1799C1.30643 49.3366 1.02316 50.0687 0.508128 51.3978C0.389446 51.7046 0.254864 52.0519 0.118492 52.435C-0.0962561 53.0395 -0.0187765 53.5892 0.348243 54.0686C1.31808 55.3349 4.14809 55.7814 7.0614 56.0752C8.80088 56.2515 10.7047 56.8457 12.5461 57.4206C14.3503 57.9836 16.2158 58.566 17.9117 58.7427C18.1694 58.7704 18.4247 58.7844 18.6708 58.7844C21.2312 58.7844 22.388 57.3334 22.7548 56.7373C23.6745 56.577 26.8464 56.0637 30.1155 55.9949C33.3795 55.9153 36.5376 56.4657 37.4322 56.6369C37.7135 57.0966 38.4549 58.1468 39.6368 58.6878C40.2864 58.9911 41.1904 59.165 42.1163 59.165H42.1166C43.1054 59.165 44.9867 58.9653 46.4756 57.6275C47.9607 56.2834 51.6712 54.5676 54.3807 53.3147C54.9853 53.0351 55.5509 52.7735 56.047 52.5373C57.569 51.8167 58.3996 50.787 58.3254 49.7124C58.2636 48.8198 57.5719 48.0369 56.5201 47.6691ZM22.8255 47.4103C22.6361 46.2705 20.9192 45.14 18.931 43.8312C17.3053 42.7607 15.4625 41.5477 14.9549 40.5203C13.9058 38.4009 14.7328 34.6742 16.1746 32.7553C16.8872 31.7944 17.4692 30.3373 18.0321 28.9282C18.6399 27.4067 19.2684 25.8335 19.9713 25.1448C21.0845 24.0696 22.1132 21.9775 22.2955 20.3288C23.3379 21.1787 24.9549 22.2571 26.4487 22.2571C26.6787 22.2571 26.9019 22.2315 27.1153 22.1801C28.1374 21.928 29.6406 21.1861 31.0943 20.469C32.3477 19.8505 33.8932 19.0878 34.4748 19.0184C35.4719 20.2412 41.2661 31.1922 41.8582 34.709C42.3266 37.4917 41.8317 39.792 41.5829 40.693C41.3828 40.6696 41.144 40.6507 40.8932 40.6507C39.2794 40.6507 38.8521 41.4031 38.7408 41.8523C38.4547 43.0195 38.4244 46.7517 38.4213 47.5903C37.8377 48.2235 34.8866 51.2054 30.6496 51.7415C28.9238 51.9557 27.3122 52.0643 25.8598 52.0643C24.6183 52.0643 23.8261 51.9825 23.4971 51.9398L21.368 49.8593C22.2075 49.5053 23.0468 48.7583 22.8255 47.4103ZM25.5272 13.1033C25.4607 13.1278 25.3954 13.154 25.3311 13.1819C25.3246 13.0587 25.3096 12.9338 25.2865 12.8086C25.0541 11.6659 24.1669 10.8364 23.1773 10.8364C23.1041 10.8364 23.0304 10.8412 22.9496 10.8517C22.3609 10.9355 21.8992 11.3132 21.6461 11.8487C21.868 10.6737 22.6475 9.80369 23.5723 9.80369C24.6584 9.80369 25.5758 11.0537 25.5758 12.5332C25.5758 12.7196 25.5599 12.9051 25.5272 13.1033ZM33.9662 13.9844C34.0657 13.7139 34.1194 13.4213 34.1194 13.1176C34.1194 11.7762 33.1229 10.7253 31.8508 10.7253C30.6075 10.7253 29.596 11.7984 29.596 13.1176C29.596 13.2075 29.6012 13.2976 29.611 13.3875C29.5452 13.3659 29.4809 13.3448 29.4182 13.3245C29.2751 12.9545 29.2028 12.5684 29.2028 12.1742C29.2028 10.5702 30.4031 9.26514 31.8788 9.26514C33.3542 9.26514 34.5547 10.5702 34.5547 12.1742C34.5547 12.8415 34.3391 13.4783 33.9662 13.9844ZM32.8782 17.1063C32.8569 17.1874 32.8117 17.2233 32.3114 17.4455C32.0588 17.5578 31.7444 17.6976 31.351 17.9022L31.0881 18.0382C30.0316 18.5852 27.5578 19.8663 26.8863 19.9415C26.4301 19.9939 26.148 19.8428 25.5136 19.4747C25.3705 19.3915 25.2182 19.3031 25.0559 19.2142C23.9123 18.5733 23.1767 17.8674 23.0936 17.5915C23.4664 17.3453 24.3906 16.7293 24.8637 16.3646C25.8242 15.6019 26.7907 15.0894 27.269 15.0894C27.2943 15.0894 27.3171 15.0909 27.3408 15.0947C27.9029 15.1795 29.2893 15.652 30.3019 15.997C30.7699 16.1565 31.1741 16.2942 31.4585 16.3814C32.3544 16.6442 32.8215 16.9804 32.8782 17.1063ZM40.9277 52.749C41.4331 50.8019 42.0154 48.1531 41.9211 46.5916C41.8994 46.2368 41.8626 45.8507 41.827 45.4774C41.7605 44.7794 41.6618 43.7418 41.7637 43.4341C41.7838 43.4261 41.8062 43.4192 41.8311 43.4133C41.8353 44.306 42.0624 46.0867 43.7298 46.7077C44.2266 46.8928 44.7945 46.9865 45.4175 46.9865C47.0878 46.9865 48.941 46.2868 49.7001 45.6384C50.1471 45.2567 50.5231 44.7897 50.7864 44.4198C50.844 44.5638 50.8793 44.752 50.8608 44.9945C50.7616 46.3112 51.5108 48.0581 52.9368 48.7018L53.1444 48.795C53.6523 49.0226 55.0012 49.6275 55.0229 49.9143C55.0229 49.9143 55.0115 49.9482 54.9363 50.0079C54.5984 50.2716 53.4091 50.7902 52.259 51.2919C50.2188 52.1816 47.9062 53.19 46.8677 54.1229C45.4054 55.4372 43.7515 56.32 42.7527 56.32C42.6325 56.32 42.523 56.307 42.4256 56.2806C41.3409 55.9918 40.4481 54.6552 40.9277 52.749ZM3.95462 47.7817C3.844 47.3396 3.75666 46.9906 3.85049 46.6524C3.91856 46.4019 5.36671 46.1334 5.9852 46.0188C6.85472 45.8576 7.75402 45.691 8.34205 45.3862C9.13723 44.9748 9.56784 44.2161 9.94762 43.5468C10.2226 43.0627 10.5065 42.5622 10.8445 42.3979C10.8635 42.3884 10.8926 42.3773 10.9481 42.3773C11.5812 42.3773 12.9095 43.5139 13.6749 44.5311C13.8691 44.7876 14.2287 45.3015 14.6448 45.8964C15.8891 47.6746 17.593 50.1102 18.4829 50.9264C19.2848 51.6602 20.5829 53.0711 20.2636 54.2811C20.0298 55.2199 18.7852 55.9834 18.4916 56.1522C18.385 56.1729 18.2531 56.1834 18.098 56.1834C16.3948 56.1834 13.0233 54.9732 11.2119 54.323L10.9439 54.2268C9.9324 53.8645 8.28115 53.6364 6.68431 53.4157C5.41374 53.2399 3.67381 52.9995 3.38539 52.7823C3.15161 52.5583 3.42279 51.8302 3.66194 51.1879C3.83414 50.7262 4.01194 50.2488 4.10935 49.7491C4.24752 48.952 4.08494 48.3031 3.95462 47.7817Z" fill="white"/>
</svg>
