<svg width="59" height="60" viewBox="0 0 59 60" fill="none" xmlns="http://www.w3.org/2000/svg">
<path d="M24.8042 54.3051V51.8747C24.8042 47.8548 21.5328 44.5834 17.5129 44.5834H16.6064C18.2177 41.5381 19.9433 37.8658 19.9433 36.077C19.9433 32.7206 17.2237 30.1225 13.8673 30.1225C10.5109 30.1225 7.79125 32.7206 7.79125 36.077C7.79125 37.8658 9.51685 41.5381 11.1282 44.5834H10.2217C6.20176 44.5834 2.93042 47.8548 2.93042 51.8747V54.3051C1.5864 54.3051 0.5 55.3915 0.5 56.7355C0.5 58.0795 1.5864 59.1659 2.93042 59.1659H24.8042C26.1482 59.1659 27.2346 58.0795 27.2346 56.7355C27.2346 55.3915 26.1482 54.3051 24.8042 54.3051ZM19.9433 54.3051H7.79125V51.8747C7.79125 50.5331 8.88008 49.4443 10.2217 49.4443H17.5129C18.8545 49.4443 19.9433 50.5331 19.9433 51.8747V54.3051ZM39.3867 27.5705H29.665C28.321 27.5705 27.2346 26.4841 27.2346 25.1401C27.2346 23.7961 28.321 22.7097 29.665 22.7097H39.3867C40.7307 22.7097 41.8171 23.7961 41.8171 25.1401C41.8171 26.4841 40.7307 27.5705 39.3867 27.5705ZM58.83 12.988V47.0139C58.83 53.7145 53.3786 59.1659 46.6779 59.1659H34.5258C33.1818 59.1659 32.0954 58.0795 32.0954 56.7355C32.0954 55.3915 33.1818 54.3051 34.5258 54.3051H46.6779C50.6978 54.3051 53.9692 51.0338 53.9692 47.0139V12.988C53.9692 8.96811 50.6978 5.69677 46.6779 5.69677H27.2346C23.2147 5.69677 19.9433 8.96811 19.9433 12.988V22.8336C19.9433 24.1777 18.8569 25.2641 17.5129 25.2641C16.1689 25.2641 15.0825 24.1777 15.0825 22.8336V12.988C15.0825 6.28736 20.5339 0.835938 27.2346 0.835938H46.6779C53.3786 0.835938 58.83 6.28736 58.83 12.988ZM32.0954 40.9378C32.0954 45.6285 35.9112 49.4443 40.6019 49.4443C45.2926 49.4443 49.1083 45.6285 49.1083 40.9378C49.1083 36.2471 45.2926 32.4314 40.6019 32.4314C35.9112 32.4314 32.0954 36.2471 32.0954 40.9378ZM44.2475 40.9378C44.2475 42.9478 42.6118 44.5834 40.6019 44.5834C38.5919 44.5834 36.9563 42.9478 36.9563 40.9378C36.9563 38.9279 38.5919 37.2922 40.6019 37.2922C42.6118 37.2922 44.2475 38.9279 44.2475 40.9378ZM46.6779 15.4184C46.6779 16.7625 45.5915 17.8489 44.2475 17.8489H29.665C28.321 17.8489 27.2346 16.7625 27.2346 15.4184C27.2346 14.0744 28.321 12.988 29.665 12.988H44.2475C45.5915 12.988 46.6779 14.0744 46.6779 15.4184Z" fill="white"/>
</svg>
