<svg width="59" height="60" viewBox="0 0 59 60" fill="none" xmlns="http://www.w3.org/2000/svg">
<path d="M58.33 47.0129V9.34142C58.33 7.08537 57.4338 4.92172 55.8385 3.32644C54.2432 1.73117 52.0796 0.834961 49.8235 0.834961H8.50646C6.25041 0.834961 4.08675 1.73117 2.49148 3.32644C0.896213 4.92172 0 7.08537 0 9.34142L0 47.0129H25.5194V51.8737H14.5825V59.165H43.7475V51.8737H32.8106V47.0129H58.33ZM7.29125 9.34142C7.29125 9.01913 7.41928 8.71003 7.64718 8.48214C7.87507 8.25424 8.18417 8.12621 8.50646 8.12621H49.8235C50.1458 8.12621 50.4549 8.25424 50.6828 8.48214C50.9107 8.71003 51.0388 9.01913 51.0388 9.34142V39.7216H7.29125V9.34142ZM35.7271 20.2783H46.1779V27.5695H39.6158L32.3513 38.4651L25.06 23.8826L22.6029 27.5695H12.1521V20.2783H18.7142L25.9787 9.38274L33.27 23.9652L35.7271 20.2783Z" fill="white"/>
</svg>
