<svg width="59" height="60" viewBox="0 0 59 60" fill="none" xmlns="http://www.w3.org/2000/svg">
<path d="M38.8861 42.2521V27.6696H58.169C57.8117 23.3945 56.5722 19.2287 54.4237 15.5151C47.2831 3.17097 31.709 -2.75681 17.4644 3.37513C9.06727 6.98916 2.74819 14.5332 0.743098 23.4552C-1.45886 33.2571 1.31668 43.093 7.95657 50.1193C9.04783 51.2738 10.2339 52.297 11.4661 53.2449L27.2444 37.4666C29.1449 35.566 32.2267 35.5684 34.1249 37.4714L38.8909 42.2521H38.8861ZM17.1824 34.2779L26.734 28.4376V15.5199H31.5948V31.1645L19.7174 38.429L17.1824 34.2803V34.2779ZM58.3294 37.3912V47.1129H53.4686V40.7841L38.5823 55.668L30.6834 47.7691L19.3868 59.0657L15.9502 55.6291L30.6858 40.8959L38.5847 48.7948L49.9906 37.3912H43.7493V32.5304H53.471C56.1517 32.5304 58.3294 34.7105 58.3294 37.3912Z" fill="white"/>
</svg>
