<svg width="68" height="62" viewBox="0 0 68 62" fill="none" xmlns="http://www.w3.org/2000/svg">
<path d="M65.1667 31H48.1667C46.5998 31 45.3333 29.8452 45.3333 28.4167C45.3333 26.9881 46.5998 25.8333 48.1667 25.8333H65.1667C66.7335 25.8333 68 26.9881 68 28.4167C68 29.8452 66.7335 31 65.1667 31ZM62.3333 41.3333C62.3333 39.9047 61.0668 38.75 59.5 38.75H48.1667C46.5998 38.75 45.3333 39.9047 45.3333 41.3333C45.3333 42.7619 46.5998 43.9167 48.1667 43.9167H59.5C61.0668 43.9167 62.3333 42.7619 62.3333 41.3333ZM56.6667 54.25C56.6667 52.8214 55.4002 51.6667 53.8333 51.6667H48.1667C46.5998 51.6667 45.3333 52.8214 45.3333 54.25C45.3333 55.6786 46.5998 56.8333 48.1667 56.8333H53.8333C55.4002 56.8333 56.6667 55.6786 56.6667 54.25ZM44.3587 61.1423C42.7777 61.6926 41.0663 62 39.2728 62H23.0435C15.708 62 9.64467 56.9806 8.942 50.3207L5.27 15.5H2.83333C1.26933 15.5 0 14.3452 0 12.9167C0 11.4881 1.26933 10.3333 2.83333 10.3333H14.4528C15.7703 4.44592 21.4937 0 28.3333 0H34C40.8397 0 46.563 4.44592 47.8805 10.3333H59.5C61.0668 10.3333 62.3333 11.4881 62.3333 12.9167C62.3333 14.3452 61.0668 15.5 59.5 15.5H56.9897L56.4513 20.6667H48.1638C43.4775 20.6667 39.6638 24.1438 39.6638 28.4167C39.6638 31.1137 41.1853 33.4852 43.4832 34.875C41.1853 36.2648 39.6638 38.6363 39.6638 41.3333C39.6638 44.0303 41.1853 46.4018 43.4832 47.7917C41.1853 49.1815 39.6638 51.553 39.6638 54.25C39.6638 57.2699 41.5848 59.8636 44.3558 61.1423H44.3587ZM41.9787 10.3333C40.8057 7.33408 37.689 5.16667 34 5.16667H28.3333C24.6443 5.16667 21.5277 7.33408 20.3547 10.3333H41.9758H41.9787Z" fill="black"/>
</svg>
