<svg width="16" height="54" viewBox="0 0 16 54" fill="none" xmlns="http://www.w3.org/2000/svg">
<path d="M8.25676 11.722C12.4296 11.722 15.8123 9.15697 15.8123 5.99284C15.8123 2.82871 12.4296 0.263672 8.25676 0.263672C4.08392 0.263672 0.701172 2.82871 0.701172 5.99284C0.701172 9.15697 4.08392 11.722 8.25676 11.722Z" fill="black"/>
<path d="M8.25676 32.7279C12.4296 32.7279 15.8123 30.1628 15.8123 26.9987C15.8123 23.8346 12.4296 21.2695 8.25676 21.2695C4.08392 21.2695 0.701172 23.8346 0.701172 26.9987C0.701172 30.1628 4.08392 32.7279 8.25676 32.7279Z" fill="black"/>
<path d="M8.25676 53.7357C12.4296 53.7357 15.8123 51.1706 15.8123 48.0065C15.8123 44.8424 12.4296 42.2773 8.25676 42.2773C4.08392 42.2773 0.701172 44.8424 0.701172 48.0065C0.701172 51.1706 4.08392 53.7357 8.25676 53.7357Z" fill="black"/>
</svg>
