<svg width="81" height="62" viewBox="0 0 81 62" fill="none" xmlns="http://www.w3.org/2000/svg">
<path d="M0 15C0 6.71574 6.71573 0 15 0H65.5929C73.8772 0 80.5929 6.71573 80.5929 15V61.1111H0V15Z" fill="black"/>
<path d="M32.0061 48.863C31.3996 49.3291 30.5555 49.3291 29.949 48.863V48.863C29.0696 48.1873 29.0696 46.8617 29.949 46.1859L48.9015 31.6222C49.2699 31.3361 49.4736 30.9597 49.4736 30.5562C49.4736 30.1527 49.2699 29.7763 48.9015 29.4902L29.949 14.9265C29.0696 14.2507 29.0696 12.9251 29.949 12.2494V12.2494C30.5555 11.7833 31.3996 11.7833 32.0061 12.2494L51.672 27.3613C52.781 28.2135 53.3923 29.3487 53.3923 30.5562C53.3923 31.7637 52.781 32.8959 51.672 33.7511L32.0061 48.863Z" fill="white"/>
</svg>
