<svg width="81" height="62" viewBox="0 0 81 62" fill="none" xmlns="http://www.w3.org/2000/svg">
<path d="M0 15C0 6.71574 6.71573 0 15 0H65.5929C73.8772 0 80.5929 6.71573 80.5929 15V61.1111H0V15Z" fill="black"/>
<path d="M49.5933 12.2502C50.1998 11.7842 51.0439 11.7842 51.6504 12.2502V12.2502C52.5298 12.926 52.5298 14.2516 51.6504 14.9273L32.6978 29.4911C32.3295 29.7772 32.1257 30.1536 32.1257 30.5571C32.1257 30.9606 32.3295 31.337 32.6978 31.623L51.6504 46.1868C52.5298 46.8625 52.5298 48.1882 51.6504 48.8639V48.8639C51.0439 49.33 50.1998 49.33 49.5933 48.8639L29.9273 33.752C28.8184 32.8998 28.207 31.7646 28.207 30.5571C28.207 29.3496 28.8184 28.2173 29.9273 27.3622L49.5933 12.2502Z" fill="white"/>
</svg>
