<svg width="60" height="31" viewBox="0 0 60 31" fill="none" xmlns="http://www.w3.org/2000/svg">
<path d="M55.4638 0.5L4.53616 0.5C3.63525 0.503281 2.7557 0.738409 2.00871 1.17566C1.26173 1.61291 0.680851 2.23264 0.339546 2.95649C-0.00175858 3.68034 -0.0881691 4.4758 0.0912399 5.24228C0.270649 6.00877 0.707821 6.71185 1.34748 7.26264L26.7658 29.3302C27.1892 29.7009 27.6931 29.9951 28.2482 30.1959C28.8033 30.3966 29.3987 30.5 30 30.5C30.6013 30.5 31.1967 30.3966 31.7518 30.1959C32.3069 29.9951 32.8108 29.7009 33.2342 29.3302L58.6525 7.26264C59.2922 6.71185 59.7293 6.00877 59.9088 5.24228C60.0882 4.4758 60.0018 3.68034 59.6605 2.95649C59.3191 2.23264 58.7383 1.61291 57.9913 1.17566C57.2443 0.738409 56.3648 0.503281 55.4638 0.5Z" fill="black"/>
</svg>
