<svg width="70" height="70" viewBox="0 0 70 70" fill="none" xmlns="http://www.w3.org/2000/svg">
<path d="M31.9771 0C40.3399 0 47.1603 6.965 47.1603 15.54V32.305L26.5962 32.305C25.1224 32.305 23.9571 33.495 23.9571 35C23.9571 36.47 25.1224 37.695 26.5962 37.695L47.1603 37.695V54.425C47.1603 63 40.3399 70 31.9086 70L15.2174 70C6.82042 70 0 63.035 0 54.46L0 15.575C0 6.965 6.85469 0 15.2517 0L31.9771 0ZM55.7172 22.9257C56.7277 21.8407 58.3784 21.8407 59.3889 22.8907L69.2252 33.0757C69.7305 33.6007 70 34.2657 70 35.0007C70 35.7007 69.7305 36.4007 69.2252 36.8907L59.3889 47.0757C58.8836 47.6007 58.2099 47.8807 57.5699 47.8807C56.8962 47.8807 56.2225 47.6007 55.7172 47.0757C54.7066 46.0257 54.7066 44.3107 55.7172 43.2607L61.1069 37.6957H47.161L47.161 32.3057H61.1069L55.7172 26.7407C54.7066 25.6907 54.7066 23.9757 55.7172 22.9257Z" fill="white"/>
</svg>
