<svg width="74" height="84" viewBox="0 0 74 84" fill="none" xmlns="http://www.w3.org/2000/svg">
<path d="M10.2488 63H63.7482C65.3947 63 67.017 62.5939 68.4778 61.8159C69.9386 61.0379 71.195 59.9109 72.1407 58.5304C73.0863 57.1498 73.6934 55.5563 73.9105 53.8846C74.1276 52.2129 73.9484 50.5122 73.388 48.9265L63.6422 21.329C61.9778 15.196 58.3978 9.79016 53.4498 5.93834C48.5018 2.08652 42.4582 0.000742274 36.2433 3.56059e-09C29.7736 -0.000103573 23.4974 2.25956 18.4508 6.4059C13.4041 10.5522 9.88894 16.3373 8.48554 22.806L0.455168 49.406C-0.0176335 50.9765 -0.123924 52.6386 0.144849 54.2588C0.413623 55.879 1.04995 57.412 2.00264 58.7344C2.95533 60.0568 4.19778 61.1316 5.63001 61.8725C7.06225 62.6134 8.64427 62.9996 10.2488 63Z" fill="black"/>
<path d="M20 70C20.7963 73.9511 22.9238 77.5033 26.022 80.0547C29.1202 82.6062 32.9986 84 37 84C41.0014 84 44.8798 82.6062 47.978 80.0547C51.0762 77.5033 53.2037 73.9511 54 70H20Z" fill="black"/>
</svg>
