<svg width="1203" height="1923" viewBox="0 0 1203 1923" fill="none" xmlns="http://www.w3.org/2000/svg">
<g clip-path="url(#clip0_480_787)">
<path d="M1202.5 1470.45H0.5V1471.41H1202.5V1470.45Z" fill="#EBEBEB"/>
<path d="M759.371 1496.62H698.165V1497.58H759.371V1496.62Z" fill="#EBEBEB"/>
<path d="M1095.38 1517.42H950.345V1518.38H1095.38V1517.42Z" fill="#EBEBEB"/>
<path d="M685.135 1497.08H535.294V1498.05H685.135V1497.08Z" fill="#EBEBEB"/>
<path d="M438.125 1525.84H406.776V1526.8H438.125V1525.84Z" fill="#EBEBEB"/>
<path d="M611.333 1525.84H468.583V1526.8H611.333V1525.84Z" fill="#EBEBEB"/>
<path d="M219.048 1509.62H126.614V1510.58H219.048V1509.62Z" fill="#EBEBEB"/>
<path d="M570.248 1299H106.059C102.423 1298.99 98.9375 1296.68 96.3684 1292.56C93.7994 1288.45 92.3564 1282.87 92.3564 1277.05V233.677C92.3881 227.896 93.845 222.368 96.4107 218.294C98.9763 214.22 102.444 211.93 106.059 211.92H570.248C573.888 211.92 577.38 214.233 579.954 218.349C582.528 222.465 583.975 228.048 583.975 233.869V1277.05C583.975 1282.88 582.528 1288.46 579.954 1292.57C577.38 1296.69 573.888 1299 570.248 1299ZM106.059 212.689C102.582 212.699 99.2498 214.915 96.7934 218.85C94.337 222.785 92.9574 228.117 92.9574 233.677V1277.05C92.9574 1282.61 94.337 1287.95 96.7934 1291.88C99.2498 1295.82 102.582 1298.03 106.059 1298.04H570.248C573.727 1298.03 577.062 1295.82 579.522 1291.88C581.982 1287.95 583.367 1282.62 583.374 1277.05V233.677C583.367 228.114 581.982 222.781 579.522 218.847C577.062 214.913 573.727 212.699 570.248 212.689H106.059Z" fill="#EBEBEB"/>
<path d="M1090.26 1299H626.045C622.407 1298.99 618.919 1296.68 616.346 1292.56C613.773 1288.45 612.325 1282.87 612.318 1277.05V233.677C612.356 227.892 613.819 222.364 616.388 218.292C618.958 214.219 622.427 211.93 626.045 211.92H1090.26C1093.87 211.94 1097.33 214.235 1099.89 218.308C1102.45 222.38 1103.9 227.902 1103.94 233.677V1277.05C1103.94 1282.86 1102.5 1288.43 1099.93 1292.55C1097.37 1296.66 1093.89 1298.98 1090.26 1299ZM626.045 212.689C622.566 212.699 619.231 214.913 616.771 218.847C614.311 222.781 612.926 228.114 612.919 233.677V1277.05C612.926 1282.62 614.311 1287.95 616.771 1291.88C619.231 1295.82 622.566 1298.03 626.045 1298.04H1090.26C1093.74 1298.03 1097.07 1295.82 1099.53 1291.88C1101.99 1287.95 1103.38 1282.62 1103.38 1277.05V233.677C1103.38 228.114 1101.99 222.781 1099.53 218.847C1097.07 214.913 1093.74 212.699 1090.26 212.689H626.045Z" fill="#EBEBEB"/>
<path d="M471.588 1137.06H311.963L302.274 958.309H461.9L471.588 1137.06Z" fill="#E6E6E6"/>
<path d="M479.858 1137.06H320.232L310.544 958.309H470.17L479.858 1137.06Z" fill="#F0F0F0"/>
<path d="M342.061 1098.65L336.724 996.673H448.341L453.678 1098.65H342.061Z" fill="white"/>
<path d="M507.479 1137.06H488.752V1470.45H507.479V1137.06Z" fill="#E6E6E6"/>
<path d="M513.393 1137.06H500.388V1470.45H513.393V1137.06Z" fill="#F0F0F0"/>
<path d="M332.108 1173.84H513.394V1137.06H332.108V1173.84Z" fill="#F0F0F0"/>
<path d="M338.503 1173.84H319.775V1470.45H338.503V1173.84Z" fill="#E6E6E6"/>
<path d="M344.416 1173.84H331.41V1470.45H344.416V1173.84Z" fill="#F0F0F0"/>
<path d="M205.201 1173.84H186.474V1470.45H205.201V1173.84Z" fill="#E6E6E6"/>
<path d="M211.114 1173.84H198.108V1470.45H211.114V1173.84Z" fill="#F0F0F0"/>
<path d="M388.962 1173.84H370.235V1470.45H388.962V1173.84Z" fill="#E6E6E6"/>
<path d="M394.852 1173.84H381.847V1470.45H394.852V1173.84Z" fill="#F0F0F0"/>
<path d="M332.108 1137.06H186.474V1173.84H332.108V1137.06Z" fill="#E6E6E6"/>
<path d="M875.171 305.752H311.842V807.24H875.171V305.752Z" fill="#E0E0E0"/>
<path d="M906.111 305.752H314.679V807.24H906.111V305.752Z" fill="#F5F5F5"/>
<path d="M896.446 791.787V321.205L324.342 321.205V791.787H896.446Z" fill="white"/>
<path d="M555.992 791.787L664.004 321.205H485.747L377.735 791.787H555.992Z" fill="#F5F5F5"/>
<path d="M727.566 791.787L835.577 321.205H701.098L593.086 791.787H727.566Z" fill="#F5F5F5"/>
<path d="M1053.72 991.483H1005.83V1470.45H1053.72V991.483Z" fill="#E6E6E6"/>
<path d="M1041.12 1470.45H1053.72V1433.58H1027.92L1041.12 1470.45Z" fill="#FAFAFA"/>
<path d="M612.198 991.483H564.311V1470.45H612.198V991.483Z" fill="#E6E6E6"/>
<path d="M1053.72 991.483H601.212V1460.49H1053.72V991.483Z" fill="#FAFAFA"/>
<path d="M1045.16 1142.82H609.794V1010.36H1045.16V1142.82ZM612.198 1138.98H1042.75V1014.2H612.198V1138.98Z" fill="#E6E6E6"/>
<path d="M968.519 1074.67H694.872C682.179 1074.67 669.942 1058.29 661.216 1029.69L660.398 1026.96H1002.97L1002.15 1029.69C993.352 1058.29 981.332 1074.67 968.519 1074.67ZM664.341 1030.69C672.467 1056.18 683.573 1070.71 694.872 1070.71H968.519C979.866 1070.71 990.924 1056.18 999.05 1030.69H664.341Z" fill="#E6E6E6"/>
<path d="M613.809 1470.45H601.212V1433.58H627.007L613.809 1470.45Z" fill="#FAFAFA"/>
<path d="M1045.16 1292.08H609.794V1159.77H1045.16V1292.08ZM612.198 1288.24H1042.75V1163.62H612.198V1288.24Z" fill="#E6E6E6"/>
<path d="M968.519 1224.08H694.872C682.179 1224.08 669.942 1207.67 661.216 1179.11L660.398 1176.34H1002.97L1002.15 1179.11C993.352 1207.52 981.332 1224.08 968.519 1224.08ZM664.341 1180.19C672.467 1205.67 683.573 1220.24 694.872 1220.24H968.519C979.866 1220.24 990.924 1205.67 999.05 1180.19H664.341Z" fill="#E6E6E6"/>
<path d="M1045.16 1441.62H609.794V1309.15H1045.16V1441.62ZM612.198 1437.77H1042.75V1313H612.198V1437.77Z" fill="#E6E6E6"/>
<path d="M968.519 1373.46H694.872C682.179 1373.46 669.942 1357.09 661.216 1328.53L660.398 1325.76H1002.97L1002.15 1328.53C993.352 1357.09 981.332 1373.46 968.519 1373.46ZM664.341 1329.6C672.467 1355.09 683.573 1369.62 694.872 1369.62H968.519C979.866 1369.62 990.924 1355.09 999.05 1329.6H664.341Z" fill="#E6E6E6"/>
<path d="M291.336 1054.83V1064.13H287.634L284.557 1137.06H239.266L236.213 1064.13H232.486V1054.83H291.336Z" fill="#E6E6E6"/>
<path d="M276.431 873.895C272.729 830.458 236.068 818.08 189.551 816.466C145.293 814.967 131.109 789.942 131.109 789.942C131.109 789.942 131.254 891.309 195.032 928.057C255.588 962.884 280.157 917.409 276.431 873.895Z" fill="#E6E6E6"/>
<path d="M253.833 972.34C254.603 954.504 272.44 921.676 315.352 936.591C346.363 947.393 357.902 921.676 357.902 921.676C357.902 921.676 355.018 994.251 308.38 1016.05C264.074 1036.77 252.463 1003.78 253.833 972.34Z" fill="#E6E6E6"/>
<path d="M263.618 1082.2C263.859 1082.21 264.099 1082.12 264.319 1081.97C264.539 1081.81 264.734 1081.57 264.892 1081.28C267.993 1075.4 265.445 1061.33 261.935 1041.84C257.415 1016.85 251.79 985.717 256.55 963.153C259.188 951.234 262.271 939.579 265.781 928.249C272.513 905.493 278.33 885.965 273.474 865.285C273.398 864.956 273.283 864.654 273.133 864.397C272.984 864.14 272.805 863.933 272.605 863.787C272.406 863.642 272.19 863.561 271.971 863.55C271.752 863.539 271.533 863.597 271.329 863.722C271.124 863.846 270.936 864.034 270.777 864.275C270.618 864.516 270.49 864.806 270.401 865.126C270.312 865.447 270.264 865.792 270.259 866.143C270.254 866.493 270.293 866.842 270.373 867.168C274.724 885.581 269.459 903.417 262.776 926.02C259.221 937.531 256.091 949.365 253.401 961.462C248.328 985.602 254.098 1017.62 258.738 1043.3C261.478 1058.68 264.315 1074.05 262.368 1077.9C262.213 1078.16 262.095 1078.48 262.02 1078.82C261.946 1079.16 261.916 1079.52 261.935 1079.89C261.953 1080.25 262.018 1080.6 262.125 1080.92C262.233 1081.24 262.381 1081.52 262.56 1081.74C262.867 1082.09 263.242 1082.25 263.618 1082.2Z" fill="#E6E6E6"/>
<path d="M601.5 1644.04C858.926 1644.04 1067.61 1624.56 1067.61 1600.53C1067.61 1576.49 858.926 1557.01 601.5 1557.01C344.074 1557.01 135.389 1576.49 135.389 1600.53C135.389 1624.56 344.074 1644.04 601.5 1644.04Z" fill="#F5F5F5"/>
<path d="M601.404 1388.38H260.036L241.356 510.522H582.724L601.404 1388.38Z" fill="#8FF0F6"/>
<path d="M618.448 1361.12H277.08L258.377 483.268H599.745L618.448 1361.12Z" fill="#8FF0F6"/>
<path opacity="0.3" d="M618.448 1361.12H277.08L258.377 483.268H599.745L618.448 1361.12Z" fill="white"/>
<path d="M504.072 844.504C540.623 785.051 539.068 687.834 500.599 627.366C462.13 566.897 401.314 566.073 364.763 625.526C328.212 684.98 329.767 782.196 368.236 842.664C406.706 903.133 467.521 903.957 504.072 844.504Z" fill="#8FF0F6"/>
<path d="M513.681 735.05C514.173 755.968 511.318 776.74 505.388 795.401C498.986 815.511 489.208 832.371 477.148 844.091C465.089 855.81 451.225 861.924 437.114 861.748C422.671 861.624 408.502 855.428 396.029 843.783C383.557 832.137 373.218 815.452 366.052 795.401C359.369 777.027 355.636 756.293 355.186 735.05C354.742 718.579 356.398 702.135 360.051 686.719C363.705 671.302 369.281 657.234 376.44 645.37C383.599 633.505 392.192 624.092 401.696 617.702C411.201 611.312 421.419 608.079 431.729 608.198C452.969 608.438 473.335 621.753 488.596 645.375C503.857 668.998 512.841 701.113 513.681 735.05Z" fill="white"/>
<path opacity="0.6" d="M505.34 795.401C498.939 815.511 489.16 832.371 477.1 844.091C465.041 855.81 451.178 861.924 437.066 861.748C422.623 861.624 408.454 855.428 395.982 843.783C383.509 832.137 373.171 815.452 366.004 795.401C386.335 773.237 410.392 761.455 434.999 761.612C460.002 761.698 484.446 773.441 505.34 795.401Z" fill="#8FF0F6"/>
<path opacity="0.6" d="M459.115 731.889C472.555 710.027 471.984 674.28 457.838 652.045C443.693 629.81 421.33 629.508 407.89 651.369C394.45 673.231 395.022 708.978 409.167 731.213C423.313 753.448 445.675 753.751 459.115 731.889Z" fill="#8FF0F6"/>
<path d="M549.861 1043.22H332.107L330.641 974.031H548.395L549.861 1043.22Z" fill="white"/>
<path d="M552.507 1166.88H334.728L333.262 1097.69H551.04L552.507 1166.88Z" fill="white"/>
<path d="M468.463 1107.23L415.983 1118.76C415.483 1118.85 414.999 1119.11 414.563 1119.51C414.127 1119.91 413.749 1120.46 413.451 1121.11C413.153 1121.76 412.942 1122.5 412.832 1123.29C412.721 1124.07 412.714 1124.89 412.81 1125.68L419.71 1181.91C419.935 1183.57 420.539 1185.02 421.402 1186C422.265 1186.97 423.325 1187.39 424.373 1187.18L476.853 1175.65C477.352 1175.55 477.834 1175.28 478.267 1174.87C478.7 1174.46 479.076 1173.91 479.371 1173.26C479.666 1172.61 479.875 1171.87 479.983 1171.08C480.092 1170.3 480.098 1169.48 480.002 1168.69L473.127 1112.45C472.901 1110.81 472.296 1109.35 471.432 1108.39C470.568 1107.42 469.509 1107 468.463 1107.23ZM453.39 1164.19L443.774 1166.23L442.836 1148.09C441.845 1147.4 440.972 1146.35 440.29 1145.01C439.608 1143.67 439.137 1142.09 438.918 1140.4C438.741 1139.09 438.738 1137.74 438.909 1136.43C439.08 1135.11 439.422 1133.88 439.911 1132.79C440.401 1131.7 441.027 1130.79 441.751 1130.12C442.474 1129.44 443.278 1129.02 444.11 1128.87C445.818 1128.52 447.546 1129.2 448.952 1130.79C450.359 1132.38 451.342 1134.75 451.707 1137.44C451.915 1139.06 451.852 1140.75 451.522 1142.32C451.193 1143.89 450.61 1145.3 449.832 1146.4L453.39 1164.19Z" fill="#8FF0F6"/>
<path d="M463.27 1104.19C462.342 1104.38 461.403 1104.01 460.638 1103.15C459.873 1102.28 459.337 1101 459.135 1099.54L458.462 1094.04C457.501 1086.54 454.871 1079.85 451.061 1075.21C447.25 1070.58 442.517 1068.31 437.739 1068.82C435.328 1069.04 432.975 1070.09 430.84 1071.89C428.704 1073.7 426.836 1076.21 425.363 1079.27C423.89 1082.33 422.846 1085.86 422.302 1089.63C421.757 1093.39 421.726 1097.29 422.209 1101.08L422.979 1107.42C423.068 1108.12 423.065 1108.85 422.969 1109.55C422.874 1110.25 422.687 1110.91 422.422 1111.49C422.158 1112.07 421.82 1112.55 421.432 1112.91C421.043 1113.27 420.612 1113.49 420.166 1113.57C419.236 1113.78 418.292 1113.41 417.525 1112.55C416.757 1111.68 416.223 1110.39 416.031 1108.92L415.382 1103.57C414.722 1098.58 414.7 1093.43 415.318 1088.42C415.935 1083.41 417.18 1078.65 418.976 1074.43C420.773 1070.22 423.084 1066.62 425.771 1063.87C428.459 1061.11 431.466 1059.26 434.614 1058.41C441.439 1056.57 448.443 1059.01 454.172 1065.22C459.902 1071.43 463.917 1080.92 465.385 1091.73L466.154 1098.04C466.244 1098.75 466.239 1099.48 466.139 1100.19C466.039 1100.9 465.846 1101.57 465.574 1102.15C465.301 1102.73 464.955 1103.21 464.558 1103.56C464.161 1103.91 463.722 1104.13 463.27 1104.19Z" fill="#8FF0F6"/>
<path d="M516.567 1263.79H374.803L373.865 1218.74H515.605L516.567 1263.79Z" fill="#8FF0F6"/>
<path d="M448.173 1008.63C448.215 1010.27 448.049 1011.91 447.683 1013.45C447.317 1014.98 446.76 1016.39 446.045 1017.57C445.33 1018.75 444.473 1019.69 443.524 1020.33C442.576 1020.96 441.557 1021.29 440.528 1021.27C438.409 1021.25 436.376 1019.92 434.851 1017.57C433.325 1015.21 432.423 1012.01 432.331 1008.63C432.288 1006.98 432.455 1005.34 432.821 1003.81C433.187 1002.27 433.744 1000.87 434.459 999.685C435.173 998.503 436.031 997.565 436.979 996.928C437.928 996.291 438.947 995.969 439.975 995.981C442.097 995.998 444.133 997.321 445.659 999.677C447.186 1002.03 448.086 1005.24 448.173 1008.63Z" fill="#263238"/>
<path d="M413.988 1008.63C414.034 1010.27 413.869 1011.91 413.505 1013.45C413.14 1014.99 412.583 1016.4 411.868 1017.58C411.152 1018.77 410.293 1019.7 409.343 1020.34C408.393 1020.97 407.373 1021.29 406.343 1021.27C404.226 1021.25 402.196 1019.92 400.674 1017.56C399.153 1015.21 398.256 1012.01 398.17 1008.63C398.127 1006.98 398.294 1005.34 398.66 1003.81C399.026 1002.27 399.583 1000.87 400.298 999.685C401.012 998.503 401.87 997.565 402.818 996.928C403.766 996.291 404.786 995.969 405.814 995.981C407.933 995.998 409.966 997.323 411.489 999.679C413.012 1002.04 413.907 1005.24 413.988 1008.63Z" fill="#263238"/>
<path d="M380.019 1008.63C380.061 1010.27 379.895 1011.91 379.529 1013.45C379.163 1014.98 378.606 1016.39 377.891 1017.57C377.176 1018.75 376.319 1019.69 375.37 1020.33C374.422 1020.96 373.403 1021.29 372.374 1021.27C370.255 1021.26 368.222 1019.93 366.699 1017.58C365.176 1015.22 364.281 1012.01 364.201 1008.63C364.158 1006.98 364.325 1005.34 364.691 1003.81C365.057 1002.27 365.614 1000.87 366.329 999.685C367.044 998.503 367.901 997.565 368.849 996.928C369.798 996.291 370.817 995.969 371.846 995.981C373.965 995.998 375.998 997.323 377.521 999.679C379.044 1002.04 379.939 1005.24 380.019 1008.63Z" fill="#263238"/>
<path d="M482.237 1008.63C482.279 1010.27 482.113 1011.91 481.747 1013.45C481.381 1014.98 480.824 1016.39 480.109 1017.57C479.394 1018.75 478.537 1019.69 477.588 1020.33C476.64 1020.96 475.621 1021.29 474.592 1021.27C472.473 1021.26 470.44 1019.93 468.917 1017.58C467.394 1015.22 466.499 1012.01 466.419 1008.63C466.383 1006.99 466.555 1005.36 466.926 1003.83C467.296 1002.3 467.857 1000.91 468.574 999.735C469.291 998.563 470.15 997.636 471.097 997.011C472.045 996.385 473.062 996.074 474.087 996.096C476.19 996.122 478.207 997.435 479.723 999.766C481.239 1002.1 482.139 1005.27 482.237 1008.63Z" fill="#263238"/>
<path d="M516.302 1008.63C516.348 1010.27 516.184 1011.91 515.819 1013.45C515.455 1014.99 514.898 1016.4 514.182 1017.58C513.467 1018.77 512.608 1019.7 511.658 1020.34C510.708 1020.97 509.687 1021.29 508.658 1021.27C506.54 1021.25 504.511 1019.92 502.989 1017.56C501.467 1015.21 500.57 1012.01 500.484 1008.63C500.442 1006.98 500.608 1005.34 500.974 1003.81C501.34 1002.27 501.897 1000.87 502.612 999.685C503.327 998.503 504.184 997.565 505.133 996.928C506.081 996.291 507.1 995.969 508.129 995.981C510.248 995.998 512.281 997.323 513.804 999.679C515.327 1002.04 516.222 1005.24 516.302 1008.63Z" fill="#263238"/>
<path d="M803.22 670.432C806.417 678.658 809.086 686.5 811.826 694.688C814.567 702.876 817.043 711.102 819.471 719.52C824.425 736.566 828.525 754.214 831.731 772.298C832.164 774.566 832.477 776.988 832.837 779.333L833.366 782.908L833.631 784.676L833.943 787.597C834.485 794.225 834.232 800.957 833.198 807.432C831.538 817.487 829.014 827.125 825.697 836.07C819.765 852.326 812.594 867.342 804.35 880.776L794.229 868.552C799.309 853.619 803.829 838.216 807.764 822.424C809.517 815.466 810.751 808.202 811.442 800.782C811.663 798.517 811.597 796.203 811.249 793.978L810.288 789.289C809.903 787.367 809.543 785.445 809.086 783.484C805.429 767.626 801.199 752.122 796.417 737.049C791.609 721.673 786.44 706.297 781.271 691.613L803.22 670.432Z" fill="#FF8B7B"/>
<path d="M796.802 863.209L785.743 872.55L798.436 896.306C798.436 896.306 806.369 887.734 806.73 874.664L796.802 863.209Z" fill="#FF8B7B"/>
<path d="M770.91 887.195L784.493 904.455L798.436 896.306L785.743 872.55L770.91 887.195Z" fill="#FF8B7B"/>
<path d="M724.465 544.657C724.201 546.809 723.263 548.308 722.398 548.039C721.533 547.77 721.028 545.771 721.292 543.657C721.557 541.543 722.494 539.813 723.384 540.274C724.273 540.736 724.73 542.504 724.465 544.657Z" fill="#263238"/>
<path d="M723.383 548.347C720.962 554.368 718.034 559.827 714.681 564.569C715.473 565.881 716.433 566.904 717.495 567.567C718.557 568.231 719.696 568.519 720.835 568.413L723.383 548.347Z" fill="#FF5652"/>
<path d="M719.056 623.766V598.55L739.922 602.394C739.922 602.394 739.586 624.074 727.902 630.455L719.056 623.766Z" fill="#FF8B7B"/>
<path d="M725.066 580.406L739.755 587.171L740.019 602.586L719.152 598.55L725.066 580.406Z" fill="#FF8B7B"/>
<path opacity="0.2" d="M739.754 587.171L725.066 580.406L722.205 589.17C722.361 596.076 723.711 602.778 726.104 608.532C728.497 614.286 731.841 618.867 735.764 621.767C738.287 616.131 739.762 609.467 740.019 602.547L739.754 587.171Z" fill="black"/>
<path d="M730.86 534.393C731.014 534.387 731.164 534.31 731.292 534.173C731.42 534.037 731.522 533.844 731.584 533.619C731.647 533.394 731.669 533.145 731.647 532.901C731.625 532.657 731.561 532.428 731.461 532.241C730.617 530.716 729.556 529.536 728.368 528.801C727.181 528.065 725.9 527.795 724.634 528.012C724.427 528.069 724.242 528.254 724.12 528.528C723.999 528.802 723.95 529.142 723.985 529.473C724.02 529.806 724.135 530.105 724.306 530.306C724.476 530.507 724.688 530.594 724.898 530.549C725.901 530.392 726.913 530.62 727.85 531.215C728.787 531.81 729.621 532.755 730.283 533.97C730.357 534.099 730.446 534.202 730.545 534.275C730.644 534.348 730.751 534.388 730.86 534.393Z" fill="#263238"/>
<path d="M761.583 583.558C759.179 603.354 757.688 630.762 766.391 643.947C766.391 643.947 763.025 664.013 739.947 664.013C714.681 664.013 727.807 646.407 727.807 646.407C738.312 641.179 738.216 622.075 735.812 606.699L761.583 583.558Z" fill="#FF8B7B"/>
<path d="M771.079 657.171C773.339 652.096 773.243 635.99 770.839 633.146C766.968 628.571 750.357 627.495 728.023 635.721C730.427 651.328 725.259 659.477 725.259 659.477L771.079 657.171Z" fill="#8FF0F6"/>
<path d="M846.228 1569.77C845.542 1570.16 844.815 1570.33 844.088 1570.26C843.362 1570.19 842.651 1569.9 841.997 1569.39C841.749 1569.02 841.579 1568.54 841.51 1568.01C841.441 1567.48 841.477 1566.93 841.612 1566.43C841.688 1566.01 841.82 1565.63 841.998 1565.31C842.177 1564.98 842.398 1564.72 842.646 1564.55C844.93 1562.78 850.17 1566.2 850.411 1566.35C850.483 1566.4 850.544 1566.48 850.587 1566.58C850.63 1566.69 850.652 1566.81 850.651 1566.93C850.651 1567.05 850.63 1567.17 850.593 1567.28C850.555 1567.39 850.5 1567.48 850.435 1567.55C849.079 1568.5 847.671 1569.24 846.228 1569.77ZM843.463 1565.43C843.305 1565.49 843.151 1565.58 843.006 1565.7C842.856 1565.79 842.722 1565.93 842.613 1566.12C842.504 1566.31 842.425 1566.53 842.381 1566.78C842.165 1567.93 842.381 1568.31 842.526 1568.43C843.439 1569.66 846.805 1568.43 849.185 1567.01C847.374 1565.81 845.42 1565.27 843.463 1565.43Z" fill="#8FF0F6"/>
<path d="M850.338 1567.58H850.146C848.223 1566.7 844.136 1562.05 844.088 1559.01C844.086 1558.53 844.188 1558.06 844.376 1557.68C844.564 1557.3 844.827 1557.04 845.122 1556.94C845.407 1556.76 845.712 1556.7 846.015 1556.74C846.319 1556.78 846.613 1556.92 846.877 1557.17C849.136 1559.01 850.579 1566.47 850.627 1566.81C850.661 1566.91 850.678 1567.01 850.678 1567.12C850.678 1567.23 850.661 1567.34 850.627 1567.43C850.59 1567.49 850.544 1567.53 850.494 1567.56C850.444 1567.59 850.391 1567.6 850.338 1567.58ZM845.53 1558.01H845.338C844.857 1558.28 844.857 1558.67 844.857 1558.86C844.857 1560.66 847.598 1564.32 849.665 1565.78C849.16 1563.62 848.055 1559.36 846.588 1558.09C846.262 1557.85 845.892 1557.82 845.554 1558.01H845.53Z" fill="#8FF0F6"/>
<path d="M721.364 1574.31C719.201 1574.31 717.109 1573.81 716.412 1572.27C716.23 1571.86 716.132 1571.37 716.132 1570.87C716.132 1570.37 716.23 1569.88 716.412 1569.47C716.549 1569.09 716.733 1568.76 716.952 1568.51C717.171 1568.25 717.421 1568.07 717.686 1567.97C720.499 1566.74 726.413 1572.12 726.653 1572.35C726.727 1572.41 726.786 1572.5 726.821 1572.62C726.856 1572.74 726.865 1572.88 726.845 1573C726.836 1573.13 726.801 1573.26 726.745 1573.36C726.688 1573.45 726.614 1573.52 726.533 1573.54C724.827 1574.04 723.098 1574.3 721.364 1574.31ZM718.696 1569.04C718.441 1568.98 718.181 1568.98 717.926 1569.04C717.764 1569.1 717.609 1569.2 717.473 1569.36C717.337 1569.51 717.221 1569.7 717.133 1569.93C716.845 1570.74 716.965 1571.12 717.133 1571.35C717.926 1573.12 722.182 1573.16 725.331 1572.43C723.275 1570.63 721.022 1569.48 718.696 1569.04Z" fill="#8FF0F6"/>
<path d="M726.509 1573.54H726.34C724.297 1572.08 720.258 1566.24 720.571 1563.16C720.571 1562.43 720.955 1561.55 722.061 1561.39C722.456 1561.32 722.857 1561.38 723.238 1561.56C723.618 1561.75 723.971 1562.06 724.273 1562.47C725.814 1565.42 726.738 1569.06 726.917 1572.89C726.917 1573 726.901 1573.11 726.872 1573.21C726.843 1573.31 726.801 1573.39 726.749 1573.46C726.675 1573.53 726.592 1573.55 726.509 1573.54ZM722.374 1562.59H722.133C721.412 1562.59 721.364 1563.12 721.364 1563.28C721.172 1565.12 723.912 1569.74 726.004 1571.74C725.82 1568.65 725.039 1565.73 723.768 1563.39C723.373 1562.86 722.868 1562.57 722.35 1562.59H722.374Z" fill="#8FF0F6"/>
<path d="M745.067 1572.93H728.167L726.484 1510.31H743.384L745.067 1572.93Z" fill="#FF8B7B"/>
<path d="M869.186 1560.4L852.67 1566.12L836.059 1507.81L852.598 1502.08L869.186 1560.4Z" fill="#FF8B7B"/>
<path d="M851.06 1563.47L869.643 1557.05C869.967 1556.94 870.306 1557.01 870.603 1557.25C870.9 1557.48 871.138 1557.88 871.277 1558.36L877.72 1580.73C877.892 1581.27 877.98 1581.87 877.979 1582.48C877.978 1583.08 877.887 1583.68 877.713 1584.22C877.54 1584.76 877.289 1585.23 876.981 1585.58C876.673 1585.94 876.316 1586.17 875.941 1586.27C869.45 1588.3 866.205 1588.8 858.055 1591.61C853.031 1593.38 841.684 1597.8 834.736 1600.18C827.789 1602.56 825.409 1591.92 828.125 1589.96C840.266 1581.08 845.314 1573.27 848.608 1566.01C849.203 1564.71 850.076 1563.81 851.06 1563.47Z" fill="#263238"/>
<path d="M728.287 1569.77H746.75C747.085 1569.78 747.41 1569.96 747.671 1570.3C747.933 1570.63 748.117 1571.1 748.192 1571.62L751.534 1595.64C751.632 1596.23 751.643 1596.83 751.567 1597.42C751.491 1598.01 751.33 1598.57 751.096 1599.04C750.862 1599.51 750.563 1599.88 750.221 1600.14C749.88 1600.39 749.506 1600.51 749.13 1600.49C742.471 1600.3 732.855 1599.68 724.489 1599.68C714.681 1599.68 706.243 1600.53 694.752 1600.53C687.804 1600.53 685.881 1589.3 688.79 1588.26C702.012 1583.65 712.83 1583.15 724.249 1571.89C725.448 1570.6 726.845 1569.87 728.287 1569.77Z" fill="#263238"/>
<path d="M796.633 650.136C812.475 655.94 825.481 720.635 825.481 720.635L793.82 759.344C785.602 745.294 779.804 728.076 776.992 709.372C771.391 675.468 780.43 644.139 796.633 650.136Z" fill="#8FF0F6"/>
<path opacity="0.4" d="M796.633 650.136C812.475 655.94 825.481 720.635 825.481 720.635L793.82 759.344C785.602 745.294 779.804 728.076 776.992 709.372C771.391 675.468 780.43 644.139 796.633 650.136Z" fill="black"/>
<path d="M713.286 727.285C709.344 734.089 705.401 740.163 701.266 746.505C699.223 749.58 697.156 752.655 695.04 755.615L691.843 760.113L691.049 761.228L689.679 762.996C688.269 764.797 686.707 766.273 685.039 767.378C683.184 768.637 681.19 769.291 679.174 769.3C677.451 769.312 675.741 768.83 674.125 767.878C672.333 766.786 670.697 765.125 669.317 762.996C667.556 760.243 666.265 756.816 665.567 753.04C665.202 751.178 664.968 749.257 664.87 747.312C664.744 745.036 664.744 742.746 664.87 740.47C664.99 738.625 665.134 737.01 665.327 735.511C665.984 730.27 666.917 725.126 668.115 720.135C669.197 715.391 670.441 710.746 671.842 706.22C673.38 701.338 674.846 697.763 676.313 693.689C682.269 678.087 689.066 663.346 696.627 649.636C704.111 636.007 712.359 623.5 721.268 612.273L730.114 626.841C723.912 640.142 717.806 654.403 712.157 668.433C706.534 682.384 701.398 696.821 696.771 711.678C695.737 715.292 694.367 719.366 693.718 722.288C692.858 725.682 692.112 729.146 691.482 732.667C690.876 735.837 690.418 739.075 690.112 742.354C690.096 742.866 690.096 743.379 690.112 743.891C690.112 744.199 690.112 744.352 690.112 743.545C690.072 742.682 689.967 741.83 689.799 741.008C689.28 738.283 688.327 735.82 687.035 733.858C685.885 732.169 684.537 730.863 683.068 730.014C681.778 729.233 680.41 728.829 679.029 728.823C677.702 728.797 676.385 729.202 675.159 730.014C674.744 730.285 674.342 730.607 673.957 730.975L674.87 729.63L677.779 725.402L683.525 716.791C687.323 711.063 691.146 704.951 694.752 699.262L713.286 727.285Z" fill="#FF8B7B"/>
<path opacity="0.2" d="M783.051 697.648C791.657 711.256 794.47 736.088 795.071 757.614L793.677 759.344C785.459 745.294 779.66 728.076 776.849 709.372C776.536 707.373 776.248 705.528 776.031 703.337L783.051 697.648Z" fill="black"/>
<path d="M696.482 677.044C693.02 706.258 690.857 766.263 700.881 885.043H791.416C792.041 862.863 783.315 754.539 796.705 649.944C786.7 646.872 776.583 644.83 766.415 643.832C753.604 642.657 740.761 642.657 727.951 643.832C723.72 644.447 719.537 645.446 715.931 646.484C711.135 647.829 706.707 651.472 703.235 656.929C699.762 662.386 697.407 669.4 696.482 677.044Z" fill="#8FF0F6"/>
<path opacity="0.4" d="M696.482 677.044C693.02 706.258 690.857 766.263 700.881 885.043H791.416C792.041 862.863 783.315 754.539 796.705 649.944C786.7 646.872 776.583 644.83 766.415 643.832C753.604 642.657 740.761 642.657 727.951 643.832C723.72 644.447 719.537 645.446 715.931 646.484C711.135 647.829 706.707 651.472 703.235 656.929C699.762 662.386 697.407 669.4 696.482 677.044Z" fill="black"/>
<path opacity="0.2" d="M710.329 720.366L693.982 714.1C693.477 729.937 693.429 749.542 694.15 773.797C701.675 760.113 711.291 738.74 710.329 720.366Z" fill="black"/>
<path opacity="0.2" d="M726.484 1510.31L727.35 1542.6H744.274L743.409 1510.31H726.484Z" fill="black"/>
<path opacity="0.2" d="M852.598 1502.08L836.059 1507.81L844.617 1537.87L861.156 1532.14L852.598 1502.08Z" fill="black"/>
<path d="M769.612 554.651C765.285 580.56 763.554 596.089 753.554 606.853C738.529 623.228 719.777 604.469 719.297 577.1C718.768 552.383 725.956 514.135 743.337 508.907C747.156 507.761 751.095 508.189 754.783 510.151C758.47 512.112 761.785 515.543 764.413 520.12C767.042 524.696 768.899 530.268 769.808 536.309C770.718 542.351 770.651 548.663 769.612 554.651Z" fill="#FF8B7B"/>
<path d="M731.677 555.612C730.86 552.152 727.133 525.36 730.643 518.402C734.153 511.444 774.18 516.48 780.094 525.783C789.926 541.159 783.099 554.997 772.353 572.795C764.275 586.172 763.963 601.24 759.876 603.547C752.664 607.391 741.654 603.777 739.442 591.592C737.23 579.406 731.677 555.612 731.677 555.612Z" fill="#263238"/>
<path d="M775.238 495.3C761.102 485.69 734.586 496.338 720.258 490.802C720.076 499.321 721.828 507.658 725.19 514.272C728.553 520.885 733.3 525.329 738.553 526.782C750.438 530.404 762.513 532.193 774.613 532.125C790.335 530.972 787.258 503.487 775.238 495.3Z" fill="#263238"/>
<path d="M777.449 526.59C782.613 527.402 787.813 525.814 792.426 522.015C795.071 532.241 780.526 535.047 777.449 526.59Z" fill="#263238"/>
<path d="M739.37 556.688C739.045 563.355 737.355 569.664 734.562 574.64C730.859 581.136 727.013 577.062 726.364 569.181C725.787 562.032 726.989 549.961 731.508 546.502C736.028 543.042 739.682 548.654 739.37 556.688Z" fill="#FF8B7B"/>
<path d="M732.976 885.158C732.976 885.158 752.208 1091.77 762.713 1169.19C774.228 1253.95 836.107 1534.37 836.107 1534.37L866.374 1523.88C866.374 1523.88 823.102 1295.31 813.486 1176.8C806.033 1085.78 791.393 885.081 791.393 885.081L732.976 885.158Z" fill="#8FF0F6"/>
<path d="M828.847 1518.27C828.726 1518.27 834.496 1535.79 834.496 1535.79L868.537 1523.99L865.676 1507.62L828.847 1518.27Z" fill="#263238"/>
<path opacity="0.3" d="M745.116 958.771C767.304 965.728 764.949 1098.04 762.28 1166.12C755.885 1117.99 746.51 1025.43 740.115 959.732C741.665 958.509 743.429 958.169 745.116 958.771Z" fill="black"/>
<path d="M700.882 885.158C700.882 885.158 698.478 1087.31 700.401 1169.61C702.324 1255.37 721.051 1536.18 721.051 1536.18H749.707C749.707 1536.18 750.741 1260.37 752.111 1176.15C753.505 1084.35 760.429 885.004 760.429 885.004L700.882 885.158Z" fill="#8FF0F6"/>
<path d="M715.547 1518.11C715.402 1518.11 717.157 1537.1 717.157 1537.1H751.991L752.953 1520.15L715.547 1518.11Z" fill="#263238"/>
<path d="M731.918 686.039C740.019 720.981 692.396 762.15 692.396 762.15L671.77 719.866C671.77 719.866 685.641 675.968 702.469 656.21C723.263 631.839 725.739 659.438 731.918 686.039Z" fill="#8FF0F6"/>
<path opacity="0.4" d="M731.918 686.039C740.019 720.981 692.396 762.15 692.396 762.15L671.77 719.866C671.77 719.866 685.641 675.968 702.469 656.21C723.263 631.839 725.739 659.438 731.918 686.039Z" fill="black"/>
<path d="M918.515 420.765C966.432 420.765 1005.28 381.181 1005.28 332.353C1005.28 283.524 966.432 243.941 918.515 243.941C870.599 243.941 831.755 283.524 831.755 332.353C831.755 381.181 870.599 420.765 918.515 420.765Z" fill="#8FF0F6"/>
<path d="M887.215 376.866C881.5 376.837 875.973 373.587 871.608 367.689C867.242 361.791 864.316 353.621 863.343 344.615C862.387 334.86 863.763 324.887 867.198 316.681C870.632 308.475 875.874 302.638 881.878 300.332C886.806 298.516 891.965 299.216 896.631 302.333C901.296 305.449 905.234 310.826 907.889 317.707L963.59 299.333C965.731 298.583 967.969 299.152 969.859 300.926C971.748 302.701 973.15 305.55 973.783 308.904C974.075 310.668 974.138 312.508 973.97 314.312C973.801 316.116 973.405 317.846 972.804 319.397C972.203 320.948 971.411 322.286 970.476 323.331C969.54 324.375 968.482 325.104 967.364 325.472L965.922 325.933C965.708 325.995 965.505 326.134 965.33 326.341C965.155 326.547 965.012 326.816 964.912 327.125C964.823 327.439 964.777 327.779 964.777 328.124C964.777 328.469 964.823 328.81 964.912 329.124L965.898 333.198C966.228 334.519 966.26 335.982 965.988 337.337C965.716 338.691 965.157 339.851 964.407 340.617C963.817 341.201 963.317 341.993 962.946 342.932C962.575 343.871 962.343 344.933 962.268 346.037C962.197 347.304 961.878 348.503 961.355 349.463C960.833 350.423 960.134 351.094 959.359 351.38L958.229 351.765C957.446 351.996 956.637 351.823 955.92 351.27C955.202 350.717 954.613 349.813 954.239 348.69C953.74 347.349 952.991 346.29 952.098 345.662C951.205 345.034 950.212 344.866 949.257 345.184C948.301 345.501 947.432 346.287 946.769 347.432C946.106 348.578 945.684 350.025 945.56 351.573C945.493 352.832 945.178 354.024 944.659 354.978C944.141 355.931 943.446 356.596 942.675 356.877L941.545 357.262C940.762 357.487 939.955 357.311 939.238 356.759C938.522 356.206 937.932 355.306 937.555 354.186C937.195 353.233 936.709 352.416 936.132 351.792C935.556 351.168 934.901 350.752 934.213 350.573C933.289 350.395 932.437 349.684 931.817 348.573C931.197 347.461 930.853 346.027 930.848 344.538V340.156C930.838 339.813 930.782 339.478 930.684 339.173C930.585 338.867 930.447 338.6 930.278 338.388C930.109 338.177 929.914 338.026 929.705 337.946C929.496 337.866 929.279 337.86 929.069 337.926L911.303 343.769C910.578 351.639 908.355 358.961 904.935 364.739C901.516 370.516 897.066 374.469 892.191 376.059C890.554 376.594 888.887 376.865 887.215 376.866ZM882.407 303.83C876.954 305.867 872.187 311.131 869.064 318.563C865.942 325.995 864.697 335.043 865.579 343.885C866.524 352.11 869.28 359.523 873.346 364.783C877.413 370.042 882.523 372.8 887.751 372.559C892.979 372.317 897.981 369.092 901.851 363.466C905.721 357.84 908.204 350.185 908.851 341.886V340.502L928.444 334.159C929.006 333.942 929.591 333.927 930.157 334.117C930.723 334.306 931.255 334.694 931.716 335.254C932.176 335.813 932.553 336.53 932.819 337.351C933.084 338.172 933.232 339.078 933.252 340.002V344.384C933.257 344.906 933.375 345.409 933.585 345.808C933.795 346.207 934.085 346.478 934.406 346.575C935.456 346.816 936.459 347.436 937.338 348.388C938.217 349.341 938.949 350.601 939.478 352.072C939.605 352.487 939.81 352.828 940.065 353.049C940.319 353.269 940.609 353.358 940.896 353.302L942.002 352.918C942.283 352.803 942.532 352.546 942.714 352.186C942.896 351.826 943 351.382 943.012 350.919C943.163 348.526 943.787 346.272 944.792 344.483C945.797 342.694 947.132 341.462 948.604 340.966C950.076 340.469 951.608 340.734 952.98 341.722C954.351 342.709 955.491 344.369 956.234 346.46C956.357 346.872 956.558 347.212 956.808 347.432C957.058 347.653 957.345 347.743 957.628 347.69L958.782 347.306C959.058 347.183 959.302 346.924 959.479 346.564C959.657 346.205 959.758 345.764 959.768 345.307C959.887 343.619 960.245 341.997 960.816 340.565C961.387 339.132 962.155 337.928 963.061 337.042C963.326 336.737 963.52 336.298 963.611 335.797C963.703 335.296 963.687 334.76 963.566 334.275L962.58 330.2C962.377 329.36 962.29 328.459 962.327 327.56C962.363 326.661 962.522 325.785 962.792 324.994C963.062 324.204 963.437 323.517 963.891 322.982C964.344 322.447 964.865 322.076 965.417 321.897L966.884 321.397C967.677 321.127 968.429 320.603 969.093 319.857C969.757 319.112 970.32 318.159 970.749 317.058C971.177 315.956 971.463 314.727 971.587 313.445C971.712 312.163 971.674 310.854 971.475 309.596C971.006 307.177 969.982 305.131 968.609 303.869C967.235 302.607 965.614 302.222 964.071 302.792L906.808 321.82L906.375 320.628C904.074 314.079 900.503 308.905 896.2 305.889C891.898 302.872 887.099 302.176 882.527 303.907L882.407 303.83ZM887.215 362.566C884.229 362.62 881.297 361.284 878.777 358.722C875.796 355.593 873.586 350.907 872.524 345.464C871.462 340.02 871.613 334.156 872.952 328.872C874.291 323.587 876.735 319.208 879.868 316.482C883 313.756 886.626 312.852 890.129 313.923C893.631 314.994 896.793 317.975 899.075 322.357C901.357 326.739 902.618 332.25 902.643 337.952C902.668 343.654 901.455 349.194 899.212 353.626C896.968 358.058 893.833 361.109 890.34 362.259C889.317 362.555 888.278 362.684 887.239 362.643L887.215 362.566ZM887.215 317.169C886.319 317.177 885.426 317.318 884.547 317.592C882.872 318.162 881.284 319.254 879.873 320.806C878.462 322.358 877.256 324.339 876.324 326.636C875.392 328.933 874.752 331.501 874.441 334.193C874.13 336.886 874.153 339.65 874.51 342.328C874.867 345.006 875.55 347.545 876.52 349.801C877.491 352.057 878.73 353.985 880.166 355.475C881.603 356.965 883.209 357.989 884.892 358.486C886.576 358.984 888.305 358.947 889.98 358.376C892.494 357.539 894.797 355.531 896.598 352.604C898.4 349.678 899.619 345.964 900.102 341.931C900.585 337.898 900.311 333.726 899.314 329.942C898.317 326.158 896.642 322.931 894.499 320.667C892.371 318.403 889.867 317.212 887.311 317.246L887.215 317.169Z" fill="white"/>
<path opacity="0.6" d="M847.91 472.62C863.656 472.62 876.421 459.609 876.421 443.559C876.421 427.51 863.656 414.499 847.91 414.499C832.163 414.499 819.398 427.51 819.398 443.559C819.398 459.609 832.163 472.62 847.91 472.62Z" fill="#8FF0F6"/>
<path opacity="0.3" d="M802.546 484.536C809.012 484.536 814.254 479.201 814.254 472.62C814.254 466.039 809.012 460.704 802.546 460.704C796.08 460.704 790.839 466.039 790.839 472.62C790.839 479.201 796.08 484.536 802.546 484.536Z" fill="#8FF0F6"/>
</g>
<defs>
<clipPath id="clip0_480_787">
<rect width="1202" height="1922" fill="white" transform="translate(0.5 0.5)"/>
</clipPath>
</defs>
</svg>
