<svg width="75" height="76" viewBox="0 0 75 76" fill="none" xmlns="http://www.w3.org/2000/svg">
<path d="M74.1235 70.2084L55.4857 51.5706C60.5647 45.3588 63.0619 37.4325 62.4607 29.4311C61.8595 21.4298 58.206 13.9656 52.2558 8.58251C46.3056 3.1994 38.514 0.309222 30.4926 0.509781C22.4712 0.710341 14.8338 3.9863 9.16004 9.66004C3.4863 15.3338 0.210341 22.9712 0.00978132 30.9926C-0.190778 39.014 2.6994 46.8056 8.08251 52.7558C13.4656 58.706 20.9298 62.3595 28.9311 62.9607C36.9325 63.5619 44.8588 61.0647 51.0706 55.9857L69.7084 74.6235C70.2973 75.1923 71.086 75.507 71.9047 75.4999C72.7234 75.4928 73.5065 75.1644 74.0855 74.5855C74.6644 74.0065 74.9928 73.2234 74.9999 72.4047C75.007 71.586 74.6923 70.7973 74.1235 70.2084ZM31.3243 56.8038C26.3838 56.8038 21.5543 55.3387 17.4464 52.594C13.3386 49.8492 10.1369 45.9479 8.24626 41.3835C6.35562 36.8191 5.86095 31.7966 6.82479 26.951C7.78862 22.1055 10.1677 17.6546 13.6611 14.1611C17.1546 10.6677 21.6055 8.28862 26.451 7.32479C31.2966 6.36095 36.3191 6.85562 40.8835 8.74626C45.4479 10.6369 49.3492 13.8386 52.094 17.9464C54.8387 22.0543 56.3038 26.8838 56.3038 31.8243C56.2963 38.447 53.6622 44.7963 48.9792 49.4792C44.2963 54.1622 37.947 56.7963 31.3243 56.8038Z" fill="black"/>
</svg>
