<svg width="2786" height="2905" viewBox="0 0 2786 2905" fill="none" xmlns="http://www.w3.org/2000/svg">
<path d="M2506.84 2315.23H2322.3V2316.68H2506.84V2315.23Z" fill="#EBEBEB"/>
<path d="M1845.56 2331.03H1797.14V2332.48H1845.56V2331.03Z" fill="#EBEBEB"/>
<path d="M2316.73 2261.31H2209.8V2262.76H2316.73V2261.31Z" fill="#EBEBEB"/>
<path d="M532.962 2271.07H292.307V2272.52H532.962V2271.07Z" fill="#EBEBEB"/>
<path d="M617.879 2271.07H582.608V2272.52H617.879V2271.07Z" fill="#EBEBEB"/>
<path d="M1254.54 2295.59H732.551V2297.04H1254.54V2295.59Z" fill="#EBEBEB"/>
<path d="M1328.37 1962.62H252.412C243.974 1962.62 235.881 1959.12 229.914 1952.9C223.948 1946.68 220.596 1938.24 220.596 1929.44V352.434C220.669 343.686 224.054 335.322 230.012 329.164C235.971 323.005 244.022 319.549 252.412 319.55H1328.37C1332.54 319.55 1336.68 320.408 1340.54 322.075C1344.4 323.742 1347.91 326.186 1350.86 329.267C1353.82 332.347 1356.16 336.004 1357.76 340.029C1359.36 344.054 1360.18 348.368 1360.18 352.725V1929.44C1360.18 1933.8 1359.36 1938.11 1357.76 1942.14C1356.16 1946.16 1353.82 1949.82 1350.86 1952.9C1347.91 1955.98 1344.4 1958.43 1340.54 1960.09C1336.68 1961.76 1332.54 1962.62 1328.37 1962.62ZM252.412 320.712C244.348 320.727 236.618 324.074 230.916 330.02C225.213 335.966 222.003 344.026 221.989 352.434V1929.44C222.003 1937.85 225.213 1945.91 230.916 1951.86C236.618 1957.8 244.348 1961.15 252.412 1961.17H1328.37C1336.43 1961.15 1344.16 1957.8 1349.86 1951.86C1355.56 1945.91 1358.77 1937.85 1358.79 1929.44V352.434C1358.77 344.026 1355.56 335.966 1349.86 330.02C1344.16 324.074 1336.43 320.727 1328.37 320.712H252.412Z" fill="#EBEBEB"/>
<path d="M2533.59 1962.62H1457.64C1449.2 1962.62 1441.1 1959.12 1435.14 1952.9C1429.17 1946.68 1425.82 1938.24 1425.82 1929.44V352.434C1425.89 343.686 1429.28 335.322 1435.24 329.164C1441.19 323.005 1449.24 319.549 1457.64 319.55H2533.59C2542.03 319.55 2550.12 323.045 2556.09 329.267C2562.05 335.488 2565.4 343.926 2565.4 352.725V1929.44C2565.4 1938.24 2562.05 1946.68 2556.09 1952.9C2550.12 1959.12 2542.03 1962.62 2533.59 1962.62ZM1457.64 320.712C1449.57 320.727 1441.84 324.074 1436.14 330.02C1430.44 335.966 1427.23 344.026 1427.21 352.434V1929.44C1427.23 1937.85 1430.44 1945.91 1436.14 1951.86C1441.84 1957.8 1449.57 1961.15 1457.64 1961.17H2533.59C2541.65 1961.15 2549.38 1957.8 2555.08 1951.86C2560.79 1945.91 2564 1937.85 2564.01 1929.44V352.434C2564 344.026 2560.79 335.966 2555.08 330.02C2549.38 324.074 2541.65 320.727 2533.59 320.712H1457.64Z" fill="#EBEBEB"/>
<path d="M2786 2221.74H0V2223.2H2786V2221.74Z" fill="#EBEBEB"/>
<path d="M945.067 722.066H540.206V1256.99H945.067V722.066Z" fill="#F0F0F0"/>
<path d="M904.782 775.286H580.547V1203.72H904.782V775.286Z" fill="#FAFAFA"/>
<path d="M508.947 1256.99H540.261L540.261 722.066H508.947L508.947 1256.99Z" fill="#E0E0E0"/>
<path d="M789.831 996.125C807.232 1014.27 817.008 1038.88 817.008 1064.54C817.008 1090.2 807.232 1114.81 789.831 1132.95C772.43 1151.09 748.829 1161.29 724.221 1161.29C699.612 1161.29 676.011 1151.09 658.61 1132.95C622.337 1095.13 753.557 958.301 789.831 996.125Z" fill="#F5F5F5"/>
<path d="M692.934 988.63C686.154 981.561 680.777 973.168 677.108 963.932C673.439 954.696 671.55 944.797 671.55 934.8C671.55 924.803 673.439 914.904 677.108 905.668C680.777 896.431 686.154 888.039 692.934 880.97C699.713 873.901 707.762 868.294 716.62 864.468C725.477 860.642 734.971 858.673 744.558 858.673C754.146 858.673 763.64 860.642 772.497 864.468C781.355 868.294 789.404 873.901 796.183 880.97C824.656 910.718 721.463 1018.38 692.934 988.63Z" fill="#EBEBEB"/>
<path d="M2175.75 1474.11H2127.67V2225.23H2175.75V1474.11Z" fill="#F0F0F0"/>
<path d="M2196.71 1474.11H2154.86V2225.23H2196.71V1474.11Z" fill="#E6E6E6"/>
<path d="M1690.94 1474.11H1642.85V2225.23H1690.94V1474.11Z" fill="#F0F0F0"/>
<path d="M1711.89 1474.11H1670.04V2225.23H1711.89V1474.11Z" fill="#E6E6E6"/>
<path d="M2358.07 1474.11H2309.98V2225.23H2358.07V1474.11Z" fill="#F0F0F0"/>
<path d="M2378.97 1474.11H2337.12V2225.23H2378.97V1474.11Z" fill="#E6E6E6"/>
<path d="M1873.25 1474.11H1825.16V2225.23H1873.25V1474.11Z" fill="#F0F0F0"/>
<path d="M2379.02 1425.89H1642.9V1486.08H2379.02V1425.89Z" fill="#F0F0F0"/>
<path d="M1852.36 1425.89H1642.9V1486.08H1852.36V1425.89Z" fill="#E0E0E0"/>
<path d="M1894.2 1474.11H1852.36V2225.23H1894.2V1474.11Z" fill="#E6E6E6"/>
<path d="M682.904 1429.72H374.996V2225.23H682.904V1429.72Z" fill="#E6E6E6"/>
<path d="M1258.88 1429.72H615.706V2225.23H1258.88V1429.72Z" fill="#F5F5F5"/>
<path d="M1039.74 1479.92H1144.77C1155.74 1479.92 1166.61 1482.18 1176.75 1486.56C1186.89 1490.94 1196.11 1497.36 1203.87 1505.45C1211.63 1513.54 1217.78 1523.15 1221.99 1533.72C1226.19 1544.3 1228.35 1555.63 1228.35 1567.07V2185.72H956.267V1566.96C956.296 1543.88 965.1 1521.76 980.747 1505.45C996.394 1489.13 1017.61 1479.95 1039.74 1479.92Z" fill="#EBEBEB"/>
<path d="M736.061 1479.92H841.372C852.348 1479.92 863.216 1482.18 873.357 1486.56C883.497 1490.94 892.711 1497.36 900.472 1505.45C908.233 1513.54 914.39 1523.15 918.59 1533.72C922.79 1544.3 924.952 1555.63 924.952 1567.07V2185.72H652.593V1566.96C652.622 1543.88 661.426 1521.76 677.073 1505.45C692.72 1489.13 713.933 1479.95 736.061 1479.92Z" fill="#EBEBEB"/>
<path d="M900.101 1827.48C899.775 1832.96 897.917 1838.23 894.757 1842.63C891.596 1847.03 887.271 1850.37 882.313 1852.24C877.355 1854.1 871.982 1854.42 866.854 1853.14C861.727 1851.87 857.069 1849.05 853.455 1845.05C849.841 1841.05 847.428 1836.03 846.514 1830.62C845.6 1825.21 846.224 1819.63 848.309 1814.59C850.395 1809.54 853.851 1805.24 858.251 1802.21C862.652 1799.18 867.806 1797.57 873.077 1797.56C876.736 1797.67 880.338 1798.53 883.677 1800.1C887.016 1801.66 890.026 1803.9 892.536 1806.68C895.046 1809.46 897.006 1812.72 898.304 1816.29C899.602 1819.86 900.213 1823.66 900.101 1827.48Z" fill="#E0E0E0"/>
<path d="M1039.23 1827.48C1038.91 1832.97 1037.05 1838.23 1033.89 1842.63C1030.72 1847.04 1026.39 1850.37 1021.43 1852.24C1016.47 1854.11 1011.1 1854.42 1005.97 1853.14C1000.84 1851.86 996.181 1849.04 992.569 1845.03C988.957 1841.02 986.549 1836 985.641 1830.59C984.733 1825.17 985.365 1819.59 987.459 1814.55C989.553 1809.5 993.017 1805.2 997.425 1802.18C1001.83 1799.16 1006.99 1797.55 1012.27 1797.56C1019.65 1797.8 1026.63 1801.09 1031.69 1806.7C1036.75 1812.31 1039.46 1819.78 1039.23 1827.48Z" fill="#E0E0E0"/>
<path d="M1393 2480.93C1989.66 2480.93 2473.36 2451.48 2473.36 2415.16C2473.36 2378.84 1989.66 2349.39 1393 2349.39C796.336 2349.39 312.645 2378.84 312.645 2415.16C312.645 2451.48 796.336 2480.93 1393 2480.93Z" fill="#F5F5F5"/>
<path d="M1629.92 2256.55C1629.42 2173.41 1605.74 2122.39 1585.9 2094.27C1574.66 2077.23 1559.9 2063.02 1542.72 2052.67L1545.23 2047.21C1546.12 2047.68 1634.77 2093.69 1635.77 2256.37L1629.92 2256.55Z" fill="#04D5E3"/>
<path d="M1652.93 2241.85L1647.36 2241.32C1670.21 1971.51 1496.92 1876.69 1495.41 1875.76L1498.03 1870.36C1499.59 1871.29 1676.17 1967.96 1652.93 2241.85Z" fill="#04D5E3"/>
<path d="M1672.49 2251.9C1666.31 2098.22 1681.91 1927.41 1682.08 1925.67L1687.65 1926.25C1687.65 1927.99 1671.93 2098.4 1678.12 2251.61L1672.49 2251.9Z" fill="#04D5E3"/>
<path d="M1684.03 2260.85C1694.11 2195.31 1718.79 2158.07 1737.68 2138.37C1748.57 2126.34 1761.9 2116.99 1776.69 2111.01L1775.35 2106.36C1774.57 2106.36 1699.29 2131.57 1679.46 2260.09L1684.03 2260.85Z" fill="#04D5E3"/>
<g opacity="0.3">
<path d="M1629.92 2256.55C1629.42 2173.41 1605.74 2122.39 1585.9 2094.27C1574.66 2077.23 1559.9 2063.02 1542.72 2052.67L1545.23 2047.21C1546.12 2047.68 1634.77 2093.69 1635.77 2256.37L1629.92 2256.55Z" fill="white"/>
<path d="M1652.93 2241.85L1647.36 2241.32C1670.21 1971.51 1496.92 1876.69 1495.41 1875.76L1498.03 1870.36C1499.59 1871.29 1676.17 1967.96 1652.93 2241.85Z" fill="white"/>
<path d="M1672.49 2251.9C1666.31 2098.22 1681.91 1927.41 1682.08 1925.67L1687.65 1926.25C1687.65 1927.99 1671.93 2098.4 1678.12 2251.61L1672.49 2251.9Z" fill="white"/>
<path d="M1684.03 2260.85C1694.11 2195.31 1718.8 2158.07 1737.68 2138.37C1748.57 2126.34 1761.9 2116.99 1776.69 2111.01L1775.35 2106.36C1774.57 2106.36 1699.29 2131.57 1679.46 2260.09L1684.03 2260.85Z" fill="white"/>
</g>
<path d="M1514.69 1882.44C1514.69 1882.44 1476.19 1780.24 1420.86 1856.18C1375.95 1917.82 1420.86 1985.34 1420.86 1985.34C1420.86 1985.34 1661.74 1991.67 1618.67 1895.8C1591.98 1836.54 1514.69 1882.44 1514.69 1882.44Z" fill="#04D5E3"/>
<g opacity="0.5">
<path d="M1506.84 1887.09C1506.84 1887.09 1435.85 1875.47 1435.46 1881.28C1435.07 1887.09 1497.7 1889.7 1491.85 1897.78C1486 1905.85 1425.65 1912.83 1424.98 1920.55C1424.31 1928.28 1481.54 1909.46 1478.98 1916.31C1476.41 1923.17 1438.19 1955.18 1437.58 1963.66C1436.96 1972.15 1473.46 1927.53 1477.81 1932.58C1482.15 1937.64 1484.38 1978.07 1488.06 1968.78C1491.74 1959.48 1487.28 1918.69 1496.08 1910.68C1504.89 1902.66 1556.54 1953.61 1568.24 1946.76C1579.94 1939.9 1510.96 1911.49 1506.84 1887.09Z" fill="white"/>
<path d="M1543.95 1891.16C1543.95 1891.16 1603.01 1891.97 1604.79 1908.59C1606.57 1925.2 1593.59 1907.6 1543.95 1891.16Z" fill="white"/>
</g>
<path d="M1535.64 2251.43L1563.06 2406.73C1564.45 2414.66 1568.47 2421.82 1574.4 2426.98C1580.33 2432.14 1587.82 2434.97 1595.54 2434.97H1702.25C1709.97 2434.97 1717.45 2432.14 1723.39 2426.98C1729.32 2421.82 1733.34 2414.66 1734.73 2406.73L1762.2 2251.43C1762.71 2248.55 1762.6 2245.58 1761.88 2242.74C1761.17 2239.9 1759.86 2237.26 1758.06 2235C1756.26 2232.75 1754 2230.93 1751.46 2229.68C1748.91 2228.44 1746.13 2227.79 1743.31 2227.79H1554.59C1551.77 2227.77 1548.97 2228.41 1546.41 2229.65C1543.85 2230.89 1541.59 2232.7 1539.78 2234.96C1537.97 2237.22 1536.66 2239.87 1535.94 2242.71C1535.23 2245.56 1535.13 2248.54 1535.64 2251.43Z" fill="#04D5E3"/>
<path d="M1518.98 2061.62C1518.98 2061.62 1452.79 2003.11 1440.97 2080.74C1431.45 2143.72 1489.12 2174.51 1489.12 2174.51C1489.12 2174.51 1666.36 2081.55 1599.22 2029.26C1557.99 1997.07 1518.98 2061.62 1518.98 2061.62Z" fill="#04D5E3"/>
<path opacity="0.2" d="M1518.98 2061.62C1518.98 2061.62 1452.79 2003.11 1440.97 2080.74C1431.45 2143.72 1489.12 2174.51 1489.12 2174.51C1489.12 2174.51 1666.36 2081.55 1599.22 2029.26C1557.99 1997.07 1518.98 2061.62 1518.98 2061.62Z" fill="black"/>
<g opacity="0.5">
<path d="M1515.08 2068.36C1515.08 2068.36 1459.36 2088.87 1461.15 2093.23C1462.93 2097.58 1509.46 2074.05 1508.23 2082.3C1507 2090.55 1465.83 2120.13 1468.28 2126C1470.73 2131.86 1505.16 2094.97 1505.89 2100.95C1506.61 2106.94 1490.79 2145.75 1493.52 2152.2C1496.25 2158.65 1506.06 2111.53 1511.07 2113.27C1516.09 2115.01 1532.91 2143.6 1532.08 2135.35C1531.24 2127.1 1512.74 2099.33 1516.2 2089.97C1519.65 2080.62 1576.15 2096.6 1582.06 2086.84C1587.96 2077.08 1527.12 2084.22 1515.08 2068.36Z" fill="white"/>
<path d="M1543.44 2056.22C1543.44 2056.22 1586.63 2032.98 1594.09 2044.07C1601.56 2055.17 1585.79 2047.97 1543.44 2056.22Z" fill="white"/>
</g>
<path d="M1746.71 1903.36C1746.71 1903.36 1823.55 1835.38 1837.26 1925.61C1848.4 1998.81 1781.26 2034.55 1781.26 2034.55C1781.26 2034.55 1575.09 1926.19 1653.1 1865.59C1701.35 1828.35 1746.71 1903.36 1746.71 1903.36Z" fill="#04D5E3"/>
<path opacity="0.3" d="M1746.71 1903.36C1746.71 1903.36 1823.55 1835.38 1837.26 1925.61C1848.4 1998.81 1781.26 2034.55 1781.26 2034.55C1781.26 2034.55 1575.09 1926.19 1653.1 1865.59C1701.35 1828.35 1746.71 1903.36 1746.71 1903.36Z" fill="black"/>
<g opacity="0.5">
<path d="M1751.22 1911.49C1751.22 1911.49 1816.08 1935.37 1813.91 1940.54C1811.74 1945.71 1757.74 1918.23 1759.14 1927.82C1760.53 1937.4 1808.45 1971.74 1805.61 1978.6C1802.76 1985.45 1762.76 1942.52 1761.92 1949.55C1761.09 1956.58 1779.42 2001.84 1776.24 2009.1C1773.07 2016.36 1761.7 1961.63 1755.85 1963.84C1750 1966.05 1730.5 1999.1 1731.44 1989.52C1732.39 1979.93 1753.73 1947.63 1749.89 1936.76C1746.04 1925.9 1680.24 1944.49 1673.33 1933.1C1666.42 1921.72 1737.18 1929.62 1751.22 1911.49Z" fill="white"/>
<path d="M1718.13 1897.08C1718.13 1897.08 1667.98 1869.89 1659.23 1883.02C1650.48 1896.15 1669.04 1887.49 1718.13 1897.08Z" fill="white"/>
</g>
<path d="M1791.79 2109.03C1791.79 2109.03 1843.61 2053.6 1859.66 2118.73C1872.64 2171.6 1825.83 2202.69 1825.83 2202.69C1825.83 2202.69 1667.7 2138.08 1720.86 2087.88C1753.56 2057.09 1791.79 2109.03 1791.79 2109.03Z" fill="#04D5E3"/>
<path opacity="0.4" d="M1791.79 2109.03C1791.79 2109.03 1843.61 2053.6 1859.66 2118.73C1872.64 2171.6 1825.83 2202.69 1825.83 2202.69C1825.83 2202.69 1667.7 2138.08 1720.86 2087.88C1753.56 2057.09 1791.79 2109.03 1791.79 2109.03Z" fill="black"/>
<g opacity="0.5">
<path d="M1795.63 2114.26C1795.63 2114.26 1844.72 2127.04 1843.5 2130.93C1842.27 2134.83 1800.87 2118.62 1802.49 2125.59C1804.1 2132.56 1841.49 2154.23 1839.93 2159.4C1838.37 2164.57 1806.11 2136.16 1806 2141.22C1805.89 2146.27 1822.27 2178.17 1820.43 2183.86C1818.59 2189.56 1806.61 2150.11 1802.49 2152.14C1798.36 2154.17 1786.22 2179.85 1786.27 2172.77C1786.33 2165.68 1799.98 2140.4 1796.36 2132.74C1792.74 2125.07 1745.76 2143.43 1739.97 2135.58C1734.17 2127.74 1786.55 2128.78 1795.63 2114.26Z" fill="white"/>
<path d="M1770.39 2106.3C1770.39 2106.3 1731.83 2089.97 1726.32 2100.49C1720.8 2111.01 1733.84 2102.81 1770.39 2106.3Z" fill="white"/>
</g>
<path d="M2125.55 1512.81H1728.21C1723.67 1512.89 1719.16 1511.97 1714.98 1510.1C1710.8 1508.22 1707.06 1505.44 1704 1501.94C1700.93 1498.44 1698.62 1494.29 1697.21 1489.79C1695.81 1485.28 1695.34 1480.51 1695.84 1475.8L1717.23 1220.62C1718.21 1210.59 1722.68 1201.28 1729.8 1194.45C1736.91 1187.62 1746.18 1183.74 1755.85 1183.56H2153.19C2157.74 1183.47 2162.26 1184.4 2166.44 1186.27C2170.62 1188.15 2174.37 1190.94 2177.44 1194.44C2180.51 1197.95 2182.83 1202.1 2184.24 1206.61C2185.65 1211.13 2186.12 1215.9 2185.62 1220.62L2164.16 1475.74C2163.2 1485.78 2158.73 1495.09 2151.61 1501.93C2144.5 1508.76 2135.22 1512.63 2125.55 1512.81Z" fill="#263238"/>
<path d="M1891.42 1327.59C1889.63 1345.89 1881.47 1362.88 1868.48 1375.33C1855.49 1387.78 1838.57 1394.84 1820.93 1395.16C1812.63 1395.32 1804.39 1393.63 1796.77 1390.21C1789.14 1386.79 1782.31 1381.71 1776.71 1375.31C1771.12 1368.92 1766.89 1361.36 1764.33 1353.13C1761.76 1344.89 1760.9 1336.19 1761.81 1327.59C1763.68 1309.32 1771.86 1292.39 1784.84 1279.96C1797.81 1267.53 1814.68 1260.46 1832.3 1260.07L1835.19 1225.5C1808.54 1226 1782.99 1236.66 1763.37 1255.47C1743.75 1274.28 1731.42 1299.94 1728.71 1327.59C1727.34 1340.57 1728.64 1353.71 1732.51 1366.13C1736.39 1378.55 1742.75 1389.97 1751.19 1399.63C1759.62 1409.29 1769.92 1416.97 1781.42 1422.16C1792.92 1427.35 1805.34 1429.93 1817.86 1429.72C1844.52 1429.23 1870.08 1418.56 1889.7 1399.74C1909.33 1380.91 1921.65 1355.24 1924.35 1327.59H1891.42Z" fill="#04D5E3"/>
<path d="M1936.16 1312.65C1937.53 1299.67 1936.23 1286.53 1932.36 1274.11C1928.48 1261.69 1922.12 1250.27 1913.69 1240.61C1905.25 1230.95 1894.95 1223.27 1883.45 1218.08C1871.96 1212.89 1859.53 1210.31 1847.01 1210.51L1844.11 1245.37C1852.41 1245.22 1860.64 1246.92 1868.26 1250.34C1875.88 1253.77 1882.71 1258.84 1888.31 1265.24C1893.9 1271.63 1898.12 1279.19 1900.69 1287.41C1903.27 1295.64 1904.13 1304.34 1903.23 1312.94L1936.16 1312.65Z" fill="#04D5E3"/>
<path opacity="0.7" d="M1936.16 1312.65C1937.53 1299.67 1936.23 1286.53 1932.36 1274.11C1928.48 1261.69 1922.12 1250.27 1913.69 1240.61C1905.25 1230.95 1894.95 1223.27 1883.45 1218.08C1871.96 1212.89 1859.53 1210.31 1847.01 1210.51L1844.11 1245.37C1852.41 1245.22 1860.64 1246.92 1868.26 1250.34C1875.88 1253.77 1882.71 1258.84 1888.31 1265.24C1893.9 1271.63 1898.12 1279.19 1900.69 1287.41C1903.27 1295.64 1904.13 1304.34 1903.23 1312.94L1936.16 1312.65Z" fill="white"/>
<path d="M1855.03 1327.59C1854.21 1335.92 1850.5 1343.66 1844.59 1349.33C1838.67 1355 1830.97 1358.22 1822.94 1358.38C1819.16 1358.44 1815.41 1357.67 1811.94 1356.11C1808.47 1354.54 1805.36 1352.23 1802.81 1349.32C1800.27 1346.4 1798.35 1342.96 1797.17 1339.21C1796 1335.47 1795.61 1331.5 1796.02 1327.59C1796.84 1319.25 1800.56 1311.53 1806.47 1305.86C1812.39 1300.2 1820.09 1296.99 1828.12 1296.85L1829.4 1281.16C1817.27 1281.4 1805.65 1286.26 1796.73 1294.82C1787.81 1303.39 1782.2 1315.06 1780.98 1327.64C1780.35 1333.56 1780.94 1339.54 1782.71 1345.2C1784.47 1350.86 1787.37 1356.06 1791.22 1360.45C1795.06 1364.85 1799.76 1368.34 1804.99 1370.7C1810.23 1373.06 1815.89 1374.23 1821.6 1374.12C1833.73 1373.9 1845.37 1369.05 1854.3 1360.48C1863.24 1351.92 1868.85 1340.23 1870.07 1327.64L1855.03 1327.59Z" fill="#04D5E3"/>
<path opacity="0.7" d="M1855.03 1327.59C1854.21 1335.92 1850.5 1343.66 1844.59 1349.33C1838.67 1355 1830.97 1358.22 1822.94 1358.38C1819.16 1358.44 1815.41 1357.67 1811.94 1356.11C1808.47 1354.54 1805.36 1352.23 1802.81 1349.32C1800.27 1346.4 1798.35 1342.96 1797.17 1339.21C1796 1335.47 1795.61 1331.5 1796.02 1327.59C1796.84 1319.25 1800.56 1311.53 1806.47 1305.86C1812.39 1300.2 1820.09 1296.99 1828.12 1296.85L1829.4 1281.16C1817.27 1281.4 1805.65 1286.26 1796.73 1294.82C1787.81 1303.39 1782.2 1315.06 1780.98 1327.64C1780.35 1333.56 1780.94 1339.54 1782.71 1345.2C1784.47 1350.86 1787.37 1356.06 1791.22 1360.45C1795.06 1364.85 1799.76 1368.34 1804.99 1370.7C1810.23 1373.06 1815.89 1374.23 1821.6 1374.12C1833.73 1373.9 1845.37 1369.05 1854.3 1360.48C1863.24 1351.92 1868.85 1340.23 1870.07 1327.64L1855.03 1327.59Z" fill="white"/>
<path d="M1875.37 1320.79C1875.99 1314.87 1875.4 1308.88 1873.64 1303.22C1871.87 1297.56 1868.96 1292.35 1865.11 1287.95C1861.26 1283.56 1856.56 1280.06 1851.31 1277.71C1846.07 1275.36 1840.4 1274.2 1834.69 1274.31L1833.19 1289.82C1836.96 1289.76 1840.7 1290.53 1844.17 1292.09C1847.64 1293.65 1850.74 1295.96 1853.29 1298.86C1855.83 1301.77 1857.76 1305.21 1858.93 1308.95C1860.1 1312.69 1860.5 1316.64 1860.1 1320.56L1875.37 1320.79Z" fill="#04D5E3"/>
<path d="M2066.38 1225.5L2063.48 1260.07C2071.77 1259.91 2080 1261.6 2087.62 1265.02C2095.25 1268.44 2102.08 1273.51 2107.67 1279.9C2113.27 1286.28 2117.49 1293.84 2120.06 1302.06C2122.64 1310.29 2123.5 1318.99 2122.6 1327.59C2120.82 1345.88 2112.66 1362.86 2099.68 1375.31C2086.71 1387.76 2069.8 1394.82 2052.17 1395.16C2043.87 1395.32 2035.62 1393.64 2028 1390.23C2020.37 1386.81 2013.53 1381.73 2007.93 1375.33C2002.33 1368.94 1998.11 1361.37 1995.54 1353.14C1992.98 1344.9 1992.13 1336.19 1993.05 1327.59C1994.73 1309.24 2002.92 1292.21 2016.01 1279.83L1994.66 1255.43C1974.87 1274.13 1962.47 1299.86 1959.9 1327.59C1958.53 1340.57 1959.82 1353.71 1963.7 1366.13C1967.57 1378.55 1973.94 1389.97 1982.37 1399.63C1990.8 1409.29 2001.11 1416.97 2012.6 1422.16C2024.1 1427.35 2036.52 1429.93 2049.05 1429.73C2075.7 1429.22 2101.25 1418.54 2120.87 1399.72C2140.49 1380.9 2152.82 1355.24 2155.53 1327.59C2156.89 1314.61 2155.59 1301.47 2151.71 1289.06C2147.83 1276.64 2141.46 1265.23 2133.03 1255.58C2124.6 1245.92 2114.3 1238.25 2102.81 1233.07C2091.31 1227.88 2078.9 1225.3 2066.38 1225.5Z" fill="#04D5E3"/>
<path opacity="0.7" d="M2066.38 1225.5L2063.48 1260.07C2071.77 1259.91 2080 1261.6 2087.62 1265.02C2095.25 1268.44 2102.08 1273.51 2107.67 1279.9C2113.27 1286.28 2117.49 1293.84 2120.06 1302.06C2122.64 1310.29 2123.5 1318.99 2122.6 1327.59C2120.82 1345.88 2112.66 1362.86 2099.68 1375.31C2086.71 1387.76 2069.8 1394.82 2052.17 1395.16C2043.87 1395.32 2035.62 1393.64 2028 1390.23C2020.37 1386.81 2013.53 1381.73 2007.93 1375.33C2002.33 1368.94 1998.11 1361.37 1995.54 1353.14C1992.98 1344.9 1992.13 1336.19 1993.05 1327.59C1994.73 1309.24 2002.92 1292.21 2016.01 1279.83L1994.66 1255.43C1974.87 1274.13 1962.47 1299.86 1959.9 1327.59C1958.53 1340.57 1959.82 1353.71 1963.7 1366.13C1967.57 1378.55 1973.94 1389.97 1982.37 1399.63C1990.8 1409.29 2001.11 1416.97 2012.6 1422.16C2024.1 1427.35 2036.52 1429.93 2049.05 1429.73C2075.7 1429.22 2101.25 1418.54 2120.87 1399.72C2140.49 1380.9 2152.82 1355.24 2155.53 1327.59C2156.89 1314.61 2155.59 1301.47 2151.71 1289.06C2147.83 1276.64 2141.46 1265.23 2133.03 1255.58C2124.6 1245.92 2114.3 1238.25 2102.81 1233.07C2091.31 1227.88 2078.9 1225.3 2066.38 1225.5Z" fill="white"/>
<path d="M1988.26 1236.48L2009.65 1260.94C2022.53 1248.36 2039.48 1241.28 2057.13 1241.13L2060.02 1206.62C2033.36 1206.85 2007.75 1217.51 1988.26 1236.48Z" fill="#04D5E3"/>
<path opacity="0.3" d="M1988.26 1236.48L2009.65 1260.94C2022.53 1248.36 2039.48 1241.28 2057.13 1241.13L2060.02 1206.62C2033.36 1206.85 2007.75 1217.51 1988.26 1236.48Z" fill="black"/>
<path d="M2061.97 1278.2L2060.58 1294.7C2064.55 1294.62 2068.49 1295.42 2072.14 1297.05C2075.79 1298.68 2079.06 1301.11 2081.73 1304.17C2084.41 1307.23 2086.43 1310.85 2087.65 1314.79C2088.87 1318.73 2089.28 1322.89 2088.83 1327C2087.98 1335.7 2084.11 1343.78 2077.96 1349.71C2071.8 1355.65 2063.78 1359.04 2055.4 1359.25C2051.44 1359.33 2047.5 1358.53 2043.86 1356.9C2040.21 1355.27 2036.94 1352.85 2034.27 1349.8C2031.6 1346.75 2029.58 1343.13 2028.35 1339.2C2027.12 1335.27 2026.71 1331.11 2027.15 1327C2027.98 1318.2 2031.96 1310.05 2038.29 1304.17L2028.1 1292.55C2018.59 1301.48 2012.63 1313.79 2011.38 1327.06C2010.72 1333.27 2011.34 1339.56 2013.2 1345.5C2015.05 1351.44 2018.1 1356.89 2022.14 1361.51C2026.18 1366.12 2031.12 1369.78 2036.62 1372.25C2042.13 1374.72 2048.07 1375.93 2054.06 1375.81C2066.79 1375.58 2079 1370.49 2088.37 1361.51C2097.75 1352.52 2103.64 1340.27 2104.93 1327.06C2105.6 1320.82 2104.98 1314.5 2103.12 1308.53C2101.25 1302.56 2098.18 1297.08 2094.11 1292.45C2090.04 1287.82 2085.06 1284.15 2079.52 1281.69C2073.98 1279.24 2068 1278.05 2061.97 1278.2Z" fill="#04D5E3"/>
<path d="M2024.64 1283.2L2034.84 1294.82C2041.03 1288.83 2049.13 1285.45 2057.57 1285.35L2058.91 1268.85C2046.17 1268.99 2033.94 1274.11 2024.64 1283.2Z" fill="#04D5E3"/>
<path opacity="0.3" d="M2024.64 1283.2L2034.84 1294.82C2041.03 1288.83 2049.13 1285.45 2057.57 1285.35L2058.91 1268.85C2046.17 1268.99 2033.94 1274.11 2024.64 1283.2Z" fill="black"/>
<path d="M1772.9 1474.4C1771.56 1474.43 1770.24 1474.16 1769.01 1473.61C1767.79 1473.06 1766.69 1472.24 1765.78 1471.21C1764.88 1470.18 1764.2 1468.97 1763.79 1467.65C1763.37 1466.32 1763.23 1464.92 1763.37 1463.54C1763.65 1460.63 1764.94 1457.92 1766.99 1455.93C1769.04 1453.93 1771.71 1452.77 1774.51 1452.67C1775.85 1452.65 1777.17 1452.92 1778.4 1453.47C1779.63 1454.02 1780.73 1454.84 1781.63 1455.87C1782.53 1456.89 1783.21 1458.11 1783.63 1459.43C1784.04 1460.75 1784.19 1462.15 1784.04 1463.54C1783.75 1466.45 1782.46 1469.14 1780.41 1471.14C1778.37 1473.13 1775.7 1474.29 1772.9 1474.4Z" fill="white"/>
<path d="M1879.77 1469.06H1801.76C1801.08 1469.08 1800.4 1468.95 1799.78 1468.67C1799.15 1468.4 1798.58 1467.98 1798.12 1467.46C1797.66 1466.93 1797.32 1466.31 1797.11 1465.64C1796.9 1464.96 1796.83 1464.24 1796.91 1463.54C1796.91 1462 1797.5 1460.52 1798.55 1459.43C1799.59 1458.34 1801.01 1457.73 1802.49 1457.73H1880.49C1881.2 1457.7 1881.91 1457.84 1882.56 1458.13C1883.21 1458.42 1883.79 1458.87 1884.25 1459.42C1884.72 1459.98 1885.06 1460.64 1885.25 1461.35C1885.44 1462.06 1885.47 1462.81 1885.34 1463.54C1885.27 1465.03 1884.65 1466.43 1883.61 1467.46C1882.58 1468.49 1881.2 1469.06 1879.77 1469.06Z" fill="white"/>
<path d="M1858.32 1490.85H1800.03C1799.33 1490.86 1798.63 1490.72 1797.98 1490.42C1797.34 1490.13 1796.76 1489.69 1796.3 1489.13C1795.84 1488.58 1795.5 1487.92 1795.3 1487.21C1795.11 1486.51 1795.07 1485.76 1795.19 1485.04C1795.27 1483.52 1795.88 1482.09 1796.91 1481.02C1797.94 1479.95 1799.31 1479.31 1800.76 1479.23H1859.1C1859.8 1479.21 1860.5 1479.35 1861.15 1479.65C1861.8 1479.95 1862.37 1480.39 1862.83 1480.94C1863.3 1481.5 1863.64 1482.15 1863.83 1482.86C1864.02 1483.57 1864.06 1484.31 1863.95 1485.04C1863.85 1486.56 1863.23 1487.99 1862.19 1489.06C1861.15 1490.13 1859.78 1490.76 1858.32 1490.85Z" fill="white"/>
<path d="M1998.79 1474.4C1997.45 1474.44 1996.12 1474.17 1994.88 1473.62C1993.65 1473.08 1992.54 1472.26 1991.64 1471.23C1990.73 1470.21 1990.04 1468.99 1989.62 1467.66C1989.2 1466.33 1989.06 1464.93 1989.2 1463.54C1989.49 1460.63 1990.77 1457.92 1992.82 1455.93C1994.87 1453.93 1997.54 1452.77 2000.35 1452.67C2001.68 1452.65 2003.01 1452.92 2004.23 1453.47C2005.46 1454.02 2006.56 1454.84 2007.46 1455.87C2008.36 1456.89 2009.04 1458.11 2009.46 1459.43C2009.88 1460.75 2010.02 1462.15 2009.88 1463.54C2009.58 1466.44 2008.3 1469.13 2006.27 1471.12C2004.23 1473.12 2001.58 1474.28 1998.79 1474.4Z" fill="white"/>
<path d="M2105.66 1469.06H2027.65C2026.97 1469.07 2026.3 1468.93 2025.68 1468.65C2025.05 1468.37 2024.49 1467.96 2024.03 1467.44C2023.58 1466.92 2023.23 1466.3 2023.02 1465.63C2022.81 1464.95 2022.73 1464.24 2022.8 1463.54C2022.88 1462.03 2023.5 1460.6 2024.52 1459.52C2025.55 1458.45 2026.92 1457.81 2028.38 1457.73H2106.38C2107.09 1457.7 2107.8 1457.84 2108.45 1458.13C2109.1 1458.42 2109.68 1458.87 2110.14 1459.42C2110.61 1459.98 2110.95 1460.64 2111.14 1461.35C2111.32 1462.06 2111.36 1462.81 2111.23 1463.54C2111.16 1465.03 2110.54 1466.43 2109.5 1467.46C2108.47 1468.49 2107.09 1469.06 2105.66 1469.06Z" fill="white"/>
<path d="M2084.21 1490.85H2025.92C2025.22 1490.86 2024.52 1490.72 2023.87 1490.42C2023.23 1490.13 2022.65 1489.69 2022.19 1489.13C2021.73 1488.58 2021.39 1487.92 2021.19 1487.21C2021 1486.51 2020.96 1485.76 2021.08 1485.04C2021.16 1483.52 2021.77 1482.09 2022.8 1481.02C2023.82 1479.95 2025.2 1479.31 2026.65 1479.23H2084.99C2085.69 1479.21 2086.39 1479.35 2087.04 1479.65C2087.68 1479.95 2088.26 1480.39 2088.72 1480.94C2089.18 1481.5 2089.52 1482.15 2089.72 1482.86C2089.91 1483.57 2089.95 1484.31 2089.83 1485.04C2089.74 1486.56 2089.12 1487.99 2088.08 1489.06C2087.04 1490.13 2085.66 1490.76 2084.21 1490.85Z" fill="white"/>
<path d="M1612.59 1651.96H1017.34C1012.79 1652.04 1008.28 1651.12 1004.1 1649.24C999.92 1647.37 996.173 1644.59 993.105 1641.09C990.037 1637.59 987.72 1633.45 986.306 1628.94C984.893 1624.43 984.415 1619.66 984.907 1614.95L1018 1220.62C1018.98 1210.59 1023.45 1201.28 1030.57 1194.45C1037.68 1187.62 1046.95 1183.74 1056.62 1183.56H1651.93C1656.48 1183.48 1660.99 1184.41 1665.17 1186.29C1669.34 1188.17 1673.08 1190.96 1676.15 1194.46C1679.21 1197.97 1681.52 1202.12 1682.93 1206.63C1684.33 1211.14 1684.8 1215.91 1684.3 1220.62L1651.26 1615.18C1650.22 1625.17 1645.71 1634.42 1638.59 1641.19C1631.47 1647.96 1622.23 1651.79 1612.59 1651.96Z" fill="#04D5E3"/>
<path opacity="0.7" d="M1612.59 1651.96H1017.34C1012.79 1652.04 1008.28 1651.12 1004.1 1649.24C999.92 1647.37 996.173 1644.59 993.105 1641.09C990.037 1637.59 987.72 1633.45 986.306 1628.94C984.893 1624.43 984.415 1619.66 984.907 1614.95L1018 1220.62C1018.98 1210.59 1023.45 1201.28 1030.57 1194.45C1037.68 1187.62 1046.95 1183.74 1056.62 1183.56H1651.93C1656.48 1183.48 1660.99 1184.41 1665.17 1186.29C1669.34 1188.17 1673.08 1190.96 1676.15 1194.46C1679.21 1197.97 1681.52 1202.12 1682.93 1206.63C1684.33 1211.14 1684.8 1215.91 1684.3 1220.62L1651.26 1615.18C1650.22 1625.17 1645.71 1634.42 1638.59 1641.19C1631.47 1647.96 1622.23 1651.79 1612.59 1651.96Z" fill="white"/>
<path d="M1042.19 1534.07H1027.09L1047.31 1293.07H1062.41L1042.19 1534.07Z" fill="#04D5E3"/>
<path d="M1063.64 1534.07H1048.48L1063.36 1356.81H1078.52L1063.64 1534.07Z" fill="#263238"/>
<path d="M1097.63 1534.07H1082.53L1092.22 1418.22H1107.32L1097.63 1534.07Z" fill="#04D5E3"/>
<path d="M1119.02 1534.07H1103.92L1115.51 1395.91H1130.61L1119.02 1534.07Z" fill="#263238"/>
<path d="M1153.07 1534.07H1137.91L1155.19 1328.17H1170.34L1153.07 1534.07Z" fill="#04D5E3"/>
<path d="M1174.47 1534.07H1159.31L1174.24 1356.81H1189.34L1174.47 1534.07Z" fill="#263238"/>
<path d="M1208.46 1534.07H1193.35L1208.23 1356.81H1223.33L1208.46 1534.07Z" fill="#04D5E3"/>
<path d="M1229.85 1534.07H1214.75L1233.36 1312.13H1248.46L1229.85 1534.07Z" fill="#263238"/>
<path d="M1263.9 1534.07H1248.74L1258.88 1413.57H1273.98L1263.9 1534.07Z" fill="#04D5E3"/>
<path d="M1285.29 1534.07H1270.19L1285.07 1356.81H1300.17L1285.29 1534.07Z" fill="#263238"/>
<path d="M1319.28 1534.07H1304.18L1321.46 1328.17H1336.56L1319.28 1534.07Z" fill="#04D5E3"/>
<path d="M1340.73 1534.07H1325.58L1346.53 1284.24H1361.69L1340.73 1534.07Z" fill="#263238"/>
<path d="M1374.72 1534.07H1359.62L1365.08 1468.48H1380.24L1374.72 1534.07Z" fill="#04D5E3"/>
<path d="M1396.12 1534.07H1381.02L1391.22 1412.64H1406.32L1396.12 1534.07Z" fill="#263238"/>
<path d="M1430.11 1534.07H1415.01L1424.76 1418.22H1439.86L1430.11 1534.07Z" fill="#04D5E3"/>
<path d="M1451.56 1534.07H1436.41L1455.52 1306.55H1470.62L1451.56 1534.07Z" fill="#263238"/>
<path d="M1485.55 1534.07H1470.45L1482.99 1384.76H1498.09L1485.55 1534.07Z" fill="#04D5E3"/>
<path d="M1506.95 1534.07H1491.85L1516.09 1245.14H1531.19L1506.95 1534.07Z" fill="#263238"/>
<path d="M1540.99 1534.07H1525.84L1542.11 1340.08H1557.26L1540.99 1534.07Z" fill="#04D5E3"/>
<path d="M1562.39 1534.07H1547.29L1562.17 1356.81H1577.27L1562.39 1534.07Z" fill="#263238"/>
<path d="M1596.38 1534.07H1581.28L1601.78 1289.82H1616.88L1596.38 1534.07Z" fill="#04D5E3"/>
<path d="M1617.77 1534.07H1602.67L1614.77 1390.33H1629.87L1617.77 1534.07Z" fill="#263238"/>
<path d="M1036.39 1599.84C1034.49 1599.89 1032.6 1599.51 1030.85 1598.73C1029.09 1597.95 1027.52 1596.79 1026.24 1595.33C1024.95 1593.86 1023.98 1592.13 1023.38 1590.24C1022.79 1588.36 1022.59 1586.36 1022.8 1584.39C1023.24 1580.2 1025.12 1576.33 1028.09 1573.47C1031.06 1570.62 1034.92 1568.99 1038.96 1568.87C1040.86 1568.83 1042.76 1569.21 1044.52 1569.99C1046.27 1570.77 1047.85 1571.94 1049.13 1573.41C1050.42 1574.88 1051.39 1576.62 1051.98 1578.51C1052.57 1580.41 1052.77 1582.41 1052.55 1584.39C1052.1 1588.56 1050.21 1592.42 1047.24 1595.26C1044.27 1598.1 1040.42 1599.73 1036.39 1599.84Z" fill="#263238"/>
<path d="M1188.45 1592.23H1077.62C1076.66 1592.25 1075.7 1592.06 1074.81 1591.66C1073.92 1591.27 1073.12 1590.68 1072.47 1589.94C1071.81 1589.2 1071.32 1588.32 1071.02 1587.36C1070.72 1586.4 1070.61 1585.39 1070.72 1584.39C1070.93 1582.25 1071.89 1580.27 1073.41 1578.81C1074.93 1577.36 1076.9 1576.53 1078.96 1576.49H1189.79C1190.76 1576.47 1191.72 1576.67 1192.61 1577.07C1193.5 1577.48 1194.29 1578.07 1194.95 1578.82C1195.6 1579.56 1196.09 1580.45 1196.4 1581.41C1196.7 1582.37 1196.8 1583.38 1196.7 1584.39C1196.48 1586.52 1195.52 1588.49 1194 1589.94C1192.48 1591.39 1190.51 1592.2 1188.45 1592.23Z" fill="#263238"/>
<path d="M1158.03 1623.26H1075.01C1074.02 1623.27 1073.05 1623.07 1072.15 1622.66C1071.25 1622.25 1070.44 1621.63 1069.79 1620.87C1069.14 1620.1 1068.66 1619.19 1068.37 1618.21C1068.09 1617.23 1068.02 1616.2 1068.15 1615.18C1068.34 1613.04 1069.29 1611.05 1070.8 1609.6C1072.31 1608.14 1074.28 1607.31 1076.34 1607.28H1159.31C1160.28 1607.26 1161.25 1607.45 1162.14 1607.85C1163.03 1608.25 1163.84 1608.84 1164.49 1609.59C1165.15 1610.34 1165.64 1611.22 1165.94 1612.19C1166.23 1613.15 1166.33 1614.17 1166.22 1615.18C1166.05 1617.34 1165.13 1619.37 1163.61 1620.86C1162.1 1622.35 1160.11 1623.21 1158.03 1623.26Z" fill="#263238"/>
<path opacity="0.3" d="M1188.45 1592.23H1077.62C1076.66 1592.25 1075.7 1592.06 1074.81 1591.66C1073.92 1591.27 1073.12 1590.68 1072.47 1589.94C1071.81 1589.2 1071.32 1588.32 1071.02 1587.36C1070.72 1586.4 1070.61 1585.39 1070.72 1584.39C1070.93 1582.25 1071.89 1580.27 1073.41 1578.81C1074.93 1577.36 1076.9 1576.53 1078.96 1576.49H1189.79C1190.76 1576.47 1191.72 1576.67 1192.61 1577.07C1193.5 1577.48 1194.29 1578.07 1194.95 1578.82C1195.6 1579.56 1196.09 1580.45 1196.4 1581.41C1196.7 1582.37 1196.8 1583.38 1196.7 1584.39C1196.48 1586.52 1195.52 1588.49 1194 1589.94C1192.48 1591.39 1190.51 1592.2 1188.45 1592.23Z" fill="white"/>
<path opacity="0.3" d="M1158.03 1623.26H1075.01C1074.02 1623.27 1073.05 1623.07 1072.15 1622.66C1071.25 1622.25 1070.44 1621.63 1069.79 1620.87C1069.14 1620.1 1068.66 1619.19 1068.37 1618.21C1068.09 1617.23 1068.02 1616.2 1068.15 1615.18C1068.34 1613.04 1069.29 1611.05 1070.8 1609.6C1072.31 1608.14 1074.28 1607.31 1076.34 1607.28H1159.31C1160.28 1607.26 1161.25 1607.45 1162.14 1607.85C1163.03 1608.25 1163.84 1608.84 1164.49 1609.59C1165.15 1610.34 1165.64 1611.22 1165.94 1612.19C1166.23 1613.15 1166.33 1614.17 1166.22 1615.18C1166.05 1617.34 1165.13 1619.37 1163.61 1620.86C1162.1 1622.35 1160.11 1623.21 1158.03 1623.26Z" fill="white"/>
<path d="M1255.59 1599.84C1253.69 1599.88 1251.81 1599.49 1250.06 1598.71C1248.31 1597.93 1246.74 1596.77 1245.46 1595.31C1244.17 1593.85 1243.2 1592.12 1242.6 1590.23C1242.01 1588.35 1241.8 1586.36 1242 1584.39C1242.44 1580.2 1244.32 1576.33 1247.29 1573.47C1250.26 1570.62 1254.12 1568.99 1258.16 1568.87C1260.07 1568.83 1261.96 1569.21 1263.72 1569.99C1265.47 1570.77 1267.05 1571.94 1268.34 1573.41C1269.63 1574.88 1270.6 1576.62 1271.19 1578.51C1271.78 1580.41 1271.97 1582.41 1271.75 1584.39C1271.3 1588.56 1269.41 1592.42 1266.44 1595.26C1263.47 1598.1 1259.62 1599.73 1255.59 1599.84Z" fill="#04D5E3"/>
<path opacity="0.3" d="M1255.59 1599.84C1253.69 1599.88 1251.81 1599.49 1250.06 1598.71C1248.31 1597.93 1246.74 1596.77 1245.46 1595.31C1244.17 1593.85 1243.2 1592.12 1242.6 1590.23C1242.01 1588.35 1241.8 1586.36 1242 1584.39C1242.44 1580.2 1244.32 1576.33 1247.29 1573.47C1250.26 1570.62 1254.12 1568.99 1258.16 1568.87C1260.07 1568.83 1261.96 1569.21 1263.72 1569.99C1265.47 1570.77 1267.05 1571.94 1268.34 1573.41C1269.63 1574.88 1270.6 1576.62 1271.19 1578.51C1271.78 1580.41 1271.97 1582.41 1271.75 1584.39C1271.3 1588.56 1269.41 1592.42 1266.44 1595.26C1263.47 1598.1 1259.62 1599.73 1255.59 1599.84Z" fill="black"/>
<path d="M1407.6 1592.23H1296.77C1295.81 1592.25 1294.85 1592.06 1293.96 1591.66C1293.07 1591.27 1292.27 1590.68 1291.61 1589.94C1290.96 1589.2 1290.47 1588.32 1290.16 1587.36C1289.86 1586.4 1289.76 1585.39 1289.86 1584.39C1290.08 1582.25 1291.04 1580.27 1292.55 1578.81C1294.07 1577.36 1296.05 1576.53 1298.11 1576.49H1408.94C1409.91 1576.47 1410.87 1576.67 1411.76 1577.07C1412.64 1577.48 1413.44 1578.07 1414.09 1578.82C1414.75 1579.56 1415.24 1580.45 1415.54 1581.41C1415.84 1582.37 1415.95 1583.38 1415.85 1584.39C1415.63 1586.52 1414.67 1588.49 1413.15 1589.94C1411.63 1591.39 1409.66 1592.2 1407.6 1592.23Z" fill="#263238"/>
<path d="M1377.18 1623.26H1294.21C1293.21 1623.31 1292.21 1623.13 1291.28 1622.73C1290.35 1622.34 1289.52 1621.73 1288.84 1620.96C1288.17 1620.19 1287.66 1619.27 1287.37 1618.27C1287.07 1617.27 1286.99 1616.22 1287.13 1615.18C1287.32 1613.04 1288.27 1611.05 1289.78 1609.6C1291.29 1608.14 1293.26 1607.31 1295.32 1607.28H1378.29C1379.26 1607.26 1380.23 1607.45 1381.12 1607.85C1382.01 1608.25 1382.82 1608.84 1383.47 1609.59C1384.12 1610.34 1384.62 1611.22 1384.92 1612.19C1385.21 1613.15 1385.31 1614.17 1385.2 1615.18C1385.05 1617.32 1384.15 1619.33 1382.67 1620.82C1381.19 1622.31 1379.23 1623.18 1377.18 1623.26Z" fill="#263238"/>
<path opacity="0.3" d="M1407.6 1592.23H1296.77C1295.81 1592.25 1294.85 1592.06 1293.96 1591.66C1293.07 1591.27 1292.27 1590.68 1291.61 1589.94C1290.96 1589.2 1290.47 1588.32 1290.16 1587.36C1289.86 1586.4 1289.76 1585.39 1289.86 1584.39C1290.08 1582.25 1291.04 1580.27 1292.55 1578.81C1294.07 1577.36 1296.05 1576.53 1298.11 1576.49H1408.94C1409.91 1576.47 1410.87 1576.67 1411.76 1577.07C1412.64 1577.48 1413.44 1578.07 1414.09 1578.82C1414.75 1579.56 1415.24 1580.45 1415.54 1581.41C1415.84 1582.37 1415.95 1583.38 1415.85 1584.39C1415.63 1586.52 1414.67 1588.49 1413.15 1589.94C1411.63 1591.39 1409.66 1592.2 1407.6 1592.23Z" fill="white"/>
<path opacity="0.3" d="M1377.18 1623.26H1294.21C1293.21 1623.31 1292.21 1623.13 1291.28 1622.73C1290.35 1622.34 1289.52 1621.73 1288.84 1620.96C1288.17 1620.19 1287.66 1619.27 1287.37 1618.27C1287.07 1617.27 1286.99 1616.22 1287.13 1615.18C1287.32 1613.04 1288.27 1611.05 1289.78 1609.6C1291.29 1608.14 1293.26 1607.31 1295.32 1607.28H1378.29C1379.26 1607.26 1380.23 1607.45 1381.12 1607.85C1382.01 1608.25 1382.82 1608.84 1383.47 1609.59C1384.12 1610.34 1384.62 1611.22 1384.92 1612.19C1385.21 1613.15 1385.31 1614.17 1385.2 1615.18C1385.05 1617.32 1384.15 1619.33 1382.67 1620.82C1381.19 1622.31 1379.23 1623.18 1377.18 1623.26Z" fill="white"/>
<path d="M1474.74 1599.84C1472.84 1599.88 1470.96 1599.49 1469.21 1598.71C1467.47 1597.93 1465.9 1596.77 1464.62 1595.31C1463.34 1593.84 1462.37 1592.11 1461.78 1590.23C1461.19 1588.35 1461 1586.36 1461.2 1584.39C1461.64 1580.2 1463.52 1576.33 1466.49 1573.48C1469.46 1570.62 1473.32 1568.99 1477.36 1568.87C1479.26 1568.84 1481.15 1569.22 1482.9 1570.01C1484.65 1570.8 1486.22 1571.96 1487.5 1573.43C1488.78 1574.9 1489.75 1576.64 1490.34 1578.53C1490.92 1580.42 1491.11 1582.41 1490.9 1584.39C1490.44 1588.56 1488.56 1592.42 1485.59 1595.26C1482.62 1598.1 1478.77 1599.73 1474.74 1599.84Z" fill="#04D5E3"/>
<path d="M1627.02 1592.23H1515.92C1514.95 1592.25 1514 1592.06 1513.11 1591.67C1512.22 1591.27 1511.43 1590.68 1510.78 1589.94C1510.13 1589.19 1509.64 1588.31 1509.34 1587.36C1509.05 1586.4 1508.95 1585.39 1509.06 1584.39C1509.26 1582.25 1510.2 1580.26 1511.71 1578.8C1513.22 1577.34 1515.2 1576.52 1517.26 1576.49H1628.08C1629.05 1576.47 1630.01 1576.67 1630.9 1577.07C1631.79 1577.48 1632.59 1578.07 1633.24 1578.82C1633.89 1579.56 1634.39 1580.45 1634.69 1581.41C1634.99 1582.37 1635.09 1583.38 1634.99 1584.39C1634.78 1586.47 1633.86 1588.41 1632.4 1589.85C1630.94 1591.29 1629.03 1592.13 1627.02 1592.23Z" fill="#263238"/>
<path d="M1596.32 1623.26H1513.36C1512.38 1623.28 1511.42 1623.09 1510.52 1622.69C1509.63 1622.29 1508.83 1621.69 1508.18 1620.95C1507.52 1620.2 1507.03 1619.31 1506.73 1618.35C1506.43 1617.38 1506.33 1616.36 1506.45 1615.35C1506.64 1613.22 1507.58 1611.23 1509.09 1609.77C1510.6 1608.31 1512.58 1607.49 1514.64 1607.45H1597.66C1598.63 1607.41 1599.6 1607.58 1600.5 1607.96C1601.4 1608.33 1602.21 1608.91 1602.88 1609.64C1603.55 1610.37 1604.07 1611.24 1604.39 1612.2C1604.7 1613.16 1604.82 1614.17 1604.74 1615.18C1604.58 1617.39 1603.62 1619.45 1602.06 1620.95C1600.5 1622.45 1598.45 1623.28 1596.32 1623.26Z" fill="#263238"/>
<path opacity="0.3" d="M1627.02 1592.23H1515.92C1514.95 1592.25 1514 1592.06 1513.11 1591.67C1512.22 1591.27 1511.43 1590.68 1510.78 1589.94C1510.13 1589.19 1509.64 1588.31 1509.34 1587.36C1509.05 1586.4 1508.95 1585.39 1509.06 1584.39C1509.26 1582.25 1510.2 1580.26 1511.71 1578.8C1513.22 1577.34 1515.2 1576.52 1517.26 1576.49H1628.08C1629.05 1576.47 1630.01 1576.67 1630.9 1577.07C1631.79 1577.48 1632.59 1578.07 1633.24 1578.82C1633.89 1579.56 1634.39 1580.45 1634.69 1581.41C1634.99 1582.37 1635.09 1583.38 1634.99 1584.39C1634.78 1586.47 1633.86 1588.41 1632.4 1589.85C1630.94 1591.29 1629.03 1592.13 1627.02 1592.23Z" fill="white"/>
<path opacity="0.3" d="M1596.32 1623.26H1513.36C1512.38 1623.28 1511.42 1623.09 1510.52 1622.69C1509.63 1622.29 1508.83 1621.69 1508.18 1620.95C1507.52 1620.2 1507.03 1619.31 1506.73 1618.35C1506.43 1617.38 1506.33 1616.36 1506.45 1615.35C1506.64 1613.22 1507.58 1611.23 1509.09 1609.77C1510.6 1608.31 1512.58 1607.49 1514.64 1607.45H1597.66C1598.63 1607.41 1599.6 1607.58 1600.5 1607.96C1601.4 1608.33 1602.21 1608.91 1602.88 1609.64C1603.55 1610.37 1604.07 1611.24 1604.39 1612.2C1604.7 1613.16 1604.82 1614.17 1604.74 1615.18C1604.58 1617.39 1603.62 1619.45 1602.06 1620.95C1600.5 1622.45 1598.45 1623.28 1596.32 1623.26Z" fill="white"/>
<path d="M2216.32 1146.49H1870.19C1865.64 1146.57 1861.13 1145.65 1856.95 1143.77C1852.77 1141.9 1849.02 1139.12 1845.96 1135.62C1842.89 1132.12 1840.57 1127.98 1839.16 1123.47C1837.74 1118.96 1837.27 1114.19 1837.76 1109.48L1856.14 890.266C1857.12 880.24 1861.6 870.936 1868.71 864.116C1875.83 857.295 1885.09 853.432 1894.76 853.256H2240.89C2245.44 853.171 2249.95 854.096 2254.13 855.97C2258.31 857.844 2262.05 860.624 2265.12 864.125C2268.19 867.626 2270.51 871.767 2271.92 876.275C2273.33 880.782 2273.81 885.552 2273.32 890.266L2254.93 1109.71C2253.9 1119.69 2249.41 1128.94 2242.3 1135.71C2235.19 1142.49 2225.95 1146.32 2216.32 1146.49Z" fill="#04D5E3"/>
<path d="M2019.79 985.782C2018.02 1003.86 2009.96 1020.63 1997.14 1032.94C1984.32 1045.25 1967.62 1052.24 1950.2 1052.6C1942 1052.75 1933.86 1051.07 1926.32 1047.69C1918.78 1044.3 1912.03 1039.28 1906.5 1032.96C1900.97 1026.64 1896.79 1019.16 1894.25 1011.03C1891.71 1002.89 1890.85 994.287 1891.75 985.782C1893.51 967.697 1901.56 950.91 1914.38 938.598C1927.21 926.285 1943.91 919.301 1961.34 918.967C1969.55 918.817 1977.69 920.491 1985.22 923.877C1992.76 927.263 1999.52 932.283 2005.05 938.604C2010.58 944.925 2014.75 952.402 2017.29 960.537C2019.84 968.671 2020.69 977.278 2019.79 985.782Z" fill="#04D5E3"/>
<path opacity="0.7" d="M2019.79 985.782C2018.02 1003.86 2009.96 1020.63 1997.14 1032.94C1984.32 1045.25 1967.62 1052.24 1950.2 1052.6C1942 1052.75 1933.86 1051.07 1926.32 1047.69C1918.78 1044.3 1912.03 1039.28 1906.5 1032.96C1900.97 1026.64 1896.79 1019.16 1894.25 1011.03C1891.71 1002.89 1890.85 994.287 1891.75 985.782C1893.51 967.697 1901.56 950.91 1914.38 938.598C1927.21 926.285 1943.91 919.301 1961.34 918.967C1969.55 918.817 1977.69 920.491 1985.22 923.877C1992.76 927.263 1999.52 932.283 2005.05 938.604C2010.58 944.925 2014.75 952.402 2017.29 960.537C2019.84 968.671 2020.69 977.278 2019.79 985.782Z" fill="white"/>
<path d="M1975.11 973.93C1973.88 988.571 1968.53 1000.42 1954.49 1000.42C1940.45 1000.42 1937.05 988.804 1938.28 973.93C1939.5 959.057 1944.91 947.437 1958.95 947.437C1972.99 947.437 1976.33 959.289 1975.11 973.93Z" fill="#263238"/>
<path d="M1953.77 1008.67C1924.4 1008.67 1908.47 1015.47 1900.94 1025.46C1906.29 1033.93 1913.59 1040.85 1922.18 1045.59C1930.77 1050.34 1940.37 1052.74 1950.09 1052.6C1960.4 1052.46 1970.56 1049.95 1979.84 1045.26C1989.12 1040.57 1997.3 1033.82 2003.8 1025.46C1997.95 1015.47 1983.19 1008.67 1953.77 1008.67Z" fill="#263238"/>
<path d="M2170.74 911.182H2066.71C2065.58 911.206 2064.46 910.979 2063.43 910.514C2062.39 910.05 2061.46 909.36 2060.7 908.491C2059.94 907.622 2059.37 906.593 2059.02 905.474C2058.67 904.355 2058.56 903.171 2058.69 902.002C2058.93 899.515 2060.04 897.208 2061.81 895.516C2063.57 893.825 2065.87 892.866 2068.27 892.823H2172.3C2173.43 892.798 2174.55 893.026 2175.58 893.49C2176.62 893.954 2177.55 894.644 2178.31 895.514C2179.07 896.383 2179.64 897.412 2179.99 898.531C2180.34 899.65 2180.45 900.834 2180.32 902.002C2180.09 904.494 2178.98 906.809 2177.22 908.503C2175.45 910.197 2173.14 911.151 2170.74 911.182Z" fill="white"/>
<path d="M2198.49 978.985H2061.03C2059.9 979.009 2058.78 978.781 2057.74 978.317C2056.71 977.853 2055.78 977.163 2055.02 976.294C2054.26 975.424 2053.68 974.396 2053.34 973.277C2052.99 972.157 2052.88 970.974 2053 969.805C2053.25 967.312 2054.36 964.998 2056.12 963.297C2057.89 961.596 2060.18 960.625 2062.59 960.567H2200.05C2201.18 960.551 2202.3 960.787 2203.34 961.258C2204.37 961.728 2205.3 962.424 2206.06 963.297C2206.82 964.171 2207.39 965.203 2207.74 966.325C2208.08 967.447 2208.2 968.634 2208.07 969.805C2207.84 972.297 2206.73 974.612 2204.96 976.306C2203.2 978 2200.89 978.954 2198.49 978.985Z" fill="white"/>
<path d="M2223.51 1012.86H2058.19C2057.06 1012.88 2055.94 1012.65 2054.9 1012.19C2053.86 1011.73 2052.94 1011.04 2052.18 1010.17C2051.42 1009.3 2050.84 1008.27 2050.5 1007.15C2050.15 1006.03 2050.03 1004.85 2050.16 1003.68C2050.41 1001.19 2051.52 998.882 2053.28 997.191C2055.05 995.499 2057.35 994.541 2059.75 994.497H2225.07C2226.19 994.473 2227.31 994.701 2228.35 995.165C2229.39 995.629 2230.32 996.319 2231.08 997.188C2231.84 998.058 2232.41 999.087 2232.76 1000.21C2233.1 1001.32 2233.22 1002.51 2233.09 1003.68C2232.86 1006.17 2231.75 1008.48 2229.98 1010.18C2228.21 1011.87 2225.91 1012.83 2223.51 1012.86Z" fill="white"/>
<path d="M2209.52 1046.79H2055.34C2054.21 1046.8 2053.09 1046.57 2052.06 1046.1C2051.02 1045.63 2050.09 1044.93 2049.33 1044.06C2048.57 1043.18 2048 1042.15 2047.65 1041.03C2047.31 1039.91 2047.19 1038.72 2047.32 1037.55C2047.58 1035.07 2048.69 1032.77 2050.45 1031.08C2052.22 1029.39 2054.51 1028.43 2056.9 1028.37H2211.08C2212.21 1028.35 2213.33 1028.57 2214.37 1029.04C2215.4 1029.5 2216.33 1030.19 2217.09 1031.06C2217.85 1031.93 2218.42 1032.96 2218.77 1034.08C2219.12 1035.2 2219.23 1036.38 2219.1 1037.55C2218.87 1040.05 2217.77 1042.37 2216 1044.07C2214.23 1045.78 2211.93 1046.74 2209.52 1046.79Z" fill="white"/>
<path d="M2189.8 1080.66H2052.5C2051.37 1080.68 2050.25 1080.46 2049.22 1079.99C2048.18 1079.53 2047.25 1078.84 2046.49 1077.97C2045.73 1077.1 2045.16 1076.07 2044.81 1074.95C2044.46 1073.83 2044.35 1072.65 2044.48 1071.48C2044.71 1068.98 2045.82 1066.66 2047.58 1064.96C2049.35 1063.25 2051.66 1062.29 2054.06 1062.24H2191.52C2192.65 1062.23 2193.77 1062.46 2194.81 1062.93C2195.85 1063.4 2196.78 1064.1 2197.54 1064.97C2198.29 1065.85 2198.87 1066.88 2199.21 1068C2199.56 1069.12 2199.67 1070.31 2199.55 1071.48C2199.3 1074 2198.16 1076.33 2196.36 1078.02C2194.56 1079.72 2192.22 1080.66 2189.8 1080.66Z" fill="white"/>
<path d="M2203.84 1114.53H2049.66C2048.53 1114.56 2047.41 1114.33 2046.38 1113.86C2045.34 1113.4 2044.41 1112.71 2043.65 1111.84C2042.89 1110.97 2042.32 1109.94 2041.97 1108.82C2041.62 1107.7 2041.51 1106.52 2041.64 1105.35C2041.87 1102.86 2042.98 1100.55 2044.75 1098.85C2046.51 1097.16 2048.82 1096.2 2051.22 1096.17H2205.4C2206.53 1096.15 2207.65 1096.38 2208.68 1096.84C2209.72 1097.3 2210.65 1097.99 2211.41 1098.86C2212.17 1099.73 2212.74 1100.76 2213.09 1101.88C2213.43 1103 2213.55 1104.18 2213.42 1105.35C2213.16 1107.83 2212.05 1110.14 2210.29 1111.82C2208.52 1113.51 2206.23 1114.48 2203.84 1114.53Z" fill="white"/>
<path d="M1766.32 1146.49H1170.96C1166.41 1146.57 1161.9 1145.65 1157.72 1143.77C1153.54 1141.9 1149.79 1139.12 1146.73 1135.62C1143.66 1132.12 1141.34 1127.98 1139.93 1123.47C1138.51 1118.96 1138.04 1114.19 1138.53 1109.48L1171.62 715.095C1172.6 705.069 1177.08 695.765 1184.19 688.944C1191.31 682.124 1200.57 678.261 1210.24 678.085H1805.33C1809.87 677.999 1814.38 678.923 1818.56 680.798C1822.73 682.672 1826.48 685.453 1829.54 688.955C1832.61 692.458 1834.92 696.6 1836.32 701.108C1837.73 705.615 1838.2 710.383 1837.7 715.095L1804.88 1109.71C1803.84 1119.68 1799.35 1128.91 1792.26 1135.68C1785.16 1142.45 1775.94 1146.29 1766.32 1146.49Z" fill="#04D5E3"/>
<path opacity="0.7" d="M1766.32 1146.49H1170.96C1166.41 1146.57 1161.9 1145.65 1157.72 1143.77C1153.54 1141.9 1149.79 1139.12 1146.73 1135.62C1143.66 1132.12 1141.34 1127.98 1139.93 1123.47C1138.51 1118.96 1138.04 1114.19 1138.53 1109.48L1171.62 715.095C1172.6 705.069 1177.08 695.765 1184.19 688.944C1191.31 682.124 1200.57 678.261 1210.24 678.085H1805.33C1809.87 677.999 1814.38 678.923 1818.56 680.798C1822.73 682.672 1826.48 685.453 1829.54 688.955C1832.61 692.458 1834.92 696.6 1836.32 701.108C1837.73 705.615 1838.2 710.383 1837.7 715.095L1804.88 1109.71C1803.84 1119.68 1799.35 1128.91 1792.26 1135.68C1785.16 1142.45 1775.94 1146.29 1766.32 1146.49Z" fill="white"/>
<path d="M1825.44 864.063C1813.91 820.662 1795.69 777.204 1769.17 777.204C1719.02 777.204 1694.67 859.008 1668.87 945.694C1646.14 1021.8 1622.62 1100.47 1585.96 1100.47C1539.43 1100.47 1526.67 1003.15 1514.36 909.032C1500.54 803.581 1487.5 703.939 1427.55 703.939C1367.59 703.939 1337.89 803.581 1306.36 909.032C1278.22 1003.15 1249.19 1100.47 1202.6 1100.47C1180.87 1100.47 1160.65 1033.42 1150 973.814L1145.16 1031.91C1156.75 1074.97 1174.86 1117.79 1201.16 1117.79C1261.11 1117.79 1290.87 1018.14 1322.35 912.693C1350.21 818.629 1379.57 721.253 1426.1 721.253C1472.62 721.253 1485.38 818.629 1497.7 912.983C1511.52 1018.43 1524.55 1118.08 1584.51 1118.08C1634.66 1118.08 1659.01 1036.27 1684.81 949.586C1707.54 873.475 1731.05 794.808 1767.77 794.808C1789.67 794.808 1810.06 862.785 1820.59 922.628L1825.44 864.063Z" fill="#04D5E3"/>
<path d="M1445.69 727.033C1455.73 717.004 1456.74 701.094 1447.93 691.498C1439.12 681.902 1423.83 682.253 1413.78 692.282C1403.74 702.312 1402.73 718.222 1411.54 727.818C1420.35 737.414 1435.64 737.063 1445.69 727.033Z" fill="#263238"/>
<path d="M1437.59 718.145C1442.57 713.173 1443.05 705.273 1438.66 700.499C1434.28 695.725 1426.69 695.885 1421.71 700.856C1416.73 705.827 1416.25 713.728 1420.63 718.502C1425.02 723.276 1432.61 723.116 1437.59 718.145Z" fill="#04D5E3"/>
<path d="M1480.37 603.368H1396.79C1392.42 603.456 1388.23 605.205 1385.01 608.286C1381.79 611.367 1379.75 615.568 1379.29 620.101L1377.96 636.021C1377.73 638.151 1377.95 640.307 1378.59 642.344C1379.23 644.381 1380.27 646.253 1381.66 647.836C1383.05 649.419 1384.74 650.676 1386.63 651.524C1388.52 652.371 1390.55 652.791 1392.61 652.753H1420.47L1428.77 665.826C1429.32 666.595 1430.04 667.22 1430.86 667.65C1431.68 668.081 1432.59 668.305 1433.51 668.305C1434.43 668.305 1435.34 668.081 1436.16 667.65C1436.98 667.22 1437.69 666.595 1438.24 665.826L1448.72 652.753H1476.58C1480.94 652.664 1485.13 650.913 1488.34 647.831C1491.55 644.749 1493.57 640.548 1494.02 636.021L1495.36 620.101C1495.58 617.94 1495.36 615.754 1494.7 613.692C1494.04 611.629 1492.97 609.739 1491.54 608.151C1490.12 606.562 1488.39 605.313 1486.46 604.487C1484.53 603.662 1482.45 603.28 1480.37 603.368Z" fill="#04D5E3"/>
<path d="M1473.85 624.401H1397.9C1397.37 624.413 1396.84 624.305 1396.35 624.085C1395.85 623.865 1395.41 623.537 1395.06 623.124C1394.7 622.71 1394.43 622.221 1394.26 621.69C1394.1 621.159 1394.05 620.597 1394.11 620.043C1394.27 618.912 1394.8 617.874 1395.62 617.109C1396.43 616.345 1397.48 615.903 1398.57 615.86H1474.46C1474.99 615.857 1475.52 615.971 1476.01 616.194C1476.5 616.418 1476.93 616.746 1477.29 617.157C1477.65 617.568 1477.92 618.053 1478.08 618.58C1478.25 619.108 1478.31 619.665 1478.25 620.217C1478.12 621.348 1477.6 622.392 1476.79 623.16C1475.99 623.927 1474.94 624.367 1473.85 624.401Z" fill="#263238"/>
<path d="M1431.34 640.204H1396.62C1396.08 640.215 1395.55 640.107 1395.06 639.887C1394.56 639.667 1394.12 639.341 1393.76 638.929C1393.39 638.517 1393.12 638.029 1392.95 637.497C1392.78 636.966 1392.72 636.403 1392.78 635.846C1392.89 634.659 1393.42 633.557 1394.26 632.753C1395.1 631.948 1396.2 631.498 1397.35 631.489H1432C1432.54 631.476 1433.07 631.584 1433.56 631.804C1434.05 632.025 1434.49 632.353 1434.85 632.766C1435.21 633.179 1435.48 633.668 1435.64 634.199C1435.81 634.731 1435.86 635.292 1435.79 635.846C1435.67 637.009 1435.16 638.088 1434.34 638.888C1433.52 639.688 1432.46 640.155 1431.34 640.204Z" fill="#263238"/>
<path d="M1598.2 1115.41C1608.25 1105.38 1609.25 1089.47 1600.44 1079.87C1591.63 1070.28 1576.35 1070.63 1566.3 1080.66C1556.25 1090.69 1555.25 1106.6 1564.06 1116.19C1572.87 1125.79 1588.15 1125.44 1598.2 1115.41Z" fill="#263238"/>
<path d="M1594.2 1098.09C1593.88 1101.47 1592.38 1104.6 1589.99 1106.9C1587.59 1109.2 1584.48 1110.51 1581.22 1110.58C1579.67 1110.65 1578.12 1110.37 1576.68 1109.75C1575.24 1109.14 1573.95 1108.2 1572.89 1107.02C1571.83 1105.83 1571.03 1104.42 1570.54 1102.87C1570.06 1101.33 1569.9 1099.7 1570.08 1098.09C1570.4 1094.71 1571.91 1091.58 1574.3 1089.28C1576.69 1086.97 1579.81 1085.67 1583.06 1085.6C1584.61 1085.53 1586.16 1085.81 1587.6 1086.43C1589.04 1087.04 1590.34 1087.98 1591.4 1089.16C1592.46 1090.35 1593.26 1091.76 1593.74 1093.31C1594.22 1094.85 1594.38 1096.48 1594.2 1098.09Z" fill="#04D5E3"/>
<path d="M1632.93 991.709H1549.35C1544.99 991.798 1540.8 993.549 1537.59 996.631C1534.38 999.713 1532.36 1003.91 1531.91 1008.44L1530.57 1024.3C1530.34 1026.44 1530.55 1028.6 1531.19 1030.64C1531.82 1032.69 1532.87 1034.57 1534.25 1036.16C1535.64 1037.75 1537.34 1039.01 1539.23 1039.86C1541.12 1040.71 1543.17 1041.13 1545.23 1041.09H1572.81L1581.11 1054.17C1581.67 1054.93 1582.39 1055.54 1583.22 1055.96C1584.05 1056.39 1584.95 1056.61 1585.87 1056.61C1586.79 1056.61 1587.7 1056.39 1588.53 1055.96C1589.35 1055.54 1590.08 1054.93 1590.64 1054.17L1601.11 1041.09H1628.7C1633.08 1041.02 1637.28 1039.26 1640.51 1036.17C1643.73 1033.07 1645.76 1028.85 1646.19 1024.3L1647.53 1008.44C1647.75 1006.32 1647.54 1004.17 1646.9 1002.13C1646.26 1000.1 1645.22 998.23 1643.84 996.648C1642.46 995.067 1640.78 993.808 1638.9 992.957C1637.01 992.105 1634.98 991.68 1632.93 991.709Z" fill="#263238"/>
<path d="M1626.41 1012.74H1550.46C1549.93 1012.75 1549.4 1012.65 1548.91 1012.43C1548.42 1012.2 1547.98 1011.88 1547.62 1011.46C1547.26 1011.05 1546.99 1010.56 1546.83 1010.03C1546.66 1009.5 1546.61 1008.94 1546.68 1008.38C1546.78 1007.21 1547.3 1006.11 1548.14 1005.31C1548.97 1004.51 1550.06 1004.05 1551.19 1004.03H1627.02C1627.56 1004.02 1628.08 1004.14 1628.57 1004.36C1629.06 1004.58 1629.49 1004.91 1629.85 1005.32C1630.21 1005.73 1630.48 1006.22 1630.64 1006.75C1630.81 1007.27 1630.87 1007.83 1630.81 1008.38C1630.72 1009.55 1630.22 1010.63 1629.41 1011.43C1628.59 1012.24 1627.53 1012.7 1626.41 1012.74Z" fill="white"/>
<path d="M1583.9 1028.37H1549.02C1548.48 1028.38 1547.95 1028.27 1547.46 1028.05C1546.97 1027.83 1546.53 1027.51 1546.17 1027.09C1545.81 1026.68 1545.54 1026.19 1545.38 1025.66C1545.21 1025.13 1545.16 1024.57 1545.23 1024.01C1545.35 1022.84 1545.87 1021.75 1546.7 1020.95C1547.53 1020.15 1548.61 1019.69 1549.74 1019.66H1584.51C1585.05 1019.64 1585.58 1019.75 1586.07 1019.97C1586.57 1020.19 1587.01 1020.52 1587.37 1020.93C1587.74 1021.34 1588.01 1021.83 1588.18 1022.36C1588.35 1022.89 1588.41 1023.46 1588.35 1024.01C1588.25 1025.18 1587.73 1026.27 1586.91 1027.07C1586.09 1027.87 1585.02 1028.33 1583.9 1028.37Z" fill="white"/>
<path d="M1792.85 784.35C1792.19 791.159 1789.17 797.482 1784.34 802.119C1779.51 806.756 1773.22 809.385 1766.66 809.507C1763.57 809.568 1760.5 808.941 1757.66 807.668C1754.82 806.394 1752.28 804.504 1750.19 802.123C1748.11 799.742 1746.54 796.925 1745.58 793.86C1744.63 790.795 1744.31 787.553 1744.65 784.35C1745.33 777.556 1748.36 771.254 1753.19 766.632C1758.01 762.009 1764.29 759.384 1770.84 759.251C1773.92 759.191 1776.98 759.816 1779.82 761.086C1782.65 762.356 1785.2 764.241 1787.28 766.615C1789.36 768.99 1790.94 771.8 1791.9 774.857C1792.86 777.915 1793.18 781.151 1792.85 784.35Z" fill="#263238"/>
<path d="M1780.7 784.35C1780.37 787.726 1778.87 790.862 1776.48 793.163C1774.09 795.465 1770.97 796.773 1767.72 796.841C1766.16 796.911 1764.61 796.628 1763.17 796.012C1761.74 795.397 1760.44 794.463 1759.38 793.276C1758.32 792.088 1757.52 790.675 1757.04 789.134C1756.55 787.593 1756.39 785.961 1756.57 784.35C1756.91 780.983 1758.42 777.862 1760.81 775.573C1763.2 773.283 1766.31 771.983 1769.56 771.916C1771.1 771.848 1772.65 772.129 1774.08 772.742C1775.52 773.354 1776.81 774.282 1777.87 775.463C1778.93 776.644 1779.73 778.049 1780.22 779.583C1780.7 781.117 1780.87 782.743 1780.7 784.35Z" fill="#04D5E3"/>
<path d="M1819.43 678.085H1735.85C1731.47 678.16 1727.27 679.905 1724.05 682.988C1720.83 686.071 1718.8 690.28 1718.35 694.818L1717.01 710.737C1716.79 712.868 1717.01 715.023 1717.64 717.061C1718.28 719.098 1719.33 720.97 1720.72 722.553C1722.1 724.135 1723.8 725.392 1725.68 726.24C1727.57 727.088 1729.61 727.507 1731.67 727.47H1759.53L1767.83 740.542C1768.38 741.312 1769.09 741.936 1769.91 742.367C1770.74 742.797 1771.64 743.021 1772.56 743.021C1773.48 743.021 1774.39 742.797 1775.21 742.367C1776.04 741.936 1776.75 741.312 1777.3 740.542L1787.78 727.47H1815.36C1819.73 727.394 1823.93 725.65 1827.15 722.567C1830.38 719.483 1832.4 715.275 1832.85 710.737L1834.19 694.818C1834.41 692.677 1834.2 690.511 1833.55 688.466C1832.9 686.42 1831.85 684.542 1830.45 682.958C1829.05 681.373 1827.34 680.118 1825.44 679.278C1823.54 678.438 1821.49 678.031 1819.43 678.085Z" fill="#04D5E3"/>
<path d="M1812.91 699.117H1736.96C1736.42 699.13 1735.89 699.022 1735.4 698.802C1734.91 698.581 1734.47 698.254 1734.11 697.84C1733.75 697.427 1733.48 696.938 1733.32 696.407C1733.16 695.875 1733.11 695.314 1733.17 694.76C1733.28 693.583 1733.8 692.489 1734.63 691.685C1735.46 690.882 1736.55 690.425 1737.68 690.402H1813.63C1814.16 690.399 1814.69 690.513 1815.18 690.737C1815.66 690.96 1816.1 691.288 1816.46 691.699C1816.81 692.111 1817.09 692.596 1817.25 693.123C1817.42 693.65 1817.47 694.208 1817.42 694.76C1817.32 695.942 1816.81 697.043 1815.97 697.849C1815.14 698.655 1814.04 699.107 1812.91 699.117Z" fill="#263238"/>
<path d="M1770.39 714.92H1735.62C1735.09 714.923 1734.56 714.809 1734.08 714.586C1733.59 714.362 1733.15 714.034 1732.8 713.623C1732.44 713.212 1732.17 712.727 1732 712.2C1731.84 711.673 1731.78 711.115 1731.83 710.563C1731.94 709.376 1732.47 708.274 1733.32 707.469C1734.16 706.664 1735.26 706.214 1736.4 706.205H1771.12C1771.65 706.194 1772.19 706.302 1772.68 706.522C1773.17 706.742 1773.62 707.068 1773.98 707.48C1774.34 707.892 1774.62 708.38 1774.79 708.912C1774.96 709.443 1775.02 710.006 1774.96 710.563C1774.84 711.745 1774.31 712.84 1773.47 713.642C1772.62 714.444 1771.53 714.899 1770.39 714.92Z" fill="#263238"/>
<path d="M1232.75 1100.88C1232.08 1107.68 1229.05 1113.99 1224.22 1118.61C1219.4 1123.24 1213.11 1125.86 1206.56 1125.98C1203.48 1126.03 1200.42 1125.4 1197.6 1124.12C1194.77 1122.85 1192.23 1120.96 1190.16 1118.59C1188.08 1116.22 1186.51 1113.41 1185.55 1110.36C1184.6 1107.3 1184.27 1104.07 1184.61 1100.88C1185.26 1094.07 1188.29 1087.75 1193.12 1083.11C1197.94 1078.47 1204.23 1075.84 1210.8 1075.72C1213.88 1075.67 1216.94 1076.3 1219.77 1077.58C1222.61 1078.86 1225.15 1080.75 1227.22 1083.13C1229.3 1085.51 1230.87 1088.32 1231.82 1091.38C1232.77 1094.44 1233.09 1097.68 1232.75 1100.88Z" fill="#263238"/>
<path d="M1220.66 1100.88C1220.32 1104.25 1218.8 1107.38 1216.4 1109.67C1214 1111.97 1210.87 1113.26 1207.62 1113.31C1206.07 1113.37 1204.53 1113.08 1203.1 1112.47C1201.67 1111.85 1200.39 1110.92 1199.33 1109.74C1198.27 1108.57 1197.47 1107.16 1196.98 1105.63C1196.49 1104.11 1196.31 1102.48 1196.48 1100.88C1196.81 1097.5 1198.33 1094.36 1200.73 1092.06C1203.13 1089.76 1206.25 1088.45 1209.51 1088.39C1211.07 1088.33 1212.61 1088.62 1214.05 1089.24C1215.48 1089.85 1216.77 1090.79 1217.83 1091.97C1218.88 1093.16 1219.68 1094.57 1220.17 1096.1C1220.66 1097.64 1220.83 1099.27 1220.66 1100.88Z" fill="#04D5E3"/>
<path d="M1259.27 994.556H1175.69C1171.32 994.643 1167.13 996.392 1163.91 999.473C1160.69 1002.55 1158.66 1006.76 1158.2 1011.29L1156.91 1027.21C1156.68 1029.34 1156.89 1031.5 1157.53 1033.54C1158.16 1035.58 1159.21 1037.46 1160.6 1039.04C1161.99 1040.63 1163.68 1041.89 1165.58 1042.73C1167.47 1043.57 1169.51 1043.99 1171.57 1043.94H1199.43L1207.73 1057.01C1208.28 1057.78 1209 1058.41 1209.82 1058.84C1210.64 1059.27 1211.55 1059.49 1212.47 1059.49C1213.39 1059.49 1214.29 1059.27 1215.12 1058.84C1215.94 1058.41 1216.65 1057.78 1217.2 1057.01L1227.73 1043.94H1255.59C1259.97 1043.85 1264.15 1042.1 1267.38 1039.02C1270.6 1035.94 1272.63 1031.74 1273.09 1027.21L1274.37 1011.29C1274.61 1009.12 1274.39 1006.91 1273.73 1004.84C1273.07 1002.76 1271.98 1000.86 1270.54 999.271C1269.11 997.678 1267.35 996.431 1265.41 995.617C1263.46 994.802 1261.37 994.44 1259.27 994.556Z" fill="#263238"/>
<path d="M1252.81 1015.65H1176.92C1176.38 1015.66 1175.85 1015.55 1175.35 1015.33C1174.86 1015.11 1174.42 1014.78 1174.05 1014.37C1173.69 1013.96 1173.41 1013.47 1173.25 1012.94C1173.08 1012.41 1173.02 1011.85 1173.07 1011.29C1173.18 1010.1 1173.71 1009 1174.55 1008.19C1175.4 1007.39 1176.5 1006.94 1177.64 1006.93H1253.7C1254.24 1006.92 1254.77 1007.03 1255.26 1007.25C1255.76 1007.47 1256.2 1007.79 1256.56 1008.21C1256.93 1008.62 1257.2 1009.11 1257.37 1009.64C1257.54 1010.17 1257.6 1010.73 1257.54 1011.29C1257.42 1012.5 1256.86 1013.62 1255.99 1014.43C1255.11 1015.23 1253.98 1015.67 1252.81 1015.65Z" fill="white"/>
<path d="M1210.35 1031.39H1175.69C1175.16 1031.39 1174.63 1031.28 1174.15 1031.06C1173.66 1030.83 1173.22 1030.51 1172.86 1030.09C1172.51 1029.68 1172.24 1029.2 1172.07 1028.67C1171.91 1028.14 1171.85 1027.59 1171.9 1027.03C1172 1025.85 1172.52 1024.75 1173.35 1023.94C1174.19 1023.14 1175.28 1022.69 1176.42 1022.68H1211.19C1211.72 1022.66 1212.25 1022.77 1212.74 1022.99C1213.23 1023.21 1213.67 1023.54 1214.03 1023.95C1214.39 1024.37 1214.66 1024.86 1214.83 1025.39C1214.99 1025.92 1215.04 1026.48 1214.97 1027.03C1214.86 1028.23 1214.33 1029.34 1213.47 1030.15C1212.62 1030.95 1211.5 1031.4 1210.35 1031.39Z" fill="white"/>
<path d="M827.107 1002.05L811.06 1031.1L795.291 1060.91C784.927 1080.83 775.009 1100.88 765.983 1121.1C761.469 1131.21 757.179 1141.26 753.278 1151.43L752.554 1153.23C752.574 1153.38 752.574 1153.54 752.554 1153.69C752.348 1153.94 752.179 1154.21 752.053 1154.51C751.757 1155.02 751.514 1155.56 751.328 1156.13C750.915 1158.32 751.148 1160.59 751.997 1162.64C755.084 1170.56 759.648 1177.77 765.425 1183.85C772.243 1191.48 779.5 1198.68 787.156 1205.4L774.118 1234.45C767.978 1232.68 761.964 1230.47 756.12 1227.83C750.245 1225.19 744.548 1222.15 739.07 1218.71C726.561 1211.16 715.839 1200.77 707.699 1188.32C702.574 1180.4 699.135 1171.42 697.614 1162C696.972 1156.75 696.972 1151.44 697.614 1146.2C697.869 1143.59 698.297 1141.01 698.896 1138.47L699.787 1134.69L700.512 1132.43C704.078 1120.52 707.811 1108.78 712.157 1097.57C720.562 1074.99 730.046 1052.86 740.574 1031.28C745.756 1020.53 751.161 1009.89 756.844 999.495C762.528 989.095 767.988 978.811 774.619 968.179L827.107 1002.05Z" fill="#FFC3BD"/>
<path d="M772.947 1202.26L802.256 1194.3L803.928 1243.63C803.928 1243.63 781.027 1247.17 766.985 1232.53L772.947 1202.26Z" fill="#FFC3BD"/>
<path d="M843.712 1186L837.137 1229.28L803.928 1243.63L802.256 1194.3L843.712 1186Z" fill="#FFC3BD"/>
<path d="M964.848 769.767C965.461 773.137 967.745 775.577 969.862 775.054C971.98 774.531 973.15 771.51 972.481 768.141C971.813 764.771 969.584 762.33 967.466 762.853C965.349 763.376 963.956 766.398 964.848 769.767Z" fill="#263238"/>
<path d="M967.411 775.577C973.302 785.06 980.407 793.661 988.529 801.141C986.641 803.263 984.331 804.929 981.761 806.023C979.192 807.117 976.424 807.612 973.651 807.474L967.411 775.577Z" fill="#ED847E"/>
<path d="M949.357 753.557C948.865 753.56 948.389 753.374 948.02 753.034C947.663 752.654 947.462 752.143 947.462 751.611C947.462 751.079 947.663 750.568 948.02 750.188C950.075 747.737 952.669 745.843 955.581 744.669C958.493 743.495 961.634 743.076 964.736 743.448C965.246 743.54 965.699 743.84 965.997 744.282C966.295 744.723 966.413 745.269 966.324 745.801C966.235 746.333 965.948 746.806 965.524 747.116C965.101 747.427 964.577 747.549 964.067 747.457C961.643 747.226 959.201 747.601 956.943 748.551C954.685 749.501 952.677 750.998 951.085 752.918C950.866 753.16 950.595 753.344 950.295 753.456C949.995 753.567 949.673 753.602 949.357 753.557Z" fill="#263238"/>
<path d="M872.686 817.235C878.258 848.435 884.388 905.663 863.437 926.521C863.437 926.521 871.628 958.185 927.292 958.185C988.584 958.185 956.489 926.521 956.489 926.521C923.057 918.213 924.005 892.358 929.799 868.072L872.686 817.235Z" fill="#FFC3BD"/>
<path d="M851.346 932.273C846.888 923.616 841.985 913.681 852.181 910.601C863.325 907.174 935.371 900.841 956.545 907.232C950.026 919.316 961.058 934.132 961.058 934.132L851.346 932.273Z" fill="#263238"/>
<path d="M670.089 2387.91C671.74 2388.52 673.492 2388.79 675.243 2388.69C676.994 2388.59 678.708 2388.13 680.285 2387.33C680.895 2386.75 681.315 2385.98 681.485 2385.13C681.654 2384.29 681.566 2383.41 681.233 2382.62C681.053 2381.97 680.734 2381.36 680.3 2380.85C679.866 2380.33 679.328 2379.93 678.725 2379.66C673.153 2376.87 660.505 2382.27 659.947 2382.51C659.781 2382.59 659.641 2382.73 659.543 2382.89C659.444 2383.05 659.392 2383.24 659.39 2383.44C659.363 2383.63 659.398 2383.82 659.489 2383.99C659.579 2384.16 659.721 2384.29 659.892 2384.37C663.162 2385.92 666.58 2387.11 670.089 2387.91ZM676.775 2381.05L677.889 2381.46C678.249 2381.62 678.57 2381.85 678.83 2382.16C679.09 2382.46 679.283 2382.82 679.394 2383.2C679.895 2385.01 679.394 2385.59 679.004 2385.76C676.831 2387.74 668.64 2385.76 662.901 2383.49C667.308 2381.68 672.043 2380.88 676.775 2381.17V2381.05Z" fill="#04D5E3"/>
<path d="M660.114 2384.54H660.616C665.241 2383.15 675.159 2375.77 675.27 2370.95C675.274 2370.19 675.027 2369.45 674.57 2368.85C674.114 2368.26 673.475 2367.85 672.763 2367.69C672.061 2367.45 671.321 2367.36 670.584 2367.42C669.848 2367.48 669.13 2367.69 668.472 2368.04C662.9 2370.95 659.557 2382.8 659.39 2383.26C659.301 2383.41 659.254 2383.58 659.254 2383.76C659.254 2383.93 659.301 2384.1 659.39 2384.25C659.476 2384.36 659.588 2384.44 659.715 2384.5C659.842 2384.55 659.98 2384.56 660.114 2384.54ZM671.704 2369.43H672.15C673.32 2369.84 673.32 2370.48 673.32 2370.71C673.32 2373.56 666.689 2379.31 662.176 2381.69C663.461 2377 666.061 2372.81 669.643 2369.67C670.292 2369.37 671.01 2369.29 671.704 2369.43Z" fill="#04D5E3"/>
<path d="M972.314 2395.17C977.551 2395.17 982.622 2394.42 984.349 2391.98C984.798 2391.33 985.04 2390.54 985.04 2389.74C985.04 2388.94 984.798 2388.16 984.349 2387.5C984.017 2386.92 983.574 2386.41 983.047 2386.01C982.52 2385.61 981.92 2385.33 981.285 2385.18C974.487 2383.26 960.167 2391.74 959.554 2392.09C959.39 2392.2 959.261 2392.36 959.182 2392.55C959.102 2392.73 959.077 2392.94 959.108 2393.14C959.14 2393.34 959.233 2393.53 959.373 2393.68C959.513 2393.82 959.693 2393.92 959.888 2393.95C963.985 2394.76 968.145 2395.16 972.314 2395.17ZM978.833 2386.86C979.444 2386.8 980.06 2386.8 980.672 2386.86C981.461 2387.07 982.141 2387.59 982.566 2388.32C983.291 2389.54 983.012 2390.18 982.566 2390.52C980.616 2393.31 970.308 2393.37 962.674 2392.21C967.686 2389.37 973.17 2387.56 978.833 2386.86Z" fill="#04D5E3"/>
<path d="M959.944 2394.01H960.334C965.293 2391.69 975.1 2382.39 974.32 2377.63C974.32 2376.52 973.372 2375.13 970.698 2374.84C969.703 2374.68 968.688 2374.75 967.724 2375.06C966.76 2375.36 965.873 2375.88 965.126 2376.58C959.888 2381 958.829 2392.5 958.774 2393.02C958.75 2393.19 958.774 2393.36 958.843 2393.52C958.912 2393.67 959.024 2393.81 959.164 2393.89C959.403 2394.03 959.679 2394.07 959.944 2394.01ZM969.918 2376.58H970.531C972.258 2376.58 972.369 2377.51 972.425 2377.74C972.871 2380.65 966.185 2387.91 961.281 2391.05C961.788 2386.16 963.734 2381.55 966.853 2377.86C967.724 2377.13 968.801 2376.72 969.918 2376.7V2376.58Z" fill="#04D5E3"/>
<path d="M914.922 2392.96H955.877L959.944 2294.14H918.99L914.922 2392.96Z" fill="#FFC3BD"/>
<path d="M614.48 2373.21L654.487 2382.22L694.661 2290.19L654.654 2281.18L614.48 2373.21Z" fill="#FFC3BD"/>
<path d="M658.332 2378.03L613.421 2367.92C612.623 2367.72 611.781 2367.82 611.046 2368.2C610.31 2368.58 609.73 2369.23 609.409 2370.02L593.808 2405.28C593.428 2406.14 593.241 2407.08 593.26 2408.03C593.278 2408.98 593.502 2409.91 593.915 2410.75C594.328 2411.6 594.919 2412.33 595.643 2412.9C596.368 2413.48 597.207 2413.87 598.098 2414.06C613.867 2417.31 621.668 2418.06 641.448 2422.54C653.595 2425.27 681.065 2432.24 697.837 2436.02C714.609 2439.79 720.459 2423 713.884 2419.87C684.52 2405.86 672.262 2393.55 664.294 2382.1C662.858 2380.02 660.733 2378.57 658.332 2378.03Z" fill="#263238"/>
<path d="M955.598 2387.91H911.022C910.209 2387.91 909.42 2388.2 908.784 2388.73C908.147 2389.26 907.699 2389.99 907.511 2390.82L899.432 2428.75C899.229 2429.67 899.229 2430.63 899.433 2431.55C899.636 2432.47 900.038 2433.33 900.607 2434.06C901.176 2434.79 901.898 2435.38 902.718 2435.78C903.537 2436.18 904.433 2436.38 905.338 2436.37C921.441 2436.08 944.732 2435.09 965.014 2435.09C988.695 2435.09 1009.2 2436.42 1037 2436.42C1053.72 2436.42 1058.46 2418.7 1051.44 2417.13C1019.4 2409.81 993.264 2409.06 965.571 2391.22C962.606 2389.17 959.153 2388.03 955.598 2387.91Z" fill="#263238"/>
<path d="M790.165 936.166C751.774 945.345 720.125 1047.43 720.125 1047.43L797.186 1108.66C817.144 1086.53 831.222 1059.36 838.028 1029.82C851.234 976.08 829.392 926.753 790.165 936.166Z" fill="#04D5E3"/>
<path opacity="0.2" d="M823.04 1011.23C802.201 1032.73 795.18 1071.89 793.787 1105.93L797.186 1108.66C817.144 1086.5 831.237 1059.31 838.084 1029.76C838.865 1026.57 839.533 1023.37 840.09 1020.24L823.04 1011.23Z" fill="black"/>
<path d="M1019.68 938.373C1019.68 938.373 1051.1 970.445 1039.23 1140.97C1036.11 1186.05 1019.56 1240.84 1010.98 1307.25H819.697C818.136 1272.39 822.538 1101.29 790.165 936.166C814.437 931.297 838.987 928.075 863.66 926.521C894.652 924.66 925.72 924.66 956.712 926.521C977.964 928.754 999.016 932.716 1019.68 938.373Z" fill="#263238"/>
<path opacity="0.6" d="M1041.63 1081.13C1038.01 1056.37 1034.16 1034.65 1030.49 1016.05L1029.26 1015.3L969.305 1041.5C972.203 1080.37 1011.6 1119.59 1039.01 1142.54C1039.01 1142.01 1039.01 1141.43 1039.01 1140.97C1040.57 1118.72 1041.35 1098.9 1041.63 1081.13Z" fill="black"/>
<path opacity="0.2" d="M959.944 2294.14L957.827 2345.09H916.873L918.99 2294.14H959.944Z" fill="black"/>
<path opacity="0.2" d="M654.654 2281.18L694.661 2290.19L673.933 2337.65L633.926 2328.65L654.654 2281.18Z" fill="black"/>
<path d="M855.525 785.512C866.056 826.182 870.179 850.933 894.529 867.956C930.97 893.52 976.27 864.18 977.719 820.779C979 781.736 961.56 721.37 919.491 713.178C910.206 711.279 900.608 711.893 891.615 714.961C882.621 718.028 874.532 723.447 868.117 730.701C861.703 737.955 857.178 746.801 854.973 756.396C852.769 765.991 852.959 776.015 855.525 785.512Z" fill="#FFC3BD"/>
<path d="M944.231 1307.25C944.231 1307.25 897.76 1633.48 872.296 1755.67C844.436 1889.3 694.605 2332.25 694.605 2332.25L621.333 2315.69C621.333 2315.69 726.031 1954.89 749.489 1767.81C759.909 1684.44 761.414 1542.85 774.842 1438.61C781.188 1392.13 796.442 1347.46 819.697 1307.25H944.231Z" fill="#263238"/>
<path d="M712.157 2306.57L698.506 2334.17L616.04 2315.58L623.005 2289.72L712.157 2306.57Z" fill="#04D5E3"/>
<path opacity="0.6" d="M914.867 1423.45C861.153 1434.43 866.836 1643.3 873.299 1750.73C888.79 1674.79 911.468 1528.67 926.958 1424.96C923.21 1423.04 918.944 1422.5 914.867 1423.45Z" fill="black"/>
<path d="M1010.76 1307.25C1010.76 1307.25 1027.48 1626.39 1023.07 1756.54C1018.45 1891.97 972.927 2335.21 972.927 2335.21H903.778C903.778 2335.21 901.215 1899.87 898.206 1766.88C894.807 1621.92 878.036 1307.25 878.036 1307.25H1010.76Z" fill="#263238"/>
<path d="M986.244 2306.57C986.523 2306.57 982.288 2336.55 982.288 2336.55H898.151L895.922 2309.77L986.244 2306.57Z" fill="#04D5E3"/>
<path d="M1039.68 977.3C1045.98 987.526 1053.11 998.972 1060.3 1009.6C1067.48 1020.24 1074.89 1030.98 1082.58 1041.27C1097.14 1061.65 1113.38 1080.66 1131.12 1098.09C1135.41 1102.22 1139.81 1106.05 1144.27 1109.71L1147.61 1112.32C1147 1111.99 1146.34 1111.75 1145.66 1111.63C1144.21 1111.34 1143.49 1111.63 1143.88 1111.63C1147.16 1111.88 1150.45 1111.22 1153.4 1109.71C1158.27 1107.53 1162.98 1104.98 1167.5 1102.1C1188.25 1087.83 1207.92 1071.92 1226.34 1054.52L1250.25 1074.68C1235.75 1100.04 1217.7 1123.01 1196.7 1142.83C1190.74 1148.31 1184.32 1153.23 1177.53 1157.53C1168.95 1163.09 1159.38 1166.79 1149.39 1168.39C1138.23 1170.05 1126.86 1167.54 1117.3 1161.3L1112.45 1158.11C1106.1 1153.81 1100.02 1149.28 1094.23 1144.51C1072.17 1125.82 1052.06 1104.77 1034.22 1081.71C1025.47 1070.43 1017.06 1059.05 1009.2 1047.25C1001.34 1035.46 993.766 1024.01 986.411 1010.53L1039.68 977.3Z" fill="#FFC3BD"/>
<path d="M959.275 1002.92C946.181 1060.15 1045.47 1116.16 1045.47 1116.16L1109.94 1037.38C1090.59 1007.59 1068.53 979.802 1044.08 954.409C998.948 909.265 969.194 959.347 959.275 1002.92Z" fill="#04D5E3"/>
<path d="M1219.77 1066.19L1234.98 1015.24L1275.04 1036.04C1275.04 1036.04 1269.19 1073.22 1240.05 1079.67L1219.77 1066.19Z" fill="#FFC3BD"/>
<path d="M1251.03 1001.12L1287.19 1011.46L1275.04 1036.04L1234.98 1015.24L1251.03 1001.12Z" fill="#FFC3BD"/>
<path d="M897.092 845.82C907.493 843.401 917.01 837.923 924.516 830.035C932.022 822.147 937.201 812.179 939.439 801.315C939.439 801.315 930.524 776.797 947.24 760.123C963.956 743.448 955.709 725.263 938.993 721.835C922.277 718.407 896.646 739.265 896.646 739.265L876.252 777.378L884.555 815.84L897.092 845.82Z" fill="#263238"/>
<path opacity="0.3" d="M897.092 845.82C907.493 843.401 917.01 837.923 924.516 830.035C932.022 822.147 937.201 812.179 939.439 801.315C939.439 801.315 930.524 776.797 947.24 760.123C963.956 743.448 955.709 725.263 938.993 721.835C922.277 718.407 896.646 739.265 896.646 739.265L876.252 777.378L884.555 815.84L897.092 845.82Z" fill="white"/>
<path d="M922.277 787.197C924.989 797.394 930.868 806.364 938.993 812.703C949.636 820.953 957.604 812.703 956.824 800.27C956.155 788.65 949.803 771.22 938.046 767.617C926.289 764.015 919.38 774.938 922.277 787.197Z" fill="#FFC3BD"/>
<path d="M902.664 834.432C892.69 809.624 874.302 745.423 939.272 721.835C939.272 721.835 934.536 659.9 966.129 685.115C966.129 685.115 935.929 644.91 931.75 686.045C931.75 686.045 924.339 672.043 935.483 662.805C935.483 662.805 876.03 642.005 877.423 688.95C875.783 684.121 875.307 678.947 876.036 673.881C876.764 668.816 878.676 664.014 881.602 659.9C881.602 659.9 868.675 659.087 863.548 680.351C858.422 701.616 807.94 697.2 812.565 745.597C812.565 745.597 767.989 804.046 875.027 853.954C875.027 853.954 860.929 863.018 868.953 877.484C870.413 872.409 872.857 867.702 876.136 863.654C879.414 859.606 883.456 856.304 888.009 853.954C888.009 853.954 881.044 870.512 895.922 875.393C894.438 871.114 894.064 866.502 894.836 862.023C895.609 857.545 897.502 853.358 900.324 849.887C902.087 847.812 903.245 845.255 903.66 842.516C904.075 839.778 903.729 836.973 902.664 834.432Z" fill="#263238"/>
<path opacity="0.1" d="M940.943 859.88C926.79 860.577 927.626 874.986 927.849 877.31C940.118 876.064 951.605 870.465 960.39 861.449C955.263 862.378 949.803 859.473 940.943 859.88Z" fill="black"/>
<path d="M933.755 715.618C933.755 715.618 941.055 687.556 954.818 693.133C968.58 698.711 958.829 721.428 965.962 732.06C962.656 730.593 959.775 728.25 957.606 725.264C955.436 722.278 954.052 718.752 953.592 715.037C951.586 701.79 939.104 721.835 939.104 721.835L933.755 715.618Z" fill="#263238"/>
<path d="M939.16 827.983L952.422 812.122L947.351 807.474H930.914L925.843 812.122L939.16 827.983Z" fill="#04D5E3"/>
<path opacity="0.2" d="M937.322 807.474H930.914L925.843 812.122L939.16 827.983L932.251 812.122L937.322 807.474Z" fill="white"/>
</svg>
