<svg width="130" height="129" viewBox="0 0 130 129" fill="none" xmlns="http://www.w3.org/2000/svg">
<path d="M65.0065 63.5005C43.3703 63.5005 33.5 48.9243 33.5 31.0005C35 12.4999 43 2.49994 65.0065 0.499451C86.6428 0.499451 99.5 13.0768 99.5 31.0005C99.5 48.9243 86.6428 63.5005 65.0065 63.5005ZM65.0065 74.3339C31.64 74.3339 3.70711 95.0364 0.0389567 122.488C-0.16374 124.021 0.431274 125.548 1.66707 126.697C2.9094 127.845 4.68137 128.501 6.53833 128.501H25.7684C25.7684 110.577 43.3638 96.0005 65 96.0005C86.6362 96.0005 104.232 110.577 104.232 128.501H123.462C125.319 128.501 127.091 127.845 128.333 126.697C129.569 125.548 130.164 124.021 129.961 122.488C126.293 95.0364 98.36 74.3339 64.9935 74.3339H65.0065Z" fill="#32292F"/>
</svg>
