<svg width="59" height="60" viewBox="0 0 59 60" fill="none" xmlns="http://www.w3.org/2000/svg">
<path d="M43.7475 5.69579H14.5825V0.834961H43.7475V5.69579ZM51.0388 12.987H7.29125V17.8479H51.0388V12.987ZM58.33 44.5825C58.33 52.6369 51.8019 59.165 43.7475 59.165C35.6931 59.165 29.165 52.6369 29.165 44.5825C29.165 36.5281 35.6931 30 43.7475 30C51.8019 30 58.33 36.5281 58.33 44.5825ZM53.4692 42.152H46.1779V34.8608H41.3171V42.152H34.0258V47.0129H41.3171V54.3041H46.1779V47.0129H53.4692V42.152ZM24.3042 44.5825C24.3042 33.8449 33.0099 25.1391 43.7475 25.1391H7.29125C3.27134 25.1391 0 28.4105 0 32.4304V59.165H30.9173C26.8707 55.602 24.3042 50.3984 24.3042 44.5825Z" fill="white"/>
</svg>
