<svg width="59" height="60" viewBox="0 0 59 60" fill="none" xmlns="http://www.w3.org/2000/svg">
<path d="M58.33 49.4433C58.33 50.78 57.1889 51.8737 55.7943 51.8737H50.7228V56.7345C50.7228 58.0713 49.5817 59.165 48.187 59.165C46.7924 59.165 45.6513 58.0713 45.6513 56.7345V51.8737H40.5798C39.1851 51.8737 38.0441 50.78 38.0441 49.4433C38.0441 48.1066 39.1851 47.0129 40.5798 47.0129H45.6513V42.152C45.6513 40.8153 46.7924 39.7216 48.187 39.7216C49.5817 39.7216 50.7228 40.8153 50.7228 42.152V47.0129H55.7943C57.1889 47.0129 58.33 48.1066 58.33 49.4433ZM33.2008 47.0129H10.1509C7.13336 47.0129 4.29333 45.7491 2.36616 43.5374C0.438997 41.3257 -0.37244 38.4335 0.160066 35.5899L3.40582 20.5699C4.47083 14.8342 9.61839 10.6538 15.6788 10.5809C15.3999 9.8032 15.197 9.00116 15.197 8.12621C15.197 4.11602 18.6203 0.834961 22.8042 0.834961H32.9472C37.1312 0.834961 40.5544 4.11602 40.5544 8.12621C40.5544 8.97686 40.3769 9.8032 40.0727 10.5809C46.1331 10.6782 51.2806 14.8342 52.3456 20.5699L55.5914 35.5899C55.6675 35.9788 55.6421 36.392 55.6675 36.7808C53.436 35.5656 50.8749 34.8608 48.1363 34.8608C40.6052 34.8608 34.3672 40.1105 33.1501 47.0129H33.2008ZM32.9726 10.5566C34.3672 10.5566 35.5083 9.46294 35.5083 8.12621C35.5083 6.78948 34.3672 5.69579 32.9726 5.69579H22.8296C21.4349 5.69579 20.2939 6.78948 20.2939 8.12621C20.2939 9.46294 21.4349 10.5566 22.8296 10.5566H32.9726ZM18.1131 51.8737C19.2542 56.054 23.1846 59.165 27.9011 59.165C30.6143 59.165 33.0233 58.1199 34.849 56.4429C34.0376 55.0333 33.4797 53.5021 33.2008 51.8737H18.1131Z" fill="white"/>
</svg>
