<svg width="59" height="60" viewBox="0 0 59 60" fill="none" xmlns="http://www.w3.org/2000/svg">
<path d="M43.7475 30C35.7028 30 29.165 36.5378 29.165 44.5825C29.165 52.6271 35.7028 59.165 43.7475 59.165C51.7922 59.165 58.33 52.6271 58.33 44.5825C58.33 36.5378 51.7922 30 43.7475 30ZM49.6048 48.0093L45.4488 52.1654C44.9627 52.6515 44.3551 52.8702 43.7232 52.8702C43.0913 52.8702 42.4837 52.6271 41.9976 52.1654C41.0497 51.2175 41.0497 49.6863 41.9976 48.7385L43.7232 47.0129H36.4319C35.0952 47.0129 34.0015 45.9192 34.0015 44.5825C34.0015 43.2457 35.0952 42.152 36.4319 42.152H43.7232L41.9976 40.4265C41.0497 39.4786 41.0497 37.9474 41.9976 36.9996C42.9455 36.0517 44.4766 36.0517 45.4245 36.9996L49.5805 41.1556C50.5284 42.1034 50.9901 43.3429 50.9901 44.5825C50.9901 45.822 50.5041 47.0615 49.5805 48.0093H49.6048ZM25.7138 51.8737H12.1521C5.44413 51.8737 0 46.4296 0 39.7216V12.987C0 6.27909 5.44413 0.834961 12.1521 0.834961V15.4175C12.1521 18.0909 14.3395 20.2783 17.0129 20.2783H34.0258C36.6993 20.2783 38.8867 18.0909 38.8867 15.4175V1.51548C39.6887 1.88004 40.4421 2.36612 41.0497 2.99803L48.9243 10.9455C50.2853 12.3065 51.0388 14.1293 51.0388 16.0737V25.1391C51.0388 25.6009 50.8686 26.0384 50.6256 26.4272C48.4868 25.6009 46.1536 25.1391 43.7475 25.1391C39.5429 25.1391 35.6542 26.5002 32.4704 28.7848C30.9392 26.5974 28.3873 25.1391 25.5194 25.1391C20.8287 25.1391 17.0129 28.9549 17.0129 33.6456C17.0129 37.9717 20.294 41.5201 24.4986 42.0548C24.4014 42.8812 24.3042 43.7318 24.3042 44.5825C24.3042 47.1587 24.8146 49.6134 25.7381 51.8737H25.7138ZM34.0015 15.4175H17.0129V0.834961H34.0258V15.4175H34.0015ZM28.8004 32.1387C27.5123 33.6699 26.4915 35.3955 25.7138 37.2669C25.6409 37.2669 25.568 37.2669 25.4951 37.2669C23.4778 37.2669 21.8494 35.6385 21.8494 33.6213C21.8494 31.604 23.4778 29.9757 25.4951 29.9757C26.9533 29.9757 28.2171 30.8506 28.8004 32.1144V32.1387Z" fill="white"/>
</svg>
