<svg width="59" height="60" viewBox="0 0 59 60" fill="none" xmlns="http://www.w3.org/2000/svg">
<path d="M31.5954 40.8445L53.4692 49.4433V59.165H13.4596L9.03386 55.2082C6.80517 53.1229 6.70066 49.6013 8.79568 47.358C10.8883 45.1172 14.4172 45.0005 16.6581 47.0931C16.7407 47.1709 19.2562 49.2756 21.8713 51.4289V30C21.8713 27.047 24.5035 24.7114 27.5488 25.2048C29.9379 25.5936 31.593 27.8369 31.593 30.26V40.8445H31.5954ZM51.0388 0.834961H7.29125C3.27134 0.834961 0 4.1063 0 8.12621V27.5695H17.3192C18.3983 23.3771 22.2043 20.2783 26.7346 20.2783C31.2649 20.2783 35.0709 23.3771 36.15 27.5695H58.33V8.12621C58.33 4.1063 55.0587 0.834961 51.0388 0.834961Z" fill="white"/>
</svg>
