<svg width="57" height="60" viewBox="0 0 57 60" fill="none" xmlns="http://www.w3.org/2000/svg">
<path d="M21.8738 30C13.8315 30 7.29125 23.4597 7.29125 15.4175C7.29125 7.37521 13.8315 0.834961 21.8738 0.834961C29.916 0.834961 36.4563 7.37521 36.4563 15.4175C36.4563 23.4597 29.916 30 21.8738 30ZM55.1607 47.3386L52.7935 45.9727C53.197 44.7647 53.4692 43.4961 53.4692 42.152C53.4692 40.808 53.1994 39.5393 52.7935 38.3314L55.1607 36.9655C56.3225 36.2947 56.7211 34.8073 56.0503 33.6456C55.377 32.4814 53.8945 32.0804 52.7303 32.7561L50.3655 34.1219C48.6521 32.1922 46.3699 30.7801 43.7475 30.2479V27.572C43.7475 26.2304 42.6587 25.1416 41.3171 25.1416C39.9755 25.1416 38.8867 26.2304 38.8867 27.572V30.2479C36.2642 30.7826 33.9821 32.1946 32.2686 34.1219L29.9038 32.7561C28.7372 32.0828 27.2547 32.4814 26.5839 33.6456C25.9131 34.8098 26.3117 36.2947 27.4734 36.9655L29.8407 38.3314C29.4372 39.5393 29.165 40.808 29.165 42.152C29.165 43.4961 29.4348 44.7647 29.8407 45.9727L27.4734 47.3386C26.3117 48.0094 25.9131 49.4968 26.5839 50.6585C27.036 51.4387 27.8501 51.8737 28.6911 51.8737C29.1018 51.8737 29.5198 51.7692 29.9038 51.548L32.2686 50.1821C33.9821 52.1119 36.2642 53.524 38.8867 54.0562V56.7321C38.8867 58.0737 39.9755 59.1625 41.3171 59.1625C42.6587 59.1625 43.7475 58.0737 43.7475 56.7321V54.0562C46.3699 53.5215 48.6521 52.1095 50.3655 50.1821L52.7303 51.548C53.1143 51.7692 53.5324 51.8737 53.9431 51.8737C54.784 51.8737 55.6006 51.4387 56.0503 50.6585C56.7211 49.4943 56.3225 48.0094 55.1607 47.3386ZM41.3171 45.7977C39.3071 45.7977 37.6715 44.162 37.6715 42.152C37.6715 40.1421 39.3071 38.5064 41.3171 38.5064C43.327 38.5064 44.9627 40.1421 44.9627 42.152C44.9627 44.162 43.327 45.7977 41.3171 45.7977ZM19.4433 42.152C19.4433 39.6147 19.8978 37.1867 20.6926 34.9216C9.18211 35.5389 0 45.0734 0 56.7345C0 58.0761 1.08883 59.165 2.43042 59.165H27.5828C22.6223 55.1548 19.4433 49.0277 19.4433 42.152Z" fill="white"/>
</svg>
