<svg width="59" height="60" viewBox="0 0 59 60" fill="none" xmlns="http://www.w3.org/2000/svg">
<path d="M26.3015 32.4317H35.0119L56.5282 11.2108C58.9306 8.84109 58.9306 4.98385 56.5282 2.61653C54.1208 0.244345 50.2128 0.246776 47.8152 2.61653L26.3015 23.8398V32.4317ZM49.5598 4.33248C51.0037 2.91062 53.3446 2.91305 54.7885 4.33248C56.23 5.75433 56.23 8.06818 54.7885 9.49004L51.7109 12.5258L46.4822 7.36819L49.5598 4.33248ZM28.768 24.8436L44.7425 9.08657L49.9713 14.2441L33.9967 30.0012H28.7704V24.846L28.768 24.8436ZM50.3286 35.0615L57.5335 39.084L51.462 49.6592L44.2497 45.6318C41.6279 48.162 38.437 49.997 34.9281 50.996V59.165H22.6078V50.996C19.0965 49.997 15.9056 48.1596 13.2838 45.6318L6.07393 49.6592L0 39.0865L7.20493 35.0615C6.79836 33.3796 6.59138 31.6782 6.59138 30.0012C6.59138 28.3241 6.79836 26.6228 7.20493 24.9433L0 20.9183L6.07393 10.3431L13.2838 14.3705C15.9056 11.8403 19.099 10.0053 22.6078 9.00636V0.834961H34.9281V8.4595L32.4641 10.89V3.26548H25.0719V10.8997L24.1281 11.1258C20.4 12.0129 17.0366 13.9476 14.3975 16.7208L13.7347 17.4184L7.00288 13.6584L3.35852 20.002L10.083 23.7596L9.82177 24.6783C9.31171 26.4478 9.05298 28.239 9.05298 30.0012C9.05298 31.7633 9.30925 33.557 9.82177 35.3264L10.083 36.2452L3.35852 40.0028L7.00288 46.3464L13.7347 42.584L14.4 43.2815C17.0341 46.0572 20.4025 47.9919 24.1281 48.879L25.0719 49.105V56.7369H32.4641V49.105L33.4078 48.879C37.1335 47.9943 40.4969 46.0572 43.1335 43.2815L43.7988 42.584L50.5331 46.3464L54.175 40.0028L47.4481 36.2452L47.7142 35.3264C48.2243 33.5595 48.4805 31.7682 48.4805 30.0036V30.0012C48.4805 28.8102 48.3203 27.6095 48.0863 26.4113L50.161 24.3648L50.3261 24.9408C50.7351 26.6203 50.9421 28.3193 50.9421 30.0012C50.9421 31.6807 50.7351 33.382 50.3261 35.0639L50.3286 35.0615ZM27.0505 18.0187L21.3758 23.6162L21.3832 23.6259C19.8628 25.337 18.9117 27.5512 18.9117 29.9987C18.9117 35.3605 23.3322 39.7208 28.768 39.7208C31.7175 39.7208 34.3368 38.4108 36.1454 36.3813H36.1602L40.9158 31.6928C40.0707 37.5868 34.975 42.1513 28.768 42.1513C21.9745 42.1513 16.4476 36.6997 16.4476 29.9987C16.4476 23.8787 21.0752 18.85 27.0505 18.0163V18.0187Z" fill="white"/>
</svg>
