<svg width="59" height="60" viewBox="0 0 59 60" fill="none" xmlns="http://www.w3.org/2000/svg">
<path d="M1.30696 5.3053L4.51268 2.09958C5.89315 0.719101 8.02949 0.437173 9.72106 1.4142L19.0344 6.78785C20.8159 7.81592 21.9145 9.7165 21.9145 11.7726V19.2729L33.4006 30.7591C36.1105 29.4831 39.4329 29.9351 41.6737 32.1687L55.9865 46.4401C58.6867 49.133 59.2068 53.5272 56.7861 56.4753C54.0033 59.8657 48.9796 60.0529 45.9513 57.0319L31.3445 42.4664C29.0939 40.2231 28.6491 36.8886 29.9494 34.1811L18.4779 22.7095H10.9776C8.92145 22.7095 7.01844 21.611 5.9928 19.8295L0.621579 10.5137C-0.353018 8.82211 -0.0735203 6.68577 1.30696 5.3053ZM26.7753 11.7726V17.2605L34.8321 25.3149C38.5361 24.7997 42.3761 26.0027 45.1055 28.7248L50.4719 34.0766C55.0581 30.8709 58.1617 25.6236 58.3683 19.7833C58.4363 17.8535 58.2103 15.97 57.6902 14.152C57.3718 13.0413 54.9535 11.2841 52.9606 13.2771C50.9677 15.27 44.9013 21.3363 44.9013 21.3363C42.9886 23.2491 39.8607 23.1932 37.9674 21.2488C36.0255 19.3555 35.9647 16.2252 37.8774 14.3124C37.8774 14.3124 43.9438 8.2461 45.9367 6.25316C47.9296 4.26022 46.1725 1.84195 45.0618 1.52357C43.2438 1.00346 41.3602 0.775001 39.4305 0.845483C34.0568 1.03749 29.1911 3.68421 25.949 7.67739C26.4836 8.95578 26.7753 10.346 26.7753 11.7726ZM24.4956 35.6004L18.9226 30.0275L2.11386 46.7852C-0.710289 49.6118 -0.693276 54.2199 2.09684 57.0683C4.94529 59.8609 9.55336 59.8779 12.3799 57.0537L26.0267 43.4458C24.6463 41.0786 24.1018 38.3104 24.4956 35.6004Z" fill="white"/>
</svg>
